<svg width="1280" height="720" viewBox="0 0 1280 720" fill="none" xmlns="http://www.w3.org/2000/svg">
<rect width="1280" height="720" fill="#E5E5E5"/>
<g id="day-mode-desktop" clip-path="url(#clip0_0:1)">
<rect width="1280" height="720" fill="white"/>
<g id="background-day-mode">
<path id="path14" d="M0.607422 557.874H1280V-9.43542e-05H0.607422V557.874Z" fill="#DCFDFF"/>
<path id="Vector 1" d="M1 715V528L1280 539.021V715H1Z" fill="#52DEFF"/>
<path id="path54" d="M741.039 179.524C752.95 181.84 877.184 230.253 877.184 230.253L938.423 226.495L1089.79 187.453L1172.32 205.15L1226.76 205.173L1279.5 214.589L1279.62 341.151L273.644 340.717L273.596 290.229L561.569 187.225L667.882 174.025C667.882 174.025 729.128 177.205 741.039 179.524Z" fill="#C6EDEB"/>
<path id="path78" d="M520.245 110.254L536.045 122.035L614.861 187.247L694.749 212.932L806.153 271.747L806.21 332.389L273.649 332.159L334.703 190.859L421.903 138.806L435.487 125.356L459.283 126.207L494.395 110.243L520.245 110.254Z" fill="#5EEAE1"/>
<path id="path140" d="M69.3409 173.24L136.407 188.303L262.619 254.797L443.338 275.06L557.441 267.54L609.997 258.31L639.369 262.529L746.861 240.708L784.235 226.428L835.378 227.29L859.256 240.757L892.214 241.613L1009.29 265.212L1153.64 281.252L1278.67 299.564L1278.78 413.556L0.242199 413.004L0.0186708 176.908L43.1951 167.237L69.3409 173.24Z" fill="#7CDFD9"/>
<path id="path158" opacity="0.320007" d="M785.701 226.429L831.032 233.176L850.878 251.267L900.734 249.186L1010.09 265.212L893.36 241.613L860.5 240.758L836.692 227.292L785.701 226.429Z" fill="white"/>
<path id="path174" opacity="0.149994" d="M684.355 297.871L746.136 326.071L867.389 336.215L958.539 413.418L386.36 413.171L442.134 274.647L445.814 275.061L559.578 267.541L611.978 258.311L641.264 262.53L748.436 240.709L684.339 281.05L684.355 297.871Z" fill="#F0E5DF"/>
<path id="path204" d="M320.024 91.2457C320.024 91.2457 335.397 110.175 344.784 113.333C354.171 116.491 373.812 137.945 373.812 137.945L423.332 182.119L441.245 180.235C441.245 180.235 459.157 178.35 469.396 180.247C479.635 182.144 481.36 202.329 481.36 202.329C481.36 202.329 496.726 213.689 503.566 230.092C510.406 246.494 537.798 280.987 537.798 280.987L552.038 280.993L580.698 288.155L604.294 312.134L691.456 333.617L807.374 351.328C807.374 351.328 966.044 350.135 1003.4 341.321C1040.76 332.506 1167.27 250.562 1167.27 250.562C1167.27 250.562 1203.1 246.793 1233.81 250.591C1245.25 252.005 1262.62 264.968 1279.91 280.686L1280.16 545.806L0.552629 545.253L0.313567 292.75L46.345 256.386C46.345 256.386 70.2178 242.52 83.8591 234.326C97.5005 226.132 126.461 180.099 126.461 180.099C126.461 180.099 147.774 164.97 167.387 157.409C187.001 149.849 213.408 110.122 213.408 110.122L279.93 91.2284L320.024 91.2457Z" fill="#2B5850"/>
<path id="path406" d="M1083.64 280.206C1083.64 280.206 1101.84 324.694 1117.73 331.962C1133.62 339.231 1172.2 355.133 1172.2 355.133L1214.2 378.762L1249.37 378.777L1280.02 402.071L1280.16 545.806L234.177 545.354L234.131 496.807C234.131 496.807 398.872 451.927 421.98 445.357C445.088 438.786 520.487 399.785 536.652 394.346C552.816 388.906 597.46 388.926 597.46 388.926L616.763 376.226L653.747 368.979L668.313 364.447L705.399 336.323C705.399 336.323 741.509 334.523 762.85 330.901C784.188 327.28 821.622 321.85 821.622 321.85L898.738 293.743L991.739 265.642L1057.53 260.224L1083.64 280.206Z" fill="#257171"/>
<path id="path454" d="M333.407 330.517L518.682 411.329C518.682 411.329 584.263 423.972 590.829 425.656C597.396 427.34 621.295 433.321 640.056 432.405C643.82 432.221 647.165 433.264 651.213 434.309C656.34 435.631 662.596 436.954 672.254 435.783C689.538 433.687 710.006 426.549 715.696 427.813C721.382 429.077 754.947 437.5 777.7 439.613C800.451 441.725 810.687 440.047 823.204 444.678C835.721 449.309 860.186 460.251 863.6 461.094C865.117 461.469 867.533 461.18 869.848 460.891C872.741 460.528 875.479 460.166 876.111 461.1C877.251 462.781 893.163 449.754 894.868 448.493C895.557 447.984 896.617 449.05 898.309 450.118C900.81 451.694 904.692 453.271 910.793 449.762C921.025 443.879 934.106 442.623 936.381 443.465C938.658 444.308 980.19 459.042 985.309 459.465C987.585 459.653 991.881 459.51 996.102 459.366C1001.38 459.187 1006.54 459.008 1007.49 459.475C1009 460.215 1227.87 507.713 1279.97 519.014L1280 545.79L0.326815 545.238L0.159615 368.637L25.1849 368.647L70.6677 352.268C70.6677 352.268 105.91 330.419 127.518 325.383C149.124 320.346 199.166 311.117 199.166 311.117C199.166 311.117 224.181 301.877 241.248 306.93C258.315 311.983 294.709 305.447 294.709 305.447L333.407 330.517Z" fill="#355E3E"/>
<path id="path254" d="M1050.63 534.75V537.27H0V399.676C56.4549 403.264 142.509 408.59 251.175 414.883C366.146 421.539 612.347 460.006 803.949 492.063C919.896 511.467 1015.85 528.519 1050.63 534.75Z" fill="#BCE870"/>
<path id="path266" d="M911.169 537.27H0V414.965C80.8395 425.611 261.356 449.374 311.561 455.834C328.553 458.021 349.802 459.914 371.94 461.517C373.117 461.602 310.665 474.016 310.665 474.016C310.665 474.016 377.833 461.936 379.014 462.018C387.826 462.627 414.259 464.24 405.49 463.711C399.562 463.354 290.948 477.899 290.948 477.899C290.948 477.899 411.563 464.065 412.74 464.133C415.702 464.301 418.645 464.465 421.557 464.624C422.535 464.676 329.1 473.534 329.1 473.534C329.1 473.534 440.506 465.601 441.724 465.665C484.064 467.892 505.017 468.295 505.017 468.295L525.785 469.837L336.544 495.028L532.169 470.311L538.621 470.789L438.825 488.865L545.61 471.308L551.831 471.77L506.191 486.063L558.054 472.231L563.288 472.62L455.585 505.674L568.565 473.012L588.814 474.515L911.169 537.27" fill="#7B9B49"/>
<path id="path258" d="M1136.46 587.695C1136.46 587.695 1200.15 574.345 1280 557.874V720H766.741C791.224 715.349 812.325 711.914 825.938 710.843C859.92 708.173 938.179 681.397 1001.49 658.117C1046.95 641.401 1084.72 626.498 1092.85 623.621C1112.31 616.736 1136.46 587.695 1136.46 587.695Z" fill="#C1F9A7"/>
<path id="path260" d="M1280 574.993V720H888.17C917.14 706.371 947.775 694.269 973.333 689.406C980.147 688.11 986.795 686.607 993.256 684.951C1055.51 668.998 1099.77 638.734 1099.77 638.734C1099.77 638.734 1162.66 601.974 1173.05 601.974C1178.26 601.974 1229.82 588.468 1280 574.993" fill="#88D198"/>
<path id="path262" d="M1280 650.11V720H919.467C937.201 709.06 952.301 701.774 961.075 701.774C975.581 701.774 999.112 697.86 1024.58 692.093C1044.51 687.578 1065.64 681.925 1084.55 676.125C1085.08 675.962 1096.49 655.49 1096.49 655.49L1088.12 675.02C1088.12 675.02 1088.9 674.762 1090.25 674.312C1090.52 674.221 1119.05 634.664 1119.37 634.558C1119.56 634.495 1095.61 673.29 1095.81 673.223C1103.49 670.649 1117.34 665.172 1124.98 661.997C1127.18 661.084 1162.41 611.245 1162.41 611.245L1130.11 661.054L1131.9 660.643L1168.91 618.998L1133.7 660.482C1133.7 660.482 1236.9 650.911 1280 650.11" fill="#71A568"/>
<path id="Line 12" d="M0.485352 538L1284 541.014" stroke="#224041" stroke-opacity="0.75" stroke-width="11"/>
<path id="path254_2" d="M1192.37 716.551V720H0.607422V531.692C64.6458 536.603 162.259 543.891 285.523 552.504C415.937 561.613 695.21 614.258 912.549 658.131C1044.07 684.686 1152.91 708.023 1192.37 716.551Z" fill="#7AE870"/>
<path id="path256" d="M850.296 678.503L663.653 634.276L640.831 632.214L513.49 677.024L634.883 631.677L628.984 631.144L570.529 650.119L621.97 630.51L614.958 629.877L494.601 653.963L607.081 629.165L599.809 628.509L379.319 662.418L592.613 627.858L569.205 625.743C569.205 625.743 545.59 625.19 497.868 622.135C497.863 622.135 497.855 622.134 497.846 622.134C495.485 622.134 370.929 632.931 370.929 632.931C370.929 632.931 476.24 620.778 475.138 620.706C471.855 620.489 468.539 620.263 465.2 620.033C465.196 620.032 465.192 620.032 465.188 620.032C463.211 620.032 327.928 638.919 327.928 638.919C327.928 638.919 447.405 619.445 456.735 619.445C456.848 619.445 456.948 619.448 457.028 619.455C458.386 619.554 458.994 619.599 459.01 619.599C459.107 619.599 435.755 617.853 427.187 617.131C427.183 617.13 427.178 617.13 427.171 617.13C425.341 617.13 350.151 633.592 350.151 633.592C350.151 633.592 420.541 616.561 419.214 616.445C394.262 614.245 370.313 611.648 351.16 608.648C348.429 608.219 345.36 607.737 341.973 607.203V583.789C364.285 588.681 396.252 595.699 461.211 600.469C566.825 608.225 646.439 612.837 672.375 618.987C698.312 625.136 778.592 652.81 814.38 663.571C822.525 666.019 838.511 670.296 859.102 675.44C856.165 676.469 853.23 677.489 850.296 678.503V678.503ZM0 620.601V548.19C18.649 553.816 39.788 557.467 63.2893 557.467C89.5554 557.474 116.08 558.756 141.543 560.68V575.251C87.5418 566.61 35.33 558.242 0 552.579V606.687V620.601V620.601ZM328.91 605.139C302.601 600.975 264.654 594.928 222.932 588.264V568.865C261.252 573.466 291.361 577.795 305.705 578.176C313.735 578.39 320.916 579.441 328.91 581.016V605.139ZM209.868 586.177C191.79 583.289 173.159 580.309 154.606 577.341V561.729C173.994 563.374 192.614 565.337 209.868 567.327V586.177Z" fill="#6BBE5E"/>
<path id="path266_2" d="M1026.46 720H0V552.558C91.0681 567.134 294.426 599.666 350.982 608.51C370.125 611.504 394.062 614.095 419.001 616.291C420.327 616.408 349.974 633.403 349.974 633.403C349.974 633.403 425.641 616.865 426.971 616.976C436.897 617.811 466.675 620.018 456.796 619.295C450.119 618.806 327.762 638.719 327.762 638.719C327.762 638.719 463.639 619.779 464.964 619.872C468.301 620.102 471.616 620.327 474.897 620.544C475.998 620.616 370.741 632.743 370.741 632.743C370.741 632.743 496.243 621.882 497.616 621.97C545.313 625.018 568.917 625.57 568.917 625.57L592.313 627.681L379.127 662.169L599.505 628.33L606.773 628.985L494.35 653.731L614.646 629.695L621.655 630.327L570.24 649.895L628.665 630.959L634.561 631.492L513.23 676.744L640.506 632.028L663.316 634.085L1026.46 720" fill="#499B6A"/>
<path id="path274" d="M211.166 594.479H224.195V539.986H211.166V594.479Z" fill="#1A3233"/>
<path id="path276" d="M143.023 588.171H156.052V551.404H143.023V588.171Z" fill="#1A3233"/>
<path id="path320" d="M200.74 699.994H134L332.925 626H345.953L200.74 699.994Z" fill="#197D57"/>
<g id="arbre-3">
<path id="path280" d="M196.75 552.735L143.521 551.692L123.445 551.3L102.094 550.886L107.062 519.687L131.451 492.986L140.778 482.764C140.335 483.086 136.844 485.626 132.014 489.096C125.495 493.776 116.555 500.177 109.371 505.151L120.499 435.27L140.197 409.836L121.986 425.922L135.967 338.106L149.542 324.137L136.835 332.672L146.707 270.643L157.881 333.647L160.495 348.398L160.504 348.428L164.041 368.383L158.989 366.403L152.266 363.763L149.542 362.696L152.174 364.27L158.832 368.253L164.641 371.73L180.931 463.537L152.128 448.632L146.966 445.962L151.999 450.137L183.129 475.963L196.75 552.735" fill="#197D57"/>
<path id="path288" d="M123.445 551.3L102.094 550.887L107.062 519.687L131.451 492.986C128.117 516.118 125.421 536.135 123.445 551.3" fill="#7CAF87"/>
</g>
<path id="path278" d="M330.066 625.98H343.095V571.486H330.066V625.98Z" fill="#1A3233"/>
<g id="arbre-2">
<path id="path294" d="M273.437 538.936L244.513 539.596L230.532 539.918L179.103 541.1L154.64 541.669L164.272 496.103L188.837 468.526L207.833 447.197L189.714 462.655L167.301 481.781L185.992 393.335C191.829 388.515 198.385 383.12 204.333 378.23C214.103 370.195 222.211 363.525 222.747 363.088L205.081 374.439L187.608 385.676L206.724 295.218L220.854 286.668L207.519 291.465L221.796 223.895L228.962 190.01L236.442 248.7V248.716L247.164 332.795L240.967 331.751L234.752 330.699L241.078 333.317L247.57 335.995L257.036 410.25L245.317 405.308L228.103 398.055L245.575 411.103L258.356 420.65L273.437 538.936Z" fill="#44875F"/>
<path id="path296" d="M230.532 539.918L179.103 541.1L154.64 541.669L164.272 496.103L188.837 468.526L207.833 447.197L189.714 462.655L167.301 481.781L185.992 393.335C191.829 388.515 198.385 383.12 204.333 378.23C214.103 370.195 222.211 363.525 222.747 363.088L205.081 374.439L187.608 385.676L206.724 295.218L220.854 286.668L207.519 291.465L221.796 223.895C225.646 316.907 229.922 471.827 230.532 539.918" fill="#2B5E2A"/>
<path id="path302" d="M273.437 538.936L244.513 539.596C248.318 511 247.865 462.762 245.575 411.103L258.356 420.65L273.437 538.936" fill="#97D188"/>
</g>
<g id="arbre-1">
<path id="path304" d="M383.847 578.293L363.633 577.625L288.96 575.155L293.928 543.955L327.672 507.008C327.1 507.423 308.916 520.631 296.237 529.42L307.365 459.539L327.063 434.104L308.852 450.183L322.833 362.374L327.331 357.746L336.399 348.398L326.583 354.998L323.692 356.94L324.957 349.012L333.573 294.911L350.907 392.651L336.399 386.964L351.507 395.998L367.788 487.805L355.709 481.558L333.832 470.231L357.076 489.517L369.995 500.231L383.847 578.293" fill="#874444"/>
<path id="path306" d="M367.788 487.806L355.709 481.558C348.617 441.365 338.006 397.48 327.33 357.746C327.072 356.825 326.832 355.912 326.582 354.998C326.038 352.988 325.493 350.992 324.957 349.012L333.573 294.911L350.907 392.652L336.399 386.965L351.507 395.998L367.788 487.806Z" fill="#D18888"/>
<path id="path308" d="M363.632 577.625C365.692 554.716 362.774 523.678 357.076 489.517L369.995 500.231L383.847 578.293L363.632 577.625" fill="#D1C188"/>
</g>
<path id="path316" d="M0 671.224V620.61L143.002 588.231H156.2L0 671.224Z" fill="#197D57"/>
<path id="path318" d="M43.7247 695.976H0V672.112L210.943 594.782H224.073L43.7247 695.976Z" fill="#197D57"/>
<g id="roue-eolienne-2">
<path id="path204_2" d="M499.075 312.565L493.193 283.923L487.309 312.565C486.931 314.402 487.232 316.296 488.17 317.974L493.193 326.972L498.215 317.974C499.152 316.296 499.453 314.402 499.075 312.565Z" fill="white"/>
<path id="path208" d="M474.095 329.545L445.357 347.854L479.978 337.523C482.198 336.861 484.142 335.708 485.531 334.235L492.971 326.33L480.509 327.423C478.184 327.627 475.938 328.37 474.095 329.545Z" fill="white"/>
<path id="path212" d="M505.365 337.993L539.986 348.325L511.247 330.014C509.405 328.84 507.158 328.097 504.833 327.893L492.372 326.8L499.813 334.705C501.2 336.179 503.144 337.33 505.365 337.993Z" fill="white"/>
<path id="path218" d="M497.607 326.973C497.607 329.107 495.398 330.837 492.673 330.837C489.945 330.837 487.736 329.107 487.736 326.973C487.736 324.838 489.945 323.108 492.673 323.108C495.398 323.108 497.607 324.838 497.607 326.973Z" fill="#293B6D"/>
</g>
<path id="path214" d="M585.317 476.958H582.259V336.233H585.317V476.958Z" fill="#293B6D"/>
<g id="roue-eolienne-3">
<path id="path204_3" d="M590.192 320.573L584.309 291.931L578.426 320.573C578.048 322.411 578.349 324.304 579.286 325.983L584.309 334.98L589.331 325.983C590.269 324.304 590.57 322.411 590.192 320.573Z" fill="white"/>
<path id="path208_2" d="M565.211 337.553L536.474 355.863L571.095 345.531C573.315 344.869 575.259 343.717 576.647 342.243L584.088 334.338L571.625 335.431C569.301 335.635 567.055 336.378 565.211 337.553Z" fill="white"/>
<path id="path212_2" d="M596.482 346.002L631.103 356.333L602.364 338.023C600.522 336.848 598.274 336.106 595.95 335.902L583.489 334.809L590.929 342.713C592.317 344.187 594.26 345.339 596.482 346.002Z" fill="white"/>
<path id="path218_2" d="M588.723 334.981C588.723 337.115 586.514 338.845 583.789 338.845C581.062 338.845 578.853 337.115 578.853 334.981C578.853 332.846 581.062 331.117 583.789 331.117C586.514 331.117 588.723 332.846 588.723 334.981Z" fill="#293B6D"/>
</g>
<path id="path214_2" d="M426.164 452.206H423.64V344.149H426.164V452.206Z" fill="#293B6D"/>
<g id="roue-eolienne-1">
<path id="path204_4" d="M430.187 332.125L425.332 310.132L420.476 332.125C420.164 333.536 420.413 334.99 421.186 336.278L425.332 343.187L429.477 336.278C430.25 334.99 430.499 333.536 430.187 332.125Z" fill="white"/>
<path id="path208_3" d="M409.57 345.162L385.852 359.222L414.426 351.288C416.258 350.78 417.863 349.895 419.008 348.764L425.149 342.694L414.864 343.533C412.945 343.69 411.091 344.26 409.57 345.162Z" fill="white"/>
<path id="path212_3" d="M435.378 351.65L463.952 359.583L440.233 345.523C438.713 344.621 436.858 344.051 434.94 343.895L424.655 343.055L430.796 349.125C431.941 350.257 433.545 351.141 435.378 351.65Z" fill="white"/>
<path id="path218_3" d="M428.975 343.188C428.975 344.827 427.152 346.155 424.903 346.155C422.652 346.155 420.829 344.827 420.829 343.188C420.829 341.549 422.652 340.22 424.903 340.22C427.152 340.22 428.975 341.549 428.975 343.188Z" fill="#293B6D"/>
</g>
<g id="city">
<path id="path70" d="M1121.62 409.517H1072V462.541H1121.62V409.517Z" fill="#EAE0D8"/>
<path id="path72" d="M1110.22 437.859H1083.4V462.54H1110.22V437.859Z" fill="#293B6D"/>
<path id="path76" d="M1121.63 409.518H1072L1096.82 389.873L1121.63 409.518Z" fill="#EAE0D8"/>
<path id="path80" d="M1184.03 389.874V389.873H1096.82L1121.63 409.518V462.537H1159.21L1159.21 462.532V462.54H1208.83V409.519L1208.83 409.518L1184.03 389.874Z" fill="#C0BBBB"/>
<path id="path84" d="M1102.87 407.311L1096.18 402.016L1089.49 407.311H1089.49V416.886H1102.87V407.311Z" fill="#293B6D"/>
<path id="path88" d="M886.748 304.307L864.337 321.161V401.003H886.748H909.157V321.161L886.748 304.307Z" fill="#E9E2E2"/>
<path id="path90" d="M957.865 401.003H909.158V321.161H957.865V401.003Z" fill="#FFE5C0"/>
<path id="path94" d="M935.457 304.308H886.748L909.157 321.161H957.866L935.457 304.308Z" fill="#293B6D"/>
<path id="path96" d="M888.781 329.398H882.125V315.404H888.781V329.398Z" fill="#293B6D"/>
<path id="path98" d="M878.189 347.391H870.42V340.848H878.189V347.391Z" fill="#293B6D"/>
<path id="path100" d="M899.339 347.391H891.57V340.848H899.339V347.391Z" fill="#293B6D"/>
<path id="path110" d="M1164.14 505.183H686.446L779.073 431.838C786.323 426.098 796.157 422.873 806.411 422.873H1044.19C1054.44 422.873 1064.28 426.099 1071.53 431.84L1164.14 505.183Z" fill="#116664"/>
<path id="path114" d="M890.785 410.586C890.743 404.248 884.242 399.119 876.227 399.119C873.843 399.119 871.594 399.576 869.607 400.381C866.315 396.06 860.33 393.169 853.491 393.169C846.372 393.169 840.178 396.302 836.985 400.921C836.642 400.934 836.305 400.966 835.971 401.001C834.061 400.171 831.869 399.699 829.538 399.699C822.435 399.699 816.637 404.074 816.173 409.605C807.065 410.051 799.782 415.836 799.293 423.064H906.447C904.825 416.825 898.646 411.907 890.785 410.586Z" fill="#2B5850"/>
<path id="path118" d="M906.481 381.81V423.064H848.839V381.81L877.66 371.861L906.481 381.81Z" fill="#EAE0D8"/>
<path id="path120" d="M946.943 423.064H906.481V381.81H946.943V423.064Z" fill="#E9E2E2"/>
<path id="path124" d="M877.661 371.861H918.123L946.944 381.809H906.483L877.661 371.861Z" fill="#293B6D"/>
<path id="path126" d="M885.353 423.064H867.618V405.07H885.353V423.064Z" fill="#293B6D"/>
<path id="path128" d="M924.019 396.084H915.346V391.092H924.019V396.084Z" fill="#293B6D"/>
<path id="path130" d="M940.513 396.084H931.841V391.092H940.513V396.084Z" fill="#293B6D"/>
<path id="path132" d="M924.019 407.277H915.346V402.285H924.019V407.277Z" fill="#293B6D"/>
<path id="path134" d="M940.513 407.277H931.841V402.285H940.513V407.277Z" fill="#293B6D"/>
<path id="path136" d="M1001.17 340.349H946.632V423.064H1001.17V340.349Z" fill="#FAF4F4"/>
<path id="path138" d="M1001.17 380.551H946.632V383.897H1001.17V380.551Z" fill="#FFE5C0"/>
<path id="path142" d="M1031.22 340.391V423.062H1001.17V340.391L1016.2 330.291L1031.22 340.391Z" fill="#FFE5C0"/>
<path id="path146" d="M1016.2 330.29L1001.23 340.351H946.632L961.592 330.29H1016.2Z" fill="#293B6D"/>
<path id="path148" d="M1025 423.062H1007.95V405.583H1025V423.062Z" fill="#293B6D"/>
<path id="path150" d="M960.626 362.611H953.849V356.759H960.626V362.611Z" fill="#293B6D"/>
<path id="path152" d="M993.494 362.611H986.716V356.759H993.494V362.611Z" fill="#293B6D"/>
<path id="path154" d="M976.418 362.611H969.64V356.759H976.418V362.611Z" fill="#293B6D"/>
<path id="path156" d="M960.626 373.411H953.849V367.559H960.626V373.411Z" fill="#293B6D"/>
<path id="path158_2" d="M993.494 373.411H986.716V367.559H993.494V373.411Z" fill="#293B6D"/>
<path id="path160" d="M976.418 373.411H969.64V367.559H976.418V373.411Z" fill="#293B6D"/>
<path id="path162" d="M960.626 398.114H953.849V392.261H960.626V398.114Z" fill="#293B6D"/>
<path id="path164" d="M993.494 398.114H986.715V392.261H993.494V398.114Z" fill="#293B6D"/>
<path id="path166" d="M976.418 398.114H969.64V392.261H976.418V398.114Z" fill="#293B6D"/>
<path id="path168" d="M960.626 408.914H953.849V403.061H960.626V408.914Z" fill="#293B6D"/>
<path id="path170" d="M993.494 408.914H986.715V403.061H993.494V408.914Z" fill="#293B6D"/>
<path id="path172" d="M976.418 408.914H969.64V403.061H976.418V408.914Z" fill="#293B6D"/>
<path id="path226" d="M1213.56 439.984H1138.05V502.749H1213.56V439.984Z" fill="#FAF4F4"/>
<path id="path230" d="M1255.16 440.043V502.748H1213.56V440.043L1234.36 426.058L1255.16 440.043Z" fill="#FFE5C0"/>
<path id="path234" d="M1234.36 426.058L1213.65 439.986H1138.05L1158.76 426.058H1234.36Z" fill="#293B6D"/>
<path id="path236" d="M1164 460.169H1150.89V452.607H1164V460.169Z" fill="#293B6D"/>
<path id="path238" d="M1197.52 460.169H1184.41V452.607H1197.52V460.169Z" fill="#293B6D"/>
<path id="path240" d="M740.311 504.905H689.938V417.348H740.311V504.905Z" fill="#E9E2E2"/>
<path id="path242" d="M740.311 504.905H774.635V417.348H740.311V504.905Z" fill="#FAF4F4"/>
<path id="path244" d="M740.311 440.914H689.938V437.824H740.311V440.914Z" fill="#EAE0D8"/>
<path id="path246" d="M740.311 440.914H774.635V437.824H740.311V440.914Z" fill="#E9E2E2"/>
<path id="path248" d="M697.819 423.722H703.919V432.437H697.819V423.722Z" fill="#293B6D"/>
<path id="path250" d="M726.087 423.722H732.187V432.437H726.087V423.722Z" fill="#293B6D"/>
<path id="path252" d="M712.026 423.722H718.126V432.437H712.026V423.722Z" fill="#293B6D"/>
<path id="path254_3" d="M740.311 465.062H689.938V461.973H740.311V465.062Z" fill="#EAE0D8"/>
<path id="path256_2" d="M740.311 465.062H774.635V461.973H740.311V465.062Z" fill="#E9E2E2"/>
<path id="path258_2" d="M697.819 447.873H703.919V456.586H697.819V447.873Z" fill="#293B6D"/>
<path id="path260_2" d="M726.087 447.873H732.187V456.586H726.087V447.873Z" fill="#293B6D"/>
<path id="path262_2" d="M712.026 447.873H718.126V456.586H712.026V447.873Z" fill="#293B6D"/>
<path id="path264" d="M740.311 490.484H689.938V487.394H740.311V490.484Z" fill="#EAE0D8"/>
<path id="path266_3" d="M740.311 490.484H774.635V487.394H740.311V490.484Z" fill="#E9E2E2"/>
<path id="path268" d="M697.819 473.294H703.919V482.008H697.819V473.294Z" fill="#293B6D"/>
<path id="path270" d="M726.087 473.294H732.187V482.008H726.087V473.294Z" fill="#293B6D"/>
<path id="path272" d="M712.026 473.294H718.126V482.008H712.026V473.294Z" fill="#293B6D"/>
<path id="path274_2" d="M812.81 506.484H767.333V427.436H812.81V506.484Z" fill="#EAE0D8"/>
<path id="path276_2" d="M812.81 506.484H843.799V427.436H812.81V506.484Z" fill="#E9E2E2"/>
<path id="path278_2" d="M783.818 439.747H775.789V433.401H783.818V439.747Z" fill="#293B6D"/>
<path id="path280_2" d="M802.225 439.747H794.197V433.401H802.225V439.747Z" fill="#293B6D"/>
<path id="path282" d="M783.818 454.407H775.789V448.061H783.818V454.407Z" fill="#293B6D"/>
<path id="path284" d="M802.225 454.407H794.197V448.061H802.225V454.407Z" fill="#293B6D"/>
<path id="path286" d="M783.818 469.066H775.789V462.721H783.818V469.066Z" fill="#293B6D"/>
<path id="path288_2" d="M802.225 469.066H794.197V462.721H802.225V469.066Z" fill="#293B6D"/>
<path id="path290" d="M783.818 483.727H775.789V477.381H783.818V483.727Z" fill="#293B6D"/>
<path id="path292" d="M802.225 483.727H794.197V477.381H802.225V483.727Z" fill="#293B6D"/>
<path id="path294_2" d="M783.818 498.388H775.789V492.042H783.818V498.388Z" fill="#293B6D"/>
<path id="path296_2" d="M802.225 498.388H794.197V492.042H802.225V498.388Z" fill="#293B6D"/>
<path id="path300" d="M1244.09 501.626H1219.44C1206.56 501.626 1194.2 497.574 1185.09 490.362L1162.96 472.836C1151.8 463.995 1136.65 459.029 1120.87 459.029H953.561C938.447 459.029 926.313 468.906 926.73 480.869L926.789 482.539C927.224 495 914.585 505.29 898.84 505.29H685.448C678.99 505.29 672.8 507.32 668.232 510.936L659.184 518.106C655.452 521.056 650.406 522.712 645.132 522.712H635.055C627.338 522.712 621.083 527.666 621.083 533.777V537.304H928.7V537.305H1278.24V528.666C1278.24 513.733 1262.95 501.626 1244.09 501.626Z" fill="#2B5850"/>
<path id="path316_2" d="M1094.84 512.134H1166.07C1171.02 512.134 1175.77 513.752 1179.27 516.631L1186.68 522.726C1190.16 525.587 1194.88 527.193 1199.8 527.193H1256.07C1261.53 527.193 1266.77 528.977 1270.63 532.152L1277.19 537.546H1087.21L1094.84 512.134Z" fill="#2B5850"/>
<path id="path318_2" d="M1209.96 488.635H1207.26V526.989H1209.96V488.635Z" fill="#293B6D"/>
<path id="path322" d="M1224.66 476.782C1225.25 475.241 1225.52 473.587 1225.41 471.867C1224.98 464.864 1218.09 459.127 1209.58 458.689C1199.73 458.179 1191.54 464.602 1191.54 472.599C1191.54 474.025 1191.8 475.401 1192.29 476.696C1193.55 480.067 1193.26 483.726 1191.22 486.827C1189.57 489.323 1188.71 492.215 1188.88 495.286C1189.35 503.389 1197.25 510.044 1207.1 510.602C1218.57 511.253 1228.12 503.793 1228.12 494.5C1228.12 491.74 1227.27 489.14 1225.79 486.867C1223.77 483.784 1223.38 480.122 1224.66 476.782Z" fill="#2E84AF"/>
<path id="path324" d="M854.553 437.5H827.044V537.546H854.553V437.5Z" fill="#FFE5C0"/>
<path id="path328" d="M827.045 537.545V437.5H795.847V473.283H770.687V537.545H827.045Z" fill="#FAF4F4"/>
<path id="path330" d="M820.075 444.69H802.394V442.443H820.075V444.69Z" fill="#293B6D"/>
<path id="path332" d="M820.075 457.125H802.394V454.877H820.075V457.125Z" fill="#293B6D"/>
<path id="path334" d="M820.075 469.559H802.394V467.312H820.075V469.559Z" fill="#293B6D"/>
<path id="path336" d="M820.074 481.993H777.608V479.746H820.074V481.993Z" fill="#293B6D"/>
<path id="path338" d="M820.074 494.426H777.608V492.18H820.074V494.426Z" fill="#293B6D"/>
<path id="path340" d="M820.074 506.86H777.608V504.614H820.074V506.86Z" fill="#293B6D"/>
<path id="path342" d="M820.074 519.294H777.608V517.047H820.074V519.294Z" fill="#293B6D"/>
<path id="path344" d="M820.074 531.729H777.608V529.482H820.074V531.729Z" fill="#293B6D"/>
<path id="path346" d="M834.534 498.588H831.771V537.836H834.534V498.588Z" fill="#293B6D"/>
<path id="path350" d="M853.876 502.822C853.876 512.234 844.598 519.864 833.153 519.864C821.708 519.864 812.429 512.234 812.429 502.822C812.429 493.41 821.708 485.78 833.153 485.78C844.598 485.78 853.876 493.41 853.876 502.822Z" fill="#23817D"/>
<path id="path352" d="M679.495 478.096H676.649V518.521H679.495V478.096Z" fill="#293B6D"/>
<path id="path356" d="M699.653 496.125L688.856 487.246H695.469C698.853 487.246 700.547 483.883 698.156 481.915L687.223 472.926H692.183C694.927 472.926 696.302 470.196 694.362 468.602L680.25 456.997C679.048 456.007 677.097 456.007 675.894 456.997L661.783 468.602C659.843 470.196 661.218 472.926 663.962 472.926H668.92L657.989 481.915C655.597 483.883 657.292 487.246 660.674 487.246H667.289L656.492 496.125C653.921 498.239 655.741 501.854 659.377 501.854H696.767C700.403 501.854 702.224 498.239 699.653 496.125Z" fill="#23817D"/>
<path id="path358" d="M617.535 492.21H614.672V537.48H617.535V492.21Z" fill="#293B6D"/>
<path id="path362" d="M637.808 510.343L626.95 501.413H633.601C637.003 501.413 638.708 498.029 636.301 496.051L625.308 487.011H630.295C633.055 487.011 634.437 484.266 632.485 482.662L618.294 470.991C617.085 469.996 615.123 469.996 613.914 470.991L599.722 482.662C597.77 484.266 599.153 487.011 601.912 487.011H606.899L595.907 496.051C593.5 498.029 595.205 501.413 598.607 501.413H605.258L594.4 510.343C591.814 512.468 593.646 516.104 597.302 516.104H634.906C638.562 516.104 640.394 512.468 637.808 510.343Z" fill="#23817D"/>
<path id="path456" d="M907.415 411.975H859.58V537.546H907.415V411.975Z" fill="#FAF4F4"/>
<path id="path460" d="M930.592 426.58L907.416 411.975V537.546H930.592V426.58Z" fill="#FFE5C0"/>
<path id="path462" d="M892.571 428.628H868.124V424.57H892.571V428.628Z" fill="#293B6D"/>
<path id="path464" d="M892.571 439.062H868.124V435.004H892.571V439.062Z" fill="#293B6D"/>
<path id="path466" d="M892.571 449.497H868.124V445.439H892.571V449.497Z" fill="#293B6D"/>
<path id="path468" d="M892.571 459.889H868.124V455.83H892.571V459.889Z" fill="#293B6D"/>
<path id="path470" d="M892.571 470.323H868.124V466.264H892.571V470.323Z" fill="#293B6D"/>
<path id="path472" d="M892.571 480.758H868.124V476.699H892.571V480.758Z" fill="#293B6D"/>
<path id="path474" d="M892.571 491.193H868.124V487.134H892.571V491.193Z" fill="#293B6D"/>
<path id="path476" d="M892.571 501.512H868.124V497.453H892.571V501.512Z" fill="#293B6D"/>
<path id="path478" d="M892.571 511.947H868.124V507.888H892.571V511.947Z" fill="#293B6D"/>
<path id="path480" d="M892.571 522.381H868.124V518.322H892.571V522.381Z" fill="#293B6D"/>
<path id="path484" d="M935.439 524.837C935.399 518.38 929.023 513.156 921.162 513.156C918.822 513.156 916.617 513.621 914.669 514.441C911.44 510.039 905.57 507.096 898.863 507.096C891.88 507.096 885.804 510.286 882.673 514.991C882.338 515.006 882.007 515.037 881.68 515.072C879.806 514.229 877.655 513.747 875.369 513.747C868.403 513.747 862.717 518.203 862.262 523.836C853.327 524.292 846.186 530.183 845.706 537.545H950.801C949.21 531.193 943.15 526.181 935.439 524.837Z" fill="#224041"/>
<path id="path488" d="M1004.31 373.591V375.384H978.893V373.591C978.893 367.491 972.881 362.548 965.466 362.548H990.891C998.3 362.548 1004.31 367.491 1004.31 373.591Z" fill="#FAF4F4"/>
<path id="path490" d="M987.934 387.08H943.18V438.216H987.934V387.08Z" fill="#E9E2E2"/>
<path id="path492" d="M987.934 387.08H1007.46V438.216H987.934V387.08Z" fill="#FAF4F4"/>
<path id="path494" d="M987.932 438.218H943.182V387.083H987.932V438.218Z" fill="#E9E2E2"/>
<path id="path498" d="M987.934 425.953H943.179V438.216H987.934H1007.46V425.953H987.934Z" fill="#E9E2E2"/>
<path id="path500" d="M987.932 438.218H943.182V425.952H987.932V438.218Z" fill="#293B6D"/>
<path id="path502" d="M990.805 429.901H935.865V537.545H990.805V429.901Z" fill="#E9E2E2"/>
<path id="path504" d="M990.805 429.901H1014.77V537.545H990.805V429.901Z" fill="#FAF4F4"/>
<path id="path506" d="M957.299 449.061H948.647V443.034H957.299V449.061Z" fill="#293B6D"/>
<path id="path508" d="M979.344 449.061H970.692V443.034H979.344V449.061Z" fill="#293B6D"/>
<path id="path510" d="M957.299 467.943H948.647V461.916H957.299V467.943Z" fill="#293B6D"/>
<path id="path512" d="M979.344 467.943H970.692V461.916H979.344V467.943Z" fill="#293B6D"/>
<path id="path514" d="M957.299 486.827H948.647V480.8H957.299V486.827Z" fill="#293B6D"/>
<path id="path516" d="M979.344 486.827H970.692V480.8H979.344V486.827Z" fill="#293B6D"/>
<path id="path518" d="M957.299 505.709H948.647V499.681H957.299V505.709Z" fill="#293B6D"/>
<path id="path520" d="M979.344 505.709H970.692V499.681H979.344V505.709Z" fill="#293B6D"/>
<path id="path522" d="M957.299 524.592H948.647V518.565H957.299V524.592Z" fill="#293B6D"/>
<path id="path524" d="M979.344 524.592H970.692V518.565H979.344V524.592Z" fill="#293B6D"/>
<path id="path526" d="M957.299 401.666H948.647V395.639H957.299V401.666Z" fill="#293B6D"/>
<path id="path528" d="M979.344 401.666H970.692V395.639H979.344V401.666Z" fill="#293B6D"/>
<path id="path530" d="M957.299 420.548H948.647V414.521H957.299V420.548Z" fill="#293B6D"/>
<path id="path532" d="M979.344 420.548H970.692V414.521H979.344V420.548Z" fill="#293B6D"/>
<path id="path536" d="M978.89 375.382V373.589C978.89 367.494 972.882 362.551 965.47 362.551C958.055 362.551 952.046 367.494 952.046 373.589V375.382H945.164V387.081H985.774V375.382H978.89Z" fill="#293B6D"/>
<path id="path538" d="M1004.4 375.381H985.734V387.08H1004.4V375.381Z" fill="#FAF4F4"/>
<path id="path542" d="M1077.14 487.702V467.448L1048.22 443.666L1019.31 467.448V537.544H1061.25V537.545H1103.04V487.702H1077.14Z" fill="#FDF4F4"/>
<path id="path544" d="M965.08 467.447H1019.31V537.546H965.08V467.447Z" fill="#EAE0D8"/>
<path id="path548" d="M993.997 443.666L965.079 467.447H1019.31L1048.22 443.666H993.997Z" fill="#293B6D"/>
<path id="path550" d="M974.461 476.716H979.603V480.944H974.461V476.716Z" fill="#293B6D"/>
<path id="path552" d="M988.799 476.716H993.941V480.944H988.799V476.716Z" fill="#293B6D"/>
<path id="path554" d="M1003.14 476.716H1008.28V480.944H1003.14V476.716Z" fill="#293B6D"/>
<path id="path556" d="M974.461 488.723H979.603V492.952H974.461V488.723Z" fill="#293B6D"/>
<path id="path558" d="M988.799 488.723H993.941V492.952H988.799V488.723Z" fill="#293B6D"/>
<path id="path560" d="M1003.14 488.723H1008.28V492.952H1003.14V488.723Z" fill="#293B6D"/>
<path id="path562" d="M974.461 500.731H979.603V504.959H974.461V500.731Z" fill="#293B6D"/>
<path id="path564" d="M988.799 500.731H993.941V504.959H988.799V500.731Z" fill="#293B6D"/>
<path id="path566" d="M1003.14 500.731H1008.28V504.959H1003.14V500.731Z" fill="#293B6D"/>
<path id="path568" d="M974.461 512.739H979.603V516.967H974.461V512.739Z" fill="#293B6D"/>
<path id="path570" d="M988.799 512.739H993.941V516.967H988.799V512.739Z" fill="#293B6D"/>
<path id="path572" d="M1003.14 512.739H1008.28V516.967H1003.14V512.739Z" fill="#293B6D"/>
<path id="path574" d="M974.461 524.747H979.603V528.975H974.461V524.747Z" fill="#293B6D"/>
<path id="path576" d="M988.799 524.747H993.941V528.975H988.799V524.747Z" fill="#293B6D"/>
<path id="path578" d="M1003.14 524.747H1008.28V528.975H1003.14V524.747Z" fill="#293B6D"/>
<path id="path580" d="M1057.9 500.251H1055.23V538.163H1057.9V500.251Z" fill="#293B6D"/>
<path id="path584" d="M1076.58 504.342C1076.58 513.434 1067.62 520.804 1056.56 520.804C1045.51 520.804 1036.55 513.434 1036.55 504.342C1036.55 495.249 1045.51 487.879 1056.56 487.879C1067.62 487.879 1076.58 495.249 1076.58 504.342Z" fill="#203D3E"/>
<path id="path588" d="M768.341 537.544H624.224L644.061 523.462C649.324 519.725 656.048 517.669 662.997 517.669H684.393C688.772 517.669 692.969 519.103 696.069 521.645L700.033 524.913C703.046 527.383 707.126 528.777 711.38 528.777H749.513C754.746 528.777 759.764 530.483 763.457 533.528L768.341 537.544Z" fill="#116268"/>
<path id="path214_3" d="M494.2 468.951H491.142V328.225H494.2V468.951Z" fill="#293B6D"/>
<path id="path88_2" d="M1189.09 441.173L1171.55 455.302V522.235H1189.09H1206.64V455.302L1189.09 441.173Z" fill="#FDF9F1"/>
<path id="path90_2" d="M1244.76 522.235H1206.64V455.302H1244.76V522.235Z" fill="#EAE0D8"/>
<path id="path94_2" d="M1227.22 441.173H1189.09L1206.63 455.302H1244.76L1227.22 441.173Z" fill="#293B6D"/>
<path id="path96_2" d="M1190.68 462.207H1185.47V450.476H1190.68V462.207Z" fill="#293B6D"/>
<path id="path98_2" d="M1182.39 477.291H1176.31V471.806H1182.39V477.291Z" fill="#293B6D"/>
<path id="path100_2" d="M1198.95 477.291H1192.87V471.806H1198.95V477.291Z" fill="#293B6D"/>
<path id="path100_3" d="M1217.29 465.272H1211.21V459.788H1217.29V465.272Z" fill="#293B6D"/>
<path id="path100_4" d="M1231.05 465.272H1224.96V459.788H1231.05V465.272Z" fill="#293B6D"/>
<path id="path100_5" d="M1231.05 477.904H1224.96V472.419H1231.05V477.904Z" fill="#293B6D"/>
<path id="path100_6" d="M1218.91 478.568H1212.83V473.084H1218.91V478.568Z" fill="#293B6D"/>
<path id="path118_2" d="M1204.54 506.145V540.729H1159.42V506.145L1181.98 497.804L1204.54 506.145Z" fill="#EAE0D8"/>
<path id="path120_2" d="M1236.21 540.729H1204.54V506.144H1236.21V540.729Z" fill="#FDF9F1"/>
<path id="path124_2" d="M1181.98 497.804H1213.65L1236.22 506.144H1204.54L1181.98 497.804Z" fill="#293B6D"/>
<path id="path126_2" d="M1188 540.729H1174.12V525.644H1188V540.729Z" fill="#293B6D"/>
<path id="path128_2" d="M1218.27 518.111H1211.48V513.926H1218.27V518.111Z" fill="#293B6D"/>
<path id="path130_2" d="M1231.18 518.111H1224.39V513.926H1231.18V518.111Z" fill="#293B6D"/>
<path id="path132_2" d="M1218.27 527.495H1211.48V523.31H1218.27V527.495Z" fill="#293B6D"/>
<path id="path134_2" d="M1231.18 527.495H1224.39V523.31H1231.18V527.495Z" fill="#293B6D"/>
<path id="path136_2" d="M1279.36 471.749H1235.66V540.91H1279.36V471.749Z" fill="#F7F2EA"/>
<path id="path162_2" d="M1246.93 519.812H1241.62V514.906H1246.93V519.812Z" fill="#293B6D"/>
<path id="path162_3" d="M1247.26 498.599H1241.96V493.693H1247.26V498.599Z" fill="#293B6D"/>
<path id="path162_4" d="M1247.26 479.319H1241.96V474.413H1247.26V479.319Z" fill="#293B6D"/>
<path id="path164_2" d="M1272.65 519.812H1267.35V514.906H1272.65V519.812Z" fill="#293B6D"/>
<path id="path164_3" d="M1272.99 498.599H1267.69V493.693H1272.99V498.599Z" fill="#293B6D"/>
<path id="path164_4" d="M1272.99 479.319H1267.69V474.413H1272.99V479.319Z" fill="#293B6D"/>
<path id="path166_2" d="M1259.29 519.812H1253.98V514.906H1259.29V519.812Z" fill="#293B6D"/>
<path id="path166_3" d="M1259.63 498.599H1254.32V493.693H1259.63V498.599Z" fill="#293B6D"/>
<path id="path166_4" d="M1259.63 479.319H1254.32V474.413H1259.63V479.319Z" fill="#293B6D"/>
<path id="path168_2" d="M1246.93 528.866H1241.62V523.96H1246.93V528.866Z" fill="#293B6D"/>
<path id="path168_3" d="M1247.26 507.653H1241.96V502.747H1247.26V507.653Z" fill="#293B6D"/>
<path id="path168_4" d="M1247.26 488.373H1241.96V483.467H1247.26V488.373Z" fill="#293B6D"/>
<path id="path170_2" d="M1272.65 528.866H1267.35V523.96H1272.65V528.866Z" fill="#293B6D"/>
<path id="path170_3" d="M1272.99 507.653H1267.69V502.747H1272.99V507.653Z" fill="#293B6D"/>
<path id="path170_4" d="M1272.99 488.373H1267.69V483.467H1272.99V488.373Z" fill="#293B6D"/>
<path id="path172_2" d="M1259.29 528.866H1253.98V523.96H1259.29V528.866Z" fill="#293B6D"/>
<path id="path172_3" d="M1259.63 507.653H1254.32V502.747H1259.63V507.653Z" fill="#293B6D"/>
<path id="path172_4" d="M1259.63 488.373H1254.32V483.467H1259.63V488.373Z" fill="#293B6D"/>
</g>
<path id="Rectangle 54" d="M990.909 458H1020.96L1021.72 463.739L1022.49 470H987.485L990.909 458Z" fill="#293B6D"/>
<path id="path604" d="M1229.23 200.96C1233.97 200.96 1235.95 195.325 1232.14 192.697C1227.14 189.255 1220.96 187.219 1214.27 187.219C1213.91 187.219 1213.55 187.224 1213.19 187.236C1205.67 187.487 1198.55 184.471 1193.25 179.495C1190.04 176.468 1186.08 174.123 1181.66 172.709C1177.16 171.268 1173.45 168.228 1171.13 164.359C1165.98 155.791 1156.14 150 1144.85 150C1132.24 150 1121.44 157.236 1116.97 167.5C1115.41 171.072 1111.79 173.483 1107.65 173.477H1107.38C1097.14 173.477 1088.1 178.24 1082.66 185.52C1079.76 189.407 1075.08 191.807 1070 191.8H1069.91C1069.47 191.8 1069.03 191.809 1068.59 191.826C1062.27 192.08 1062.58 200.96 1068.91 200.96H1229.23Z" fill="white"/>
<path id="path604_2" d="M325.234 145.96C329.972 145.96 331.952 140.325 328.14 137.697C323.143 134.255 316.963 132.219 310.273 132.219C309.909 132.219 309.549 132.224 309.188 132.236C301.674 132.487 294.549 129.471 289.255 124.495C286.036 121.468 282.082 119.123 277.665 117.709C273.164 116.268 269.451 113.228 267.125 109.359C261.976 100.791 252.142 94.9999 240.854 94.9999C228.238 94.9999 217.44 102.236 212.966 112.5C211.41 116.072 207.786 118.483 203.65 118.477H203.382C193.145 118.477 184.101 123.24 178.664 130.52C175.761 134.407 171.081 136.807 165.999 136.8H165.909C165.468 136.8 165.029 136.809 164.593 136.826C158.265 137.08 158.575 145.96 164.909 145.96H325.234Z" fill="white"/>
<g id="oiseaux">
<path id="path554_2" d="M1083.38 88.0235C1083.38 88.0235 1075.19 85.0386 1071.16 87.9321C1071.16 87.9321 1078.85 87.0905 1083.31 91.6212C1087.94 87.1585 1095.59 88.1149 1095.59 88.1149C1091.67 85.1618 1083.38 88.0235 1083.38 88.0235Z" fill="black"/>
<path id="path554_3" d="M739.908 322.831C739.908 322.831 726.453 314.311 719.712 322.68C719.712 322.68 732.443 320.186 739.706 333.192C747.473 320.298 760.104 322.982 760.104 322.982C753.692 314.514 739.908 322.831 739.908 322.831Z" fill="black"/>
<path id="path554_4" d="M563.349 236.161C563.349 236.161 546.78 227.618 538.536 235.976C538.536 235.976 554.165 233.504 563.147 246.522C572.631 233.641 588.162 236.346 588.162 236.346C580.246 227.868 563.349 236.161 563.349 236.161Z" fill="black"/>
</g>
<path id="path498_2" d="M1127.1 555H704.743C712.419 555 718.642 560.452 718.642 567.173C718.642 573.878 712.455 579.317 704.813 579.349H687.61C681.198 579.349 676 583.902 676 589.516C676 595.136 681.198 599.689 687.61 599.689L857.57 599.725C862.571 599.725 866.625 603.278 866.625 607.658C866.625 612.042 862.571 615.593 857.57 615.593H841.383H812C807.773 615.593 804.348 618.594 804.348 622.295C804.348 625.997 807.773 629 812 629L963.953 628.862C968.186 628.862 971.616 625.856 971.616 622.148C971.616 618.933 969.034 616.251 965.589 615.593H1040.42H1075.2C1080.2 615.593 1084.26 612.042 1084.26 607.658C1084.26 603.278 1080.2 599.725 1075.2 599.725H1040.42L1028.96 599.689C1022.55 599.689 1017.35 595.136 1017.35 589.516C1017.35 583.922 1022.52 579.384 1028.89 579.352H1127.1C1134.78 579.352 1141 573.899 1141 567.173C1141 560.452 1134.78 555 1127.1 555" fill="#42B6B9" fill-opacity="0.5"/>
<path id="path516_2" d="M934.306 606H876.001C871.6 606 868.033 602.527 868.033 598.242C868.033 593.992 864.52 590.548 860.166 590.492H854.653C823.243 590.492 791.9 590.492 760.239 590.492C756.795 590.492 754 587.775 754 584.421C754 581.066 756.795 578.347 760.239 578.347H773.488C779.038 578.347 781.52 574.555 781.52 571.758C781.52 567.473 785.085 564 789.488 564C827.595 564 937.054 564 974.617 564C978.695 564 982 567.218 982 571.189C982 575.161 978.695 578.38 974.617 578.38C951.04 578.38 890.776 578.41 890.776 578.41C887.352 578.41 884.577 581.111 884.577 584.446C884.577 587.782 887.352 590.484 890.776 590.484H932.444H934.306C938.709 590.484 942.274 593.957 942.274 598.242C942.274 602.527 938.709 606 934.306 606" fill="#86D6D3"/>
<g id="bateau">
<path id="path500_2" d="M589.185 569.259C587.375 569.143 585.94 567.655 585.94 565.815C585.94 563.901 584.388 562.349 582.473 562.349H573.407C573.096 562.349 572.799 562.404 572.511 562.48H567.096H511.533H498.487C496.609 562.48 495.088 564 495.088 565.876C495.088 567.755 496.609 569.276 498.487 569.276H511.533H533.913C535.169 569.588 536.107 570.716 536.107 572.071C536.107 573.667 537.401 574.96 538.995 574.96H543.062C542.932 574.977 542.799 575 542.664 575H553.688H586.104H597.128C598.713 575 600 573.715 600 572.129C600 570.543 598.713 569.259 597.128 569.259H593.272H589.185Z" fill="#308A8A"/>
<path id="path502_2" d="M553.503 547.565C553.503 548.246 554.058 548.8 554.738 548.8C555.419 548.8 555.974 548.246 555.974 547.565V497.485C555.974 496.805 555.419 496.25 554.738 496.25C554.058 496.25 553.503 496.805 553.503 497.485V547.565" fill="#3F7EC0"/>
<path id="path504_2" d="M592.273 541.042L555.683 477.566L519.088 541.042H592.273Z" fill="#FDFEFC"/>
<path id="path506_2" d="M558.185 546.348H595.479C596.255 546.348 596.683 547.261 596.161 547.837C586.812 558.228 573.263 564.761 558.185 564.761H533.73C527.402 564.761 522.274 559.633 522.274 553.308V548.321C522.274 547.232 523.156 546.348 524.248 546.348H558.185Z" fill="#D3A520"/>
<path id="path508_2" d="M519.088 541.042L555.683 477.566V541.042H519.088Z" fill="#DFDFDD"/>
<path id="path510_2" d="M548.052 473.457L543.945 469.352V469.349H555.683V477.565H543.945V477.564L548.052 473.457" fill="#E93736"/>
<path id="path512_2" d="M588.763 554.593C580.237 560.98 569.653 564.761 558.185 564.761H533.729C527.839 564.761 522.989 560.316 522.349 554.593H588.763Z" fill="#D3A520"/>
</g>
<g id="mongolfiere" opacity="0.8">
<g id="flammes">
<path id="path478_2" d="M961.694 213.535C962.953 211.359 961.097 208.951 959.333 207.158L957.987 205.793L956.627 207.165C954.861 208.946 953.009 211.33 954.248 213.508C954.98 214.806 956.366 215.681 957.961 215.691C959.557 215.698 960.951 214.829 961.694 213.535" fill="#F47216"/>
<path id="path480_2" d="M960.04 214.445C960.767 213.183 959.697 211.798 958.675 210.756L957.894 209.967L957.106 210.759C956.09 211.785 955.017 213.167 955.734 214.429C956.159 215.179 956.961 215.69 957.882 215.691C958.799 215.691 959.612 215.197 960.04 214.445" fill="white"/>
</g>
<path id="path482" d="M963.017 217.458C962.646 216.269 961.548 215.399 960.24 215.394L955.829 215.379C954.514 215.371 953.419 216.233 953.034 217.416L944.209 217.381L944.2 219.519L971.832 219.627L971.841 217.492L963.017 217.458Z" fill="#CD864C"/>
<path id="path484_2" d="M945.795 225.5L936.921 197.683L938.351 197.192L947.226 225.013L945.795 225.5" fill="#CD864C"/>
<path id="path486" d="M970.429 225.594L979.522 197.846L978.091 197.348L968.996 225.1L970.429 225.594" fill="#CD864C"/>
<path id="path488_2" d="M931.371 156.52C931.442 137.926 939.893 121.338 953.109 110.333C930.601 113.005 913.09 132.178 913 155.525C912.952 168.814 918.719 180.381 927.546 189.19C927.546 189.19 940.428 203.94 950.045 203.977L954.127 203.991C940.208 192.902 931.295 175.754 931.371 156.52Z" fill="#EC1C24"/>
<path id="path490_2" d="M963.134 110.236C976.901 121.338 985.696 138.39 985.624 157.493C985.547 176.284 976.921 193.028 963.459 204.028L966.36 204.044C975.001 204.077 989.192 189.433 989.192 189.433C998.246 181.112 1003.95 169.176 1004 155.881C1004.09 132.154 986.162 112.579 963.134 110.236" fill="#EC1C24"/>
<path id="path492_2" d="M952.146 110.33C936.649 121.326 926.748 137.905 926.672 156.501C926.6 175.732 937.061 192.89 953.402 203.99L964.351 204.036C980.134 193.039 990.247 176.303 990.317 157.508C990.393 138.406 980.066 121.349 963.905 110.242C962.193 110.092 960.443 110.008 958.679 110C956.467 109.991 954.291 110.111 952.146 110.33" fill="#FAB712"/>
<path id="path494_2" d="M955.893 110.342C949.25 121.373 944.989 137.977 944.919 156.571C944.841 175.806 949.269 192.939 956.215 204.002L960.887 204.02C967.652 192.99 972.004 176.234 972.073 157.439C972.152 138.335 967.781 121.302 960.91 110.233C960.175 110.082 959.433 110.003 958.679 110C957.738 109.998 956.805 110.123 955.893 110.342Z" fill="#EC1C24"/>
<path id="path496" d="M971.011 240.458C970.998 242.419 969.406 244.008 967.45 244L948.728 243.925C946.773 243.915 945.194 242.316 945.202 240.353L945.263 224.707C945.263 224.312 945.58 223.997 945.975 223.996L970.363 224.096C970.753 224.095 971.072 224.417 971.07 224.81L971.011 240.458" fill="#975526"/>
</g>
<path id="soleil" d="M655 30C655 79.7066 615.825 120 567.498 120C519.175 120 480 79.7066 480 30C480 -19.7029 519.175 -60 567.498 -60C615.825 -60 655 -19.7029 655 30Z" fill="#FFB531"/>
<g id="nuage-1">
<path id="path604_3" d="M538.996 100.312C544.302 100.312 546.518 93.642 542.251 90.5326C536.656 86.4585 529.737 84.0488 522.247 84.0488C521.839 84.0488 521.436 84.055 521.032 84.0695C512.619 84.3656 504.641 80.7966 498.714 74.907C495.111 71.3256 490.684 68.5495 485.738 66.8768C480.699 65.171 476.541 61.5731 473.938 56.9939C468.173 46.8542 457.163 39.9999 444.525 39.9999C430.399 39.9999 418.31 48.5642 413.301 60.7119C411.559 64.9392 407.502 67.7918 402.871 67.7856H402.57C391.109 67.7856 380.984 73.4227 374.897 82.0387C371.646 86.6386 366.406 89.4789 360.716 89.4706H360.616C360.122 89.4706 359.63 89.4809 359.143 89.5016C352.058 89.8018 352.405 100.312 359.496 100.312H538.996Z" fill="white"/>
</g>
<g id="nuage-2">
<path id="path604_4" d="M780.996 75.312C786.302 75.312 788.518 68.642 784.251 65.5326C778.656 61.4585 771.737 59.0488 764.246 59.0488C763.839 59.0488 763.435 59.055 763.032 59.0695C754.619 59.3656 746.641 55.7966 740.714 49.907C737.111 46.3256 732.684 43.5495 727.738 41.8768C722.699 40.171 718.541 36.5731 715.938 31.9939C710.173 21.8542 699.163 14.9999 686.525 14.9999C672.399 14.9999 660.31 23.5642 655.301 35.7119C653.559 39.9392 649.502 42.7918 644.871 42.7856H644.57C633.109 42.7856 622.984 48.4227 616.897 57.0387C613.646 61.6386 608.406 64.4789 602.716 64.4706H602.616C602.122 64.4706 601.63 64.4809 601.143 64.5016C594.058 64.8018 594.405 75.312 601.496 75.312H780.996Z" fill="white"/>
</g>
</g>
</g>
<defs>
<clipPath id="clip0_0:1">
<rect width="1280" height="720" fill="white"/>
</clipPath>
</defs>
</svg>
