<svg xmlns="http://www.w3.org/2000/svg" version="1.1" xmlns:xlink="http://www.w3.org/1999/xlink" xmlns:svgjs="http://svgjs.com/svgjs" width="1440" height="560" preserveAspectRatio="none" viewBox="0 0 1440 560"><g mask="url(&quot;#SvgjsMask2405&quot;)" fill="none"><rect width="1440" height="560" x="0" y="0" fill="url(#SvgjsLinearGradient2406)"></rect><path d="M1440 0L1378.73 0L1440 20.41z" fill="rgba(255, 255, 255, .1)"></path><path d="M1378.73 0L1440 20.41L1440 154.32999999999998L1094.58 0z" fill="rgba(255, 255, 255, .075)"></path><path d="M1094.58 0L1440 154.32999999999998L1440 368.28L1012.03 0z" fill="rgba(255, 255, 255, .05)"></path><path d="M1012.03 0L1440 368.28L1440 420.28L979.31 0z" fill="rgba(255, 255, 255, .025)"></path><path d="M0 560L111.12 560L0 300.8z" fill="rgba(0, 0, 0, .1)"></path><path d="M0 300.8L111.12 560L251.8 560L0 183.19z" fill="rgba(0, 0, 0, .075)"></path><path d="M0 183.19L251.8 560L732.76 560L0 95.5z" fill="rgba(0, 0, 0, .05)"></path><path d="M0 95.5L732.76 560L1011.63 560L0 42.25z" fill="rgba(0, 0, 0, .025)"></path></g><defs><mask id="SvgjsMask2405"><rect width="1440" height="560" fill="#ffffff"></rect></mask><linearGradient x1="84.72%" y1="139.29%" x2="15.28%" y2="-39.29%" gradientUnits="userSpaceOnUse" id="SvgjsLinearGradient2406"><stop stop-color="rgba(10, 8, 43, 1)" offset="0.03"></stop><stop stop-color="rgba(64, 11, 84, 1)" offset="0.71"></stop></linearGradient></defs></svg>