<svg width="414" height="736" viewBox="0 0 414 736" fill="none" xmlns="http://www.w3.org/2000/svg">
<g clip-path="url(#clip0_169:5589)">
<rect width="414" height="736" fill="white"/>
<path d="M0.198242 574.146H418V-5.96046e-06H0.198242V574.146Z" fill="#DCFDFF"/>
<path d="M0 736V514H414V736H0Z" fill="#52DEFF"/>
<path d="M404.68 47.7656H0V19.4801C69.2455 24.1957 404.68 47.7656 404.68 47.7656" fill="#E8FDFE"/>
<path d="M373.338 94.5347H0V65.9331L373.338 94.5347Z" fill="#E8FDFE"/>
<path d="M0 153.726V113.885L361.31 125.338L0 153.726Z" fill="#E8FDFE"/>
<path d="M418 155.455H68.0605L418 136.8V155.455Z" fill="#E8FDFE"/>
<path d="M418 208.309L403.641 206.468C405.569 204.569 406.284 200.277 405.448 196.55C405.034 194.709 404.202 194.1 403.282 194.1C401.484 194.1 399.35 196.423 399.35 196.423C399.35 196.423 399.442 196.41 399.588 196.41C400.394 196.41 402.907 196.768 402.055 201.36C401.722 203.173 401.158 203.777 400.558 203.777C399.357 203.778 398 201.36 398 201.36C398 201.36 393.092 192.585 388.257 192.585C388.179 192.585 388.1 192.587 388.022 192.592C383.112 192.888 383.294 196.116 383.294 196.116C383.294 196.116 380.723 190.029 376.224 189.446C376.051 189.424 375.888 189.413 375.732 189.413C371.823 189.413 372.981 196.116 372.981 196.116C372.981 196.116 371.513 191.389 365.947 189.446C365.186 189.182 364.544 189.067 363.999 189.067C360.54 189.067 361.02 193.655 361.02 193.655C360.544 193.229 360.054 193.031 359.581 193.031C358.051 193.031 356.651 195.075 356.113 198.126C355.499 196.868 354.648 195.789 353.542 195.789C353.203 195.789 352.84 195.89 352.455 196.116C351.075 196.925 350.615 198.306 350.56 199.666L349.852 199.576C349.346 198.943 348.664 198.494 347.754 198.494C347.411 198.494 347.033 198.557 346.622 198.699C346.325 198.801 346.06 198.922 345.829 199.059L342.292 198.606C341.855 198.209 341.45 198.03 341.078 198.03C340.785 198.03 340.511 198.142 340.266 198.347L159.225 175.145L418 186.824V208.309Z" fill="#E8FDFE"/>
<path d="M410.581 250.913L216.754 226.215C212.959 223.557 209.058 221.075 205.042 218.804H417.478V241.687L410.581 250.913Z" fill="#E8FDFE"/>
<path d="M0.607422 598.744V315.975L0.608694 420.626C0.607422 420.626 0.607422 420.626 0.607422 420.626V434.79V598.744ZM264.345 355.513L145.569 255.752L76.9065 331.251L55.6301 303.108L52.1773 246.309C75.9422 223.834 105.239 207.18 140.763 204.302C143.92 204.046 147.025 203.922 150.068 203.922C170.725 203.922 188.827 209.639 205.042 218.804H158.592L216.754 226.215C236.202 239.84 252.867 258.112 268.113 276.385C290.493 303.208 309.812 330.032 330.357 342.154L326.334 345.147C322.856 347.735 319.27 349.017 315.692 349.017C310.259 349.017 304.848 346.058 299.876 340.219L281.429 318.553L264.345 355.513V355.513ZM51.3968 297.508L50.9811 296.958L52.7044 293.582L51.3968 297.508ZM48.6825 293.918L33.4919 273.824L16.4983 293.878L14.858 291.9C25.1325 276.097 37.2063 260.648 51.2306 247.211L48.6825 293.918" fill="#E7FEFF"/>
<path d="M216.754 226.215L158.592 218.805H205.042C209.058 221.075 212.96 223.557 216.754 226.215" fill="#EFFEFE"/>
<path d="M373.463 218.8C372.284 218.8 371.072 218.386 369.785 217.41C364.517 213.409 363.165 209.882 357.78 209.882C357.259 209.882 356.699 209.915 356.096 209.984C351.506 210.507 348.082 212.401 345.062 212.401C343.58 212.401 342.196 211.944 340.818 210.646C337.579 207.591 337.876 199.932 339.863 198.285L341.886 198.543C341.919 198.573 341.951 198.604 341.984 198.635C342.863 199.496 343.45 200.327 343.831 201.092C344.049 200.281 344.518 199.519 345.417 198.994L349.434 199.508C349.75 199.9 349.995 200.364 350.19 200.834C350.144 200.436 350.125 200.018 350.141 199.598L403.14 206.372C402.502 206.997 401.736 207.362 400.847 207.362C400.498 207.362 400.13 207.305 399.746 207.186C399.234 207.028 397.879 206.611 395.954 206.611C393.517 206.611 390.168 207.279 386.461 209.984C381.307 213.749 377.581 218.8 373.463 218.8" fill="#E6FEFF"/>
<path d="M403.14 206.373L350.141 199.599C350.196 198.244 350.655 196.869 352.033 196.063C352.418 195.838 352.78 195.738 353.118 195.738C354.223 195.738 355.073 196.812 355.685 198.065C356.223 195.027 357.62 192.991 359.148 192.991C359.621 192.991 360.109 193.188 360.585 193.612C360.585 193.612 360.106 189.043 363.559 189.043C364.103 189.043 364.745 189.158 365.504 189.421C371.062 191.355 372.528 196.063 372.528 196.063C372.528 196.063 371.371 189.388 375.274 189.388C375.43 189.388 375.593 189.399 375.766 189.421C380.258 190.001 382.825 196.063 382.825 196.063C382.825 196.063 382.643 192.849 387.546 192.554C387.624 192.549 387.702 192.546 387.78 192.546C392.608 192.546 397.508 201.286 397.508 201.286C397.508 201.286 398.863 203.693 400.062 203.693C400.661 203.693 401.225 203.091 401.557 201.286C402.407 196.712 399.899 196.356 399.094 196.356C398.947 196.356 398.856 196.369 398.856 196.369C398.856 196.369 400.987 194.055 402.782 194.055C403.7 194.055 404.531 194.662 404.945 196.496C405.779 200.207 405.065 204.481 403.14 206.373V206.373ZM349.434 199.509L345.417 198.994C345.648 198.858 345.912 198.737 346.209 198.636C346.619 198.494 346.997 198.431 347.339 198.431C348.248 198.431 348.929 198.878 349.434 199.509ZM341.886 198.543L339.863 198.285C340.107 198.081 340.381 197.969 340.674 197.969C341.045 197.969 341.449 198.148 341.886 198.543Z" fill="#EFFEFE"/>
<path d="M96.4094 514.646L86.2063 515.326L81.2741 515.657L63.1321 516.874L54.5024 517.459L57.9002 470.564L66.5657 442.183L73.2667 420.232L66.8751 436.14L58.9687 455.824L65.5623 364.798C67.6212 359.838 69.9341 354.286 72.0321 349.253C75.4787 340.983 78.339 334.119 78.5279 333.669L72.296 345.351L66.1324 356.916L72.8758 263.82L77.8601 255.021L73.156 259.957L78.1924 190.416L80.7203 155.543L83.3591 215.945V215.961L87.1412 302.492L84.9553 301.418L82.7629 300.336L84.9944 303.03L87.2846 305.786L90.6237 382.207L86.4897 377.12L80.4174 369.657L86.5809 383.085L91.0896 392.91L96.4094 514.646" fill="#6B8744"/>
<path d="M87.1411 302.492L84.9552 301.418C83.082 222.888 80.7202 155.543 80.7202 155.543L83.3589 215.945V215.961L87.1411 302.492" fill="#BAD188"/>
<path d="M241.995 184.76C245.885 187.144 286.455 236.968 286.455 236.968L306.454 233.101L355.886 192.92L382.835 211.133L400.613 211.157L417.838 220.848L417.877 351.101L89.3615 350.654L89.3459 298.694L183.387 192.686L218.105 179.101C218.105 179.101 238.106 182.374 241.995 184.76Z" fill="#C6EDEB"/>
<path d="M169.895 123.005L175.055 134.623L200.792 198.939L226.88 224.271L263.26 282.277L263.278 342.084L89.3633 341.847L109.303 202.496L137.78 151.162L142.216 137.897L149.987 138.737L161.454 122.993L169.895 123.005Z" fill="#5DEAE1"/>
<path opacity="0.149994" d="M226.879 219.144L196.647 256.97L151.159 341.932L142.278 341.92L176.292 247.638L181.373 222.544L191.639 216.067L200.791 192.71L226.879 219.144Z" fill="#F0E5DF"/>
<path opacity="0.149994" d="M161.451 113.459L150.548 158.236L134.387 172.278L108.662 223.094L99.5955 267.217L109.301 196.425L137.778 142.855L142.214 129.012L149.985 129.889L161.451 113.459Z" fill="#F0E5DF"/>
<path d="M22.6441 178.293L44.5453 193.795L85.7614 262.229L144.777 283.083L182.039 275.343L199.202 265.845L208.794 270.187L243.897 247.729L256.102 233.032L272.803 233.92L280.601 247.779L291.364 248.66L329.598 272.948L376.736 289.456L417.566 308.302L417.602 425.619L0.0790363 425.051L0.00604051 182.068L14.1058 172.115L22.6441 178.293Z" fill="#8EE0DA"/>
<path opacity="0.320007" d="M256.58 233.033L271.384 239.977L277.865 258.596L294.146 256.453L329.858 272.948L291.738 248.66L281.007 247.78L273.232 233.921L256.58 233.033Z" fill="white"/>
<path opacity="0.149994" d="M223.485 306.559L243.66 335.582L283.257 346.022L313.023 425.476L126.171 425.222L144.385 282.657L145.586 283.083L182.737 275.344L199.849 265.845L209.413 270.187L244.411 247.73L223.48 289.247L223.485 306.559Z" fill="#F0E5DF"/>
<path d="M96.0368 113.196C96.0368 113.196 101.193 131.873 104.341 134.989C107.489 138.106 114.076 159.274 114.076 159.274L130.684 202.861L136.692 201.002C136.692 201.002 142.7 199.144 146.134 201.015C149.568 202.887 150.146 222.803 150.146 222.803C150.146 222.803 155.299 234.012 157.593 250.196C159.887 266.38 169.073 300.414 169.073 300.414L173.849 300.421L183.461 307.488L191.375 331.147L220.608 352.347L259.486 369.826C259.486 369.826 312.704 368.653 325.233 359.958C337.763 351.262 380.197 270.414 380.197 270.414C380.197 270.414 392.213 266.697 402.514 270.445C406.351 271.84 412.175 284.631 417.974 300.139L418.052 561.725L-11.1221 561.141L-11.197 312.004L4.24253 276.126C4.24253 276.126 12.2497 262.445 16.8251 254.361C21.4005 246.277 31.1148 200.859 31.1148 200.859C31.1148 200.859 38.2633 185.932 44.8417 178.473C51.4201 171.014 60.278 131.818 60.278 131.818L82.5894 113.178L96.0368 113.196Z" fill="#2B5850"/>
<path d="M353.884 308.467C353.884 308.467 359.824 350.887 365.013 357.818C370.201 364.749 382.802 379.913 382.802 379.913L396.516 402.445L408.001 402.46L418.011 424.672L418.052 561.725L76.4736 561.26L76.4597 514.97C76.4597 514.97 130.259 472.182 137.805 465.918C145.351 459.653 169.975 422.468 175.254 417.282C180.533 412.096 195.112 412.116 195.112 412.116L201.415 400.007L213.493 393.098L218.25 388.778L230.362 361.962C230.362 361.962 242.154 360.247 249.123 356.794C256.091 353.342 268.316 348.166 268.316 348.166L293.5 321.368L323.871 294.577L345.357 289.413L353.884 308.467Z" fill="#257171"/>
<path d="M108.878 340.157L169.382 423.326C169.382 423.326 190.798 436.338 192.942 438.071C195.087 439.805 202.892 445.96 209.018 445.016C210.247 444.827 211.34 445.901 212.662 446.977C214.336 448.337 216.379 449.699 219.533 448.493C225.177 446.337 231.861 438.99 233.719 440.291C235.576 441.592 246.537 450.26 253.968 452.435C261.397 454.609 264.74 452.882 268.828 457.648C272.915 462.414 280.905 473.675 282.019 474.543C282.515 474.929 283.304 474.631 284.06 474.334C285.004 473.96 285.899 473.587 286.105 474.548C286.477 476.279 291.674 462.872 292.23 461.574C292.455 461.05 292.802 462.148 293.354 463.247C294.171 464.868 295.438 466.491 297.431 462.88C300.772 456.825 305.044 455.533 305.787 456.4C306.53 457.267 320.093 472.43 321.765 472.866C322.508 473.059 323.911 472.912 325.29 472.765C327.013 472.58 328.699 472.395 329.009 472.876C329.5 473.638 400.976 522.521 417.992 534.152L418 561.709L0.106671 561.14L0.0520698 379.389L8.22439 379.4L23.0774 362.543C23.0774 362.543 34.5861 340.056 41.6425 334.873C48.6983 329.69 65.0401 320.191 65.0401 320.191C65.0401 320.191 73.209 310.682 78.7825 315.882C84.3559 321.083 96.241 314.356 96.241 314.356L108.878 340.157Z" fill="#355D3E"/>
<path d="M343.098 550.347V552.94H0V411.334C18.4361 415.026 46.538 420.507 82.0245 426.984C119.57 433.834 199.97 473.423 262.54 506.415C300.403 526.385 331.738 543.934 343.098 550.347Z" fill="#BCE870"/>
<path d="M246.293 521.788L192.303 488.605L185.701 487.058L148.865 520.677L183.98 486.655L182.274 486.255L165.365 500.492L180.245 485.78L178.217 485.304L143.401 503.375L175.938 484.77L173.834 484.278L110.053 509.719L171.753 483.79L164.982 482.203C164.982 482.203 158.15 481.788 144.346 479.496C144.344 479.496 144.342 479.495 144.339 479.495C143.656 479.495 107.626 487.596 107.626 487.596C107.626 487.596 138.089 478.478 137.771 478.424C136.821 478.261 135.862 478.092 134.896 477.919C134.895 477.918 134.894 477.918 134.892 477.918C134.32 477.918 95.187 492.089 95.187 492.089C95.187 492.089 129.748 477.478 132.447 477.478C132.48 477.478 132.509 477.48 132.532 477.485C132.925 477.559 133.101 477.593 133.105 477.593C133.133 477.593 126.378 476.283 123.9 475.741C123.899 475.741 123.897 475.741 123.895 475.741C123.366 475.741 101.616 488.092 101.616 488.092C101.616 488.092 121.977 475.314 121.593 475.226C114.376 473.576 107.448 471.628 101.907 469.377C101.117 469.055 100.23 468.694 99.2498 468.293V450.726C105.704 454.396 114.951 459.661 133.742 463.24C164.293 469.059 187.323 472.52 194.826 477.134C202.328 481.748 225.551 502.51 235.904 510.584C238.26 512.421 242.884 515.63 248.841 519.489C247.991 520.261 247.142 521.027 246.293 521.788V521.788ZM0.32666 478.345V424.017C5.72129 428.238 11.8362 430.977 18.6345 430.977C26.2325 430.982 33.9053 431.944 41.271 433.388V444.32C25.65 437.837 10.5466 431.559 0.32666 427.309V467.906V478.345V478.345ZM95.4709 466.744C87.8607 463.62 76.8835 459.083 64.8146 454.083V439.529C75.8994 442.981 84.6092 446.229 88.7585 446.515C91.0814 446.675 93.1586 447.463 95.4709 448.645V466.744ZM61.0357 452.517C55.8061 450.351 50.4166 448.115 45.0499 445.888V434.175C50.6582 435.409 56.0445 436.882 61.0357 438.375V452.517Z" fill="#9ABE5E"/>
<path d="M297.554 552.94H0V427.068C26.3991 438.025 85.3492 462.48 101.744 469.129C107.293 471.38 114.232 473.328 121.462 474.978C121.846 475.066 101.452 487.842 101.452 487.842C101.452 487.842 123.386 475.409 123.772 475.493C126.649 476.12 135.281 477.78 132.418 477.236C130.482 476.869 95.0127 491.838 95.0127 491.838C95.0127 491.838 134.401 477.6 134.785 477.67C135.753 477.843 136.714 478.012 137.665 478.175C137.984 478.229 107.472 487.346 107.472 487.346C107.472 487.346 143.853 479.181 144.251 479.247C158.077 481.539 164.919 481.954 164.919 481.954L171.702 483.54L109.903 509.466L173.787 484.028L175.893 484.521L143.304 503.123L178.176 485.055L180.207 485.53L165.303 500.24L182.24 486.005L183.949 486.405L148.777 520.423L185.672 486.808L192.284 488.355L297.554 552.94" fill="#7B9B49"/>
<path d="M57.8582 534.785H38.5552L96.0898 479.229H99.858L57.8582 534.785Z" fill="#739045"/>
<path d="M371.126 604.836C371.126 604.836 391.923 591.097 418 574.145V741H250.389C258.384 736.213 265.275 732.678 269.72 731.576C280.818 728.828 306.374 701.271 327.05 677.312C341.896 660.108 354.228 644.77 356.885 641.81C363.24 634.724 371.126 604.836 371.126 604.836Z" fill="#C1F9A7"/>
<path d="M418 591.764V741H290.043C299.503 726.974 309.507 714.518 317.854 709.514C320.079 708.18 322.25 706.633 324.36 704.929C344.69 688.51 359.145 657.364 359.145 657.364C359.145 657.364 379.681 619.531 383.075 619.531C384.776 619.531 401.614 605.631 418 591.764" fill="#88D198"/>
<path d="M418 669.071V741H300.263C306.054 729.741 310.986 722.243 313.851 722.243C318.588 722.243 326.272 718.215 334.59 712.279C341.099 707.632 347.999 701.815 354.172 695.845C354.347 695.677 358.073 674.609 358.073 674.609L355.338 694.708C355.338 694.708 355.595 694.442 356.034 693.98C356.122 693.886 365.439 653.175 365.545 653.066C365.606 653.001 357.785 692.928 357.849 692.858C360.36 690.209 364.882 684.573 367.378 681.305C368.096 680.365 379.599 629.073 379.599 629.073L369.053 680.335L369.637 679.912L381.723 637.052L370.225 679.746C370.225 679.746 403.925 669.896 418 669.071" fill="#71A568"/>
<path d="M389.383 737.45V741H0.198242V547.2C21.1108 552.254 52.9875 559.755 93.2408 568.619C135.829 577.993 227.029 632.174 298.004 677.326C340.954 704.657 376.498 728.674 389.383 737.45Z" fill="#7AE870"/>
<path d="M277.675 698.293L216.724 652.776L209.271 650.654L167.687 696.77L207.329 650.101L205.403 649.552L186.313 669.081L203.112 648.9L200.822 648.248L161.518 673.036L198.25 647.516L195.875 646.84L123.871 681.739L193.525 646.171L185.881 643.994C185.881 643.994 178.169 643.425 162.585 640.281C162.583 640.281 162.581 640.28 162.578 640.28C161.807 640.28 121.131 651.391 121.131 651.391C121.131 651.391 155.522 638.884 155.162 638.81C154.09 638.586 153.007 638.354 151.917 638.117C151.916 638.116 151.914 638.116 151.913 638.116C151.267 638.116 107.089 657.554 107.089 657.554C107.089 657.554 146.106 637.512 149.152 637.512C149.19 637.512 149.222 637.516 149.248 637.522C149.692 637.624 149.89 637.67 149.895 637.67C149.927 637.67 142.301 635.873 139.503 635.13C139.502 635.13 139.5 635.13 139.498 635.13C138.9 635.13 114.346 652.072 114.346 652.072C114.346 652.072 137.333 634.544 136.899 634.424C128.751 632.16 120.93 629.487 114.676 626.4C113.784 625.959 112.782 625.463 111.676 624.913V600.816C118.962 605.85 129.401 613.073 150.614 617.982C185.104 625.965 211.103 630.711 219.573 637.04C228.042 643.369 254.259 671.85 265.946 682.925C268.606 685.444 273.826 689.846 280.551 695.14C279.591 696.199 278.633 697.249 277.675 698.293V698.293ZM0 638.702V564.179C6.09006 569.969 12.9933 573.727 20.6679 573.727C29.2454 573.733 37.9074 575.053 46.2226 577.033V592.029C28.5879 583.136 11.5375 574.524 0 568.695V624.382V638.702V638.702ZM107.41 622.789C98.8183 618.503 86.426 612.28 72.8012 605.421V585.457C85.315 590.192 95.1476 594.647 99.8318 595.04C102.454 595.26 104.799 596.341 107.41 597.962V622.789ZM68.5352 603.274C62.6314 600.301 56.5472 597.235 50.4886 594.18V578.113C56.8199 579.806 62.9006 581.826 68.5352 583.874V603.274Z" fill="#6BBE5E"/>
<path d="M335.203 741H0V568.674C29.7394 583.675 96.1484 617.156 114.618 626.258C120.869 629.34 128.686 632.007 136.83 634.266C137.263 634.386 114.288 651.877 114.288 651.877C114.288 651.877 138.998 634.857 139.433 634.971C142.674 635.83 152.399 638.102 149.173 637.358C146.992 636.854 107.035 657.348 107.035 657.348C107.035 657.348 151.407 637.856 151.84 637.951C152.93 638.188 154.012 638.419 155.084 638.643C155.443 638.717 121.07 651.198 121.07 651.198C121.07 651.198 162.054 640.021 162.503 640.111C178.079 643.248 185.787 643.816 185.787 643.816L193.427 645.988L123.808 681.482L195.776 646.656L198.149 647.33L161.436 672.798L200.72 648.061L203.009 648.712L186.219 668.85L205.298 649.362L207.224 649.91L167.602 696.482L209.165 650.462L216.614 652.579L335.203 741" fill="#499B6A"/>
<path d="M68.959 611.818H73.2137V555.735H68.959V611.818Z" fill="#1A3233"/>
<path d="M46.7061 605.327H50.9607V567.487H46.7061V605.327Z" fill="#1A3233"/>
<path d="M65.5164 720.5H43.7217L108.683 644.348H112.938L65.5164 720.5Z" fill="#197D57"/>
<path d="M64.1934 568.857L42.9548 568.151L34.9443 567.886L26.4253 567.606L28.4077 546.497L38.1389 528.432L41.8605 521.516C41.6836 521.734 40.2908 523.452 38.3637 525.8C35.7623 528.967 32.1955 533.297 29.3288 536.662L33.7689 489.383L41.6283 472.174L34.3621 483.058L39.9407 423.644L45.3572 414.193L40.2871 419.967L44.226 378L48.6845 420.627L49.7273 430.607L49.731 430.628L51.1422 444.129L49.1267 442.789L46.4442 441.003L45.3572 440.281L46.4074 441.346L49.064 444.041L51.3817 446.393L57.8815 508.508L46.3889 498.423L44.3292 496.616L46.3374 499.441L58.7584 516.915L64.1934 568.857" fill="#197D57"/>
<path d="M34.9443 567.886L26.4253 567.606L28.4077 546.497L38.1389 528.432C36.8087 544.083 35.7328 557.626 34.9443 567.886" fill="#7CAF87"/>
<path d="M107.787 644.238H112.042V588.155H107.787V644.238Z" fill="#1A3233"/>
<path d="M94.2213 555.569L83.5764 556.016L78.4306 556.235L59.5029 557.036L50.4995 557.422L54.0444 526.528L63.0852 507.832L70.0764 493.371L63.4081 503.851L55.1592 516.818L62.0383 456.852C64.1864 453.585 66.5995 449.927 68.7883 446.612C72.3842 441.164 75.3683 436.642 75.5655 436.345L69.0636 444.041L62.6331 451.66L69.6686 390.33L74.8687 384.534L69.9609 387.786L75.2154 341.974L77.8528 319L80.6058 358.792V358.802L84.5518 415.807L82.2712 415.099L79.9839 414.386L82.312 416.161L84.7014 417.977L88.1851 468.321L83.8721 464.97L77.5368 460.053L83.9672 468.899L88.6711 475.372L94.2213 555.569Z" fill="#44875F"/>
<path d="M78.4306 556.235L59.5029 557.036L50.4995 557.422L54.0444 526.528L63.0852 507.832L70.0765 493.371L63.4081 503.851L55.1592 516.818L62.0384 456.852C64.1864 453.585 66.5995 449.927 68.7883 446.612C72.3842 441.164 75.3683 436.642 75.5655 436.345L69.0636 444.041L62.6331 451.66L69.6686 390.33L74.8687 384.534L69.9609 387.786L75.2154 341.974C76.6327 405.036 78.2063 510.07 78.4306 556.235" fill="#2B5E2A"/>
<path d="M94.2211 555.569L83.5762 556.016C84.9765 536.628 84.8099 503.924 83.967 468.899L88.6709 475.372L94.2211 555.569" fill="#97D188"/>
<path d="M130.398 595.11L122.721 594.662L94.3633 593.005L96.25 572.074L109.065 547.288C108.847 547.566 101.942 556.427 97.1268 562.323L101.353 515.442L108.833 498.379L101.917 509.166L107.227 450.258L108.935 447.153L112.379 440.882L108.651 445.31L107.553 446.613L108.034 441.294L111.306 405L117.888 470.57L112.379 466.755L118.116 472.815L124.299 534.405L119.712 530.214L111.404 522.615L120.231 535.554L125.137 542.741L130.398 595.11" fill="#874444"/>
<path d="M124.299 534.405L119.712 530.214C117.018 503.25 112.989 473.809 108.935 447.153C108.836 446.536 108.745 445.923 108.65 445.31C108.444 443.961 108.237 442.622 108.033 441.294L111.305 405L117.888 470.57L112.378 466.755L118.116 472.815L124.299 534.405Z" fill="#D18888"/>
<path d="M122.721 594.662C123.503 579.293 122.395 558.471 120.231 535.553L125.137 542.741L130.398 595.11L122.721 594.662" fill="#D1C188"/>
<path d="M0 690.801V638.711L46.6992 605.387H51.0092L0 690.801Z" fill="#197D57"/>
<path d="M14.2788 716.275H0V691.715L68.8861 612.13H73.1739L14.2788 716.275Z" fill="#197D57"/>
<path d="M366.28 421.461H350.076V476.031H366.28V421.461Z" fill="#EAE0D8"/>
<path d="M362.557 450.63H353.799V476.03H362.557V450.63Z" fill="#293B6D"/>
<path d="M366.281 421.462H350.075L358.179 401.244L366.281 421.462Z" fill="#EAE0D8"/>
<path d="M386.659 401.246V401.245H358.18L366.281 421.462V476.027H378.555L378.555 476.023V476.03H394.759V421.463L394.76 421.462L386.659 401.246Z" fill="#C0BBBB"/>
<path d="M360.156 419.191L357.972 413.741L355.787 419.191H355.787V429.045H360.156V419.191Z" fill="#293B6D"/>
<path d="M289.579 313.183L282.26 330.528V412.699H289.579H296.897V330.528L289.579 313.183Z" fill="#E9E2E2"/>
<path d="M312.803 412.699H296.897V330.528H312.803V412.699Z" fill="#FFE5C0"/>
<path d="M305.485 313.183H289.579L296.897 330.528H312.803L305.485 313.183Z" fill="#293B6D"/>
<path d="M290.242 339.005H288.069V324.604H290.242V339.005Z" fill="#293B6D"/>
<path d="M286.784 357.522H284.247V350.789H286.784V357.522Z" fill="#293B6D"/>
<path d="M293.69 357.522H291.153V350.789H293.69V357.522Z" fill="#293B6D"/>
<path d="M380.165 519.917H224.167L254.416 444.433C256.784 438.525 259.995 435.207 263.343 435.207H340.993C344.341 435.207 347.553 438.526 349.92 444.435L380.165 519.917Z" fill="#116664"/>
<path d="M290.897 422.561C290.883 416.038 288.76 410.76 286.143 410.76C285.364 410.76 284.63 411.231 283.981 412.059C282.906 407.611 280.951 404.636 278.718 404.636C276.393 404.636 274.37 407.861 273.328 412.615C273.216 412.628 273.106 412.661 272.997 412.697C272.373 411.843 271.657 411.356 270.896 411.356C268.576 411.356 266.683 415.86 266.531 421.552C263.557 422.01 261.179 427.964 261.019 435.403H296.011C295.482 428.983 293.464 423.921 290.897 422.561Z" fill="#2B5850"/>
<path d="M296.023 392.946V435.404H277.199V392.946L286.611 382.707L296.023 392.946Z" fill="#EAE0D8"/>
<path d="M309.236 435.403H296.023V392.946H309.236V435.403Z" fill="#E9E2E2"/>
<path d="M286.611 382.707H299.825L309.237 392.945H296.023L286.611 382.707Z" fill="#293B6D"/>
<path d="M289.123 435.403H283.332V416.884H289.123V435.403Z" fill="#293B6D"/>
<path d="M301.75 407.636H298.918V402.498H301.75V407.636Z" fill="#293B6D"/>
<path d="M307.136 407.636H304.304V402.498H307.136V407.636Z" fill="#293B6D"/>
<path d="M301.75 419.156H298.918V414.018H301.75V419.156Z" fill="#293B6D"/>
<path d="M307.136 419.156H304.304V414.018H307.136V419.156Z" fill="#293B6D"/>
<path d="M326.946 350.276H309.135V435.403H326.946V350.276Z" fill="#FAF4F4"/>
<path d="M326.946 391.651H309.135V395.094H326.946V391.651Z" fill="#FFE5C0"/>
<path d="M336.757 350.319V435.401H326.946V350.319L331.851 339.924L336.757 350.319Z" fill="#FFE5C0"/>
<path d="M331.851 339.924L326.966 350.278H309.134L314.02 339.924H331.851Z" fill="#293B6D"/>
<path d="M334.727 435.401H329.16V417.412H334.727V435.401Z" fill="#293B6D"/>
<path d="M313.704 373.187H311.491V367.164H313.704V373.187Z" fill="#293B6D"/>
<path d="M324.438 373.187H322.224V367.164H324.438V373.187Z" fill="#293B6D"/>
<path d="M318.861 373.187H316.648V367.164H318.861V373.187Z" fill="#293B6D"/>
<path d="M313.704 384.302H311.491V378.28H313.704V384.302Z" fill="#293B6D"/>
<path d="M324.438 384.302H322.224V378.28H324.438V384.302Z" fill="#293B6D"/>
<path d="M318.861 384.302H316.648V378.28H318.861V384.302Z" fill="#293B6D"/>
<path d="M313.704 409.725H311.491V403.702H313.704V409.725Z" fill="#293B6D"/>
<path d="M324.438 409.725H322.224V403.702H324.438V409.725Z" fill="#293B6D"/>
<path d="M318.861 409.725H316.648V403.702H318.861V409.725Z" fill="#293B6D"/>
<path d="M313.704 420.84H311.491V414.817H313.704V420.84Z" fill="#293B6D"/>
<path d="M324.438 420.84H322.224V414.817H324.438V420.84Z" fill="#293B6D"/>
<path d="M318.861 420.84H316.648V414.817H318.861V420.84Z" fill="#293B6D"/>
<path d="M396.303 452.817H371.644V517.413H396.303V452.817Z" fill="#FAF4F4"/>
<path d="M409.887 452.877V517.411H396.304V452.877L403.096 438.485L409.887 452.877Z" fill="#FFE5C0"/>
<path d="M403.096 438.485L396.332 452.819H371.644L378.408 438.485H403.096Z" fill="#293B6D"/>
<path d="M380.118 473.591H375.837V465.808H380.118V473.591Z" fill="#293B6D"/>
<path d="M391.066 473.591H386.785V465.808H391.066V473.591Z" fill="#293B6D"/>
<path d="M241.758 519.631H225.308V429.521H241.758V519.631Z" fill="#E9E2E2"/>
<path d="M241.758 519.631H252.967V429.521H241.758V519.631Z" fill="#FAF4F4"/>
<path d="M241.758 453.773H225.308V450.594H241.758V453.773Z" fill="#EAE0D8"/>
<path d="M241.758 453.773H252.967V450.594H241.758V453.773Z" fill="#E9E2E2"/>
<path d="M227.882 436.081H229.874V445.049H227.882V436.081Z" fill="#293B6D"/>
<path d="M237.113 436.081H239.105V445.049H237.113V436.081Z" fill="#293B6D"/>
<path d="M232.521 436.081H234.513V445.049H232.521V436.081Z" fill="#293B6D"/>
<path d="M241.758 478.627H225.308V475.447H241.758V478.627Z" fill="#EAE0D8"/>
<path d="M241.758 478.627H252.967V475.447H241.758V478.627Z" fill="#E9E2E2"/>
<path d="M227.882 460.936H229.874V469.903H227.882V460.936Z" fill="#293B6D"/>
<path d="M237.113 460.936H239.105V469.903H237.113V460.936Z" fill="#293B6D"/>
<path d="M232.521 460.936H234.513V469.903H232.521V460.936Z" fill="#293B6D"/>
<path d="M241.758 504.79H225.308V501.609H241.758V504.79Z" fill="#EAE0D8"/>
<path d="M241.758 504.79H252.967V501.609H241.758V504.79Z" fill="#E9E2E2"/>
<path d="M227.882 487.098H229.874V496.066H227.882V487.098Z" fill="#293B6D"/>
<path d="M237.113 487.098H239.105V496.066H237.113V487.098Z" fill="#293B6D"/>
<path d="M232.521 487.098H234.513V496.066H232.521V487.098Z" fill="#293B6D"/>
<path d="M265.433 521.257H250.582V439.903H265.433V521.257Z" fill="#EAE0D8"/>
<path d="M265.433 521.257H275.553V439.903H265.433V521.257Z" fill="#E9E2E2"/>
<path d="M255.966 452.573H253.344V446.042H255.966V452.573Z" fill="#293B6D"/>
<path d="M261.977 452.573H259.355V446.042H261.977V452.573Z" fill="#293B6D"/>
<path d="M255.966 467.661H253.344V461.13H255.966V467.661Z" fill="#293B6D"/>
<path d="M261.977 467.661H259.355V461.13H261.977V467.661Z" fill="#293B6D"/>
<path d="M255.966 482.747H253.344V476.216H255.966V482.747Z" fill="#293B6D"/>
<path d="M261.977 482.747H259.355V476.216H261.977V482.747Z" fill="#293B6D"/>
<path d="M255.966 497.835H253.344V491.305H255.966V497.835Z" fill="#293B6D"/>
<path d="M261.977 497.835H259.355V491.305H261.977V497.835Z" fill="#293B6D"/>
<path d="M255.966 512.924H253.344V506.393H255.966V512.924Z" fill="#293B6D"/>
<path d="M261.977 512.924H259.355V506.393H261.977V512.924Z" fill="#293B6D"/>
<path d="M406.274 516.258H398.224C394.017 516.258 389.982 512.088 387.007 504.665L379.779 486.628C376.133 477.529 371.189 472.418 366.033 472.418H311.397C306.461 472.418 302.499 482.583 302.635 494.895L302.655 496.613C302.796 509.438 298.669 520.028 293.528 520.028H223.842C221.733 520.028 219.711 522.118 218.219 525.838L215.265 533.218C214.046 536.253 212.398 537.958 210.676 537.958H207.385C204.865 537.958 202.822 543.057 202.822 549.346V552.976H303.279V552.977H417.425V544.086C417.425 528.718 412.433 516.258 406.274 516.258Z" fill="#2B5850"/>
<path d="M357.533 527.071H380.796C382.413 527.071 383.963 528.736 385.107 531.699L387.527 537.972C388.663 540.916 390.203 542.569 391.81 542.569H410.186C411.969 542.569 413.679 544.405 414.94 547.673L417.081 553.224H355.042L357.533 527.071Z" fill="#2B5850"/>
<path d="M395.128 502.886H394.247V542.359H395.128V502.886Z" fill="#293B6D"/>
<path d="M399.928 490.688C400.12 489.103 400.21 487.4 400.174 485.63C400.032 478.423 397.783 472.519 395.004 472.067C391.786 471.543 389.112 478.153 389.112 486.383C389.112 487.851 389.197 489.267 389.356 490.6C389.767 494.07 389.673 497.835 389.006 501.026C388.47 503.595 388.187 506.572 388.245 509.732C388.397 518.071 390.978 524.92 394.193 525.495C397.938 526.164 401.057 518.487 401.057 508.924C401.057 506.082 400.782 503.407 400.296 501.067C399.638 497.894 399.511 494.125 399.928 490.688Z" fill="#2E84AF"/>
<path d="M279.065 450.261H270.082V553.224H279.065V450.261Z" fill="#FFE5C0"/>
<path d="M270.082 553.224V450.26H259.894V487.087H251.677V553.224H270.082Z" fill="#FAF4F4"/>
<path d="M267.806 457.661H262.032V455.348H267.806V457.661Z" fill="#293B6D"/>
<path d="M267.806 470.457H262.032V468.144H267.806V470.457Z" fill="#293B6D"/>
<path d="M267.806 483.255H262.032V480.942H267.806V483.255Z" fill="#293B6D"/>
<path d="M267.806 496.051H253.938V493.739H267.806V496.051Z" fill="#293B6D"/>
<path d="M267.806 508.847H253.938V506.535H267.806V508.847Z" fill="#293B6D"/>
<path d="M267.806 521.644H253.938V519.332H267.806V521.644Z" fill="#293B6D"/>
<path d="M267.806 534.44H253.938V532.127H267.806V534.44Z" fill="#293B6D"/>
<path d="M267.806 547.237H253.938V544.925H267.806V547.237Z" fill="#293B6D"/>
<path d="M272.528 513.129H271.625V553.522H272.528V513.129Z" fill="#293B6D"/>
<path d="M278.844 517.488C278.844 527.174 275.814 535.027 272.077 535.027C268.339 535.027 265.309 527.174 265.309 517.488C265.309 507.802 268.339 499.949 272.077 499.949C275.814 499.949 278.844 507.802 278.844 517.488Z" fill="#23817D"/>
<path d="M221.898 492.04H220.968V533.645H221.898V492.04Z" fill="#293B6D"/>
<path d="M228.481 510.596L224.955 501.458H227.114C228.219 501.458 228.773 497.996 227.992 495.971L224.422 486.72H226.041C226.937 486.72 227.386 483.911 226.753 482.269L222.144 470.326C221.752 469.307 221.115 469.307 220.722 470.326L216.114 482.269C215.48 483.911 215.929 486.72 216.825 486.72H218.444L214.875 495.971C214.093 497.996 214.647 501.458 215.752 501.458H217.912L214.386 510.596C213.546 512.772 214.141 516.492 215.328 516.492H227.538C228.725 516.492 229.32 512.772 228.481 510.596Z" fill="#23817D"/>
<path d="M201.664 506.567H200.729V553.157H201.664V506.567Z" fill="#293B6D"/>
<path d="M208.284 525.228L204.738 516.038H206.91C208.021 516.038 208.578 512.556 207.792 510.52L204.202 501.215H205.831C206.732 501.215 207.183 498.391 206.546 496.74L201.912 484.728C201.517 483.704 200.876 483.704 200.481 484.728L195.846 496.74C195.209 498.391 195.661 501.215 196.562 501.215H198.19L194.601 510.52C193.815 512.556 194.371 516.038 195.482 516.038H197.655L194.109 525.228C193.264 527.415 193.862 531.158 195.056 531.158H207.336C208.53 531.158 209.128 527.415 208.284 525.228Z" fill="#23817D"/>
<path d="M296.328 423.99H280.707V553.224H296.328V423.99Z" fill="#FAF4F4"/>
<path d="M303.897 439.022L296.328 423.99V553.224H303.897V439.022Z" fill="#FFE5C0"/>
<path d="M291.481 441.129H283.497V436.953H291.481V441.129Z" fill="#293B6D"/>
<path d="M291.481 451.868H283.497V447.691H291.481V451.868Z" fill="#293B6D"/>
<path d="M291.481 462.607H283.497V458.431H291.481V462.607Z" fill="#293B6D"/>
<path d="M291.481 473.302H283.497V469.125H291.481V473.302Z" fill="#293B6D"/>
<path d="M291.481 484.041H283.497V479.863H291.481V484.041Z" fill="#293B6D"/>
<path d="M291.481 494.78H283.497V490.603H291.481V494.78Z" fill="#293B6D"/>
<path d="M291.481 505.519H283.497V501.342H291.481V505.519Z" fill="#293B6D"/>
<path d="M291.481 516.139H283.497V511.962H291.481V516.139Z" fill="#293B6D"/>
<path d="M291.481 526.878H283.497V522.701H291.481V526.878Z" fill="#293B6D"/>
<path d="M291.481 537.617H283.497V533.44H291.481V537.617Z" fill="#293B6D"/>
<path d="M305.479 540.144C305.466 533.499 303.384 528.123 300.817 528.123C300.053 528.123 299.333 528.601 298.696 529.445C297.642 524.915 295.725 521.886 293.535 521.886C291.255 521.886 289.27 525.169 288.248 530.012C288.138 530.026 288.03 530.059 287.923 530.095C287.312 529.227 286.609 528.731 285.863 528.731C283.588 528.731 281.731 533.317 281.582 539.115C278.665 539.583 276.332 545.647 276.176 553.224H310.496C309.976 546.686 307.998 541.528 305.479 540.144Z" fill="#224041"/>
<path d="M327.97 384.487V386.333H319.67V384.487C319.67 378.21 317.706 373.123 315.285 373.123H323.588C326.007 373.123 327.97 378.21 327.97 384.487Z" fill="#FAF4F4"/>
<path d="M322.622 398.37H308.007V450.998H322.622V398.37Z" fill="#E9E2E2"/>
<path d="M322.622 398.37H328.999V450.998H322.622V398.37Z" fill="#FAF4F4"/>
<path d="M322.621 451H308.008V398.373H322.621V451Z" fill="#E9E2E2"/>
<path d="M322.622 438.377H308.007V450.998H322.622H328.998V438.377H322.622Z" fill="#E9E2E2"/>
<path d="M322.621 451H308.008V438.375H322.621V451Z" fill="#293B6D"/>
<path d="M323.56 442.44H305.618V553.223H323.56V442.44Z" fill="#E9E2E2"/>
<path d="M323.56 442.44H331.388V553.223H323.56V442.44Z" fill="#FAF4F4"/>
<path d="M312.618 462.159H309.792V455.956H312.618V462.159Z" fill="#293B6D"/>
<path d="M319.817 462.159H316.992V455.956H319.817V462.159Z" fill="#293B6D"/>
<path d="M312.618 481.592H309.792V475.389H312.618V481.592Z" fill="#293B6D"/>
<path d="M319.817 481.592H316.992V475.389H319.817V481.592Z" fill="#293B6D"/>
<path d="M312.618 501.026H309.792V494.823H312.618V501.026Z" fill="#293B6D"/>
<path d="M319.817 501.026H316.992V494.823H319.817V501.026Z" fill="#293B6D"/>
<path d="M312.618 520.459H309.792V514.255H312.618V520.459Z" fill="#293B6D"/>
<path d="M319.817 520.459H316.992V514.255H319.817V520.459Z" fill="#293B6D"/>
<path d="M312.618 539.893H309.792V533.69H312.618V539.893Z" fill="#293B6D"/>
<path d="M319.817 539.892H316.992V533.689H319.817V539.892Z" fill="#293B6D"/>
<path d="M312.618 413.381H309.792V407.178H312.618V413.381Z" fill="#293B6D"/>
<path d="M319.817 413.381H316.992V407.178H319.817V413.381Z" fill="#293B6D"/>
<path d="M312.618 432.814H309.792V426.611H312.618V432.814Z" fill="#293B6D"/>
<path d="M319.817 432.814H316.992V426.611H319.817V432.814Z" fill="#293B6D"/>
<path d="M319.669 386.33V384.485C319.669 378.212 317.707 373.126 315.286 373.126C312.865 373.126 310.903 378.212 310.903 384.485V386.33H308.655V398.37H321.917V386.33H319.669Z" fill="#293B6D"/>
<path d="M327.998 386.33H321.904V398.37H327.998V386.33Z" fill="#FAF4F4"/>
<path d="M351.755 501.927V481.081L342.31 456.606L332.867 481.081V553.223H346.564V553.224H360.211V501.927H351.755Z" fill="#FDF4F4"/>
<path d="M315.159 481.081H332.868V553.224H315.159V481.081Z" fill="#EAE0D8"/>
<path d="M324.602 456.607L315.159 481.081H332.868L342.311 456.607H324.602Z" fill="#293B6D"/>
<path d="M318.223 490.62H319.902V494.972H318.223V490.62Z" fill="#293B6D"/>
<path d="M322.905 490.62H324.584V494.972H322.905V490.62Z" fill="#293B6D"/>
<path d="M327.586 490.62H329.265V494.972H327.586V490.62Z" fill="#293B6D"/>
<path d="M318.223 502.977H319.902V507.33H318.223V502.977Z" fill="#293B6D"/>
<path d="M322.905 502.977H324.584V507.33H322.905V502.977Z" fill="#293B6D"/>
<path d="M327.586 502.977H329.265V507.33H327.586V502.977Z" fill="#293B6D"/>
<path d="M318.223 515.336H319.902V519.687H318.223V515.336Z" fill="#293B6D"/>
<path d="M322.905 515.336H324.584V519.687H322.905V515.336Z" fill="#293B6D"/>
<path d="M327.586 515.336H329.265V519.687H327.586V515.336Z" fill="#293B6D"/>
<path d="M318.223 527.694H319.902V532.045H318.223V527.694Z" fill="#293B6D"/>
<path d="M322.905 527.694H324.584V532.045H322.905V527.694Z" fill="#293B6D"/>
<path d="M327.586 527.694H329.265V532.045H327.586V527.694Z" fill="#293B6D"/>
<path d="M318.223 540.052H319.902V544.403H318.223V540.052Z" fill="#293B6D"/>
<path d="M322.905 540.052H324.584V544.403H322.905V540.052Z" fill="#293B6D"/>
<path d="M327.586 540.052H329.265V544.403H327.586V540.052Z" fill="#293B6D"/>
<path d="M345.47 514.841H344.598V553.859H345.47V514.841Z" fill="#293B6D"/>
<path d="M351.571 519.051C351.571 528.409 348.644 535.994 345.034 535.994C341.424 535.994 338.497 528.409 338.497 519.051C338.497 509.694 341.424 502.109 345.034 502.109C348.644 502.109 351.571 509.694 351.571 519.051Z" fill="#203D3E"/>
<path d="M250.911 553.223H203.848L210.326 538.73C212.045 534.884 214.241 532.768 216.51 532.768H223.497C224.927 532.768 226.297 534.244 227.31 536.86L228.604 540.223C229.589 542.766 230.921 544.2 232.31 544.2H244.763C246.472 544.2 248.11 545.956 249.316 549.089L250.911 553.223Z" fill="#116268"/>
<path d="M162.395 482.809H159.993V351.501H162.395V482.809Z" fill="#293B6D"/>
<path d="M162.979 341.722L161.058 319L159.137 341.722C159.013 343.18 159.112 344.683 159.418 346.014L161.058 353.152L162.698 346.014C163.004 344.683 163.103 343.18 162.979 341.722Z" fill="white"/>
<path d="M154.821 355.193L145.437 369.719L156.743 361.523C157.468 360.997 158.103 360.083 158.556 358.914L160.986 352.643L156.916 353.51C156.157 353.672 155.423 354.262 154.821 355.193Z" fill="white"/>
<path d="M165.033 361.896L176.339 370.093L166.954 355.566C166.352 354.634 165.618 354.045 164.859 353.884L160.79 353.016L163.22 359.287C163.673 360.457 164.308 361.37 165.033 361.896Z" fill="white"/>
<path d="M162.5 353.153C162.5 354.846 161.778 356.219 160.888 356.219C159.998 356.219 159.276 354.846 159.276 353.153C159.276 351.46 159.998 350.087 160.888 350.087C161.778 350.087 162.5 351.46 162.5 353.153Z" fill="#293B6D"/>
<path d="M192 491H189V369H192V491Z" fill="#293B6D"/>
<path d="M192.355 358.516L190.235 336L188.115 358.516C187.979 359.96 188.088 361.449 188.425 362.768L190.235 369.841L192.045 362.768C192.382 361.449 192.491 359.96 192.355 358.516Z" fill="white"/>
<path d="M183.354 371.864L173 386.258L185.474 378.136C186.274 377.615 186.974 376.709 187.474 375.551L190.155 369.337L185.665 370.196C184.827 370.356 184.018 370.941 183.354 371.864Z" fill="white"/>
<path d="M194.621 378.506L207.095 386.628L196.74 372.233C196.077 371.31 195.267 370.726 194.429 370.566L189.939 369.707L192.62 375.92C193.12 377.08 193.82 377.985 194.621 378.506Z" fill="white"/>
<path d="M191.825 369.842C191.825 371.52 191.029 372.88 190.048 372.88C189.065 372.88 188.269 371.52 188.269 369.842C188.269 368.164 189.065 366.804 190.048 366.804C191.029 366.804 191.825 368.164 191.825 369.842Z" fill="#293B6D"/>
<path d="M140 465H138V367H140V465Z" fill="#293B6D"/>
<path d="M140.483 360.465L138.898 344L137.312 360.465C137.21 361.521 137.291 362.61 137.544 363.575L138.898 368.747L140.251 363.575C140.504 362.61 140.585 361.521 140.483 360.465Z" fill="white"/>
<path d="M133.75 370.226L126.005 380.752L135.336 374.813C135.934 374.432 136.458 373.77 136.833 372.923L138.838 368.378L135.479 369.006C134.853 369.124 134.247 369.551 133.75 370.226Z" fill="white"/>
<path d="M142.179 375.083L151.51 381.022L143.764 370.496C143.268 369.821 142.662 369.394 142.035 369.277L138.677 368.649L140.682 373.192C141.056 374.04 141.58 374.702 142.179 375.083Z" fill="white"/>
<path d="M140.087 368.748C140.087 369.975 139.492 370.969 138.757 370.969C138.022 370.969 137.427 369.975 137.427 368.748C137.427 367.521 138.022 366.526 138.757 366.526C139.492 366.526 140.087 367.521 140.087 368.748Z" fill="#293B6D"/>
<path d="M388.313 454.041L382.584 468.581V537.467H388.313H394.042V468.581L388.313 454.041Z" fill="#FDF9F1"/>
<path d="M406.494 537.467H394.042V468.582H406.494V537.467Z" fill="#EAE0D8"/>
<path d="M400.765 454.04H388.313L394.042 468.581H406.494L400.765 454.04Z" fill="#293B6D"/>
<path d="M388.833 475.688H387.131V463.615H388.833V475.688Z" fill="#293B6D"/>
<path d="M386.125 491.211H384.139V485.567H386.125V491.211Z" fill="#293B6D"/>
<path d="M391.531 491.211H389.545V485.567H391.531V491.211Z" fill="#293B6D"/>
<path d="M397.521 478.843H395.535V473.198H397.521V478.843Z" fill="#293B6D"/>
<path d="M402.013 478.843H400.027V473.198H402.013V478.843Z" fill="#293B6D"/>
<path d="M402.013 491.842H400.027V486.197H402.013V491.842Z" fill="#293B6D"/>
<path d="M398.05 492.527H396.063V486.882H398.05V492.527Z" fill="#293B6D"/>
<path d="M393.358 520.907V556.5H378.622V520.907L385.99 512.323L393.358 520.907Z" fill="#EAE0D8"/>
<path d="M403.701 556.5H393.357V520.907H403.701V556.5Z" fill="#FDF9F1"/>
<path d="M385.99 512.324H396.334L403.702 520.907H393.358L385.99 512.324Z" fill="#293B6D"/>
<path d="M387.956 556.5H383.422V540.975H387.956V556.5Z" fill="#293B6D"/>
<path d="M397.841 533.223H395.624V528.915H397.841V533.223Z" fill="#293B6D"/>
<path d="M402.057 533.223H399.84V528.915H402.057V533.223Z" fill="#293B6D"/>
<path d="M397.841 542.88H395.624V538.573H397.841V542.88Z" fill="#293B6D"/>
<path d="M402.057 542.88H399.84V538.573H402.057V542.88Z" fill="#293B6D"/>
<path d="M417.79 485.509H403.519V556.687H417.79V485.509Z" fill="#F7F2EA"/>
<path d="M407.199 534.974H405.466V529.925H407.199V534.974Z" fill="#293B6D"/>
<path d="M407.31 513.142H405.577V508.092H407.31V513.142Z" fill="#293B6D"/>
<path d="M407.31 493.3H405.577V488.251H407.31V493.3Z" fill="#293B6D"/>
<path d="M415.601 534.974H413.869V529.925H415.601V534.974Z" fill="#293B6D"/>
<path d="M415.712 513.142H413.979V508.092H415.712V513.142Z" fill="#293B6D"/>
<path d="M415.712 493.3H413.979V488.251H415.712V493.3Z" fill="#293B6D"/>
<path d="M411.236 534.974H409.503V529.925H411.236V534.974Z" fill="#293B6D"/>
<path d="M411.347 513.142H409.614V508.092H411.347V513.142Z" fill="#293B6D"/>
<path d="M411.347 493.3H409.614V488.251H411.347V493.3Z" fill="#293B6D"/>
<path d="M407.199 544.292H405.466V539.243H407.199V544.292Z" fill="#293B6D"/>
<path d="M407.31 522.459H405.577V517.41H407.31V522.459Z" fill="#293B6D"/>
<path d="M407.31 502.618H405.577V497.568H407.31V502.618Z" fill="#293B6D"/>
<path d="M415.601 544.292H413.869V539.243H415.601V544.292Z" fill="#293B6D"/>
<path d="M415.712 522.459H413.979V517.41H415.712V522.459Z" fill="#293B6D"/>
<path d="M415.712 502.618H413.979V497.568H415.712V502.618Z" fill="#293B6D"/>
<path d="M411.236 544.292H409.503V539.243H411.236V544.292Z" fill="#293B6D"/>
<path d="M411.347 522.459H409.614V517.41H411.347V522.459Z" fill="#293B6D"/>
<path d="M411.347 502.618H409.614V497.568H411.347V502.618Z" fill="#293B6D"/>
<path d="M401.421 206.822C402.969 206.822 403.615 201.022 402.371 198.318C400.739 194.775 398.721 192.679 396.536 192.679C396.417 192.679 396.299 192.685 396.182 192.697C393.728 192.955 391.401 189.851 389.672 184.73C388.621 181.615 387.33 179.201 385.887 177.747C384.418 176.263 383.205 173.135 382.446 169.153C380.764 160.335 377.553 154.375 373.866 154.375C369.746 154.375 366.22 161.822 364.759 172.386C364.251 176.062 363.068 178.542 361.717 178.537H361.629C358.286 178.537 355.333 183.439 353.558 190.931C352.609 194.931 351.081 197.401 349.421 197.394H349.392C349.248 197.394 349.105 197.403 348.962 197.421C346.896 197.682 346.997 206.822 349.065 206.822H401.421Z" fill="white"/>
<path d="M105.306 150.145C107.541 150.145 108.474 144.364 106.677 141.668C104.32 138.137 101.406 136.048 98.251 136.048C98.0793 136.048 97.9094 136.054 97.7395 136.066C94.1961 136.323 90.8358 133.229 88.3393 128.124C86.8216 125.02 84.957 122.614 82.8737 121.164C80.7516 119.686 79.0002 116.567 77.9037 112.598C75.4754 103.809 70.8381 97.8677 65.515 97.8677C59.5653 97.8677 54.4732 105.291 52.3634 115.82C51.6298 119.485 49.9209 121.957 47.9704 121.952H47.8439C43.0163 121.952 38.7516 126.838 36.1879 134.306C34.8188 138.293 32.6117 140.755 30.2152 140.748H30.1727C29.9647 140.748 29.7577 140.757 29.5523 140.775C26.5682 141.035 26.7142 150.145 29.701 150.145H105.306Z" fill="white"/>
<path d="M353.786 90.6791C353.786 90.6791 351.098 87.7046 349.788 90.3973C349.788 90.3973 352.3 89.718 353.776 94.106C355.276 89.9276 357.784 90.9608 357.784 90.9608C356.49 88.0846 353.786 90.6791 353.786 90.6791Z" fill="black"/>
<path d="M241.615 332.399C241.615 332.399 237.175 323.798 234.995 331.92C234.995 331.92 239.159 329.675 241.584 342.587C244.085 330.031 248.234 332.877 248.234 332.877C246.103 324.443 241.615 332.399 241.615 332.399Z" fill="black"/>
<path d="M183.957 243.233C183.957 243.233 178.501 234.645 175.829 242.651C175.829 242.651 180.94 240.496 183.927 253.32C186.988 240.93 192.084 243.816 192.084 243.816C189.462 235.43 183.957 243.233 183.957 243.233Z" fill="black"/>
<path d="M368.07 571.187H230.143C232.649 571.187 234.681 576.799 234.681 583.716C234.681 590.616 232.661 596.213 230.166 596.246H224.548C222.454 596.246 220.756 600.933 220.756 606.71C220.756 612.495 222.454 617.18 224.548 617.18L280.05 617.217C281.683 617.217 283.007 620.874 283.007 625.382C283.007 629.893 281.683 633.547 280.05 633.547H274.764H265.169C263.789 633.547 262.67 636.636 262.67 640.446C262.67 644.255 263.789 647.346 265.169 647.346L314.791 647.204C316.173 647.204 317.293 644.11 317.293 640.294C317.293 636.985 316.45 634.225 315.325 633.547H339.764H351.119C352.753 633.547 354.077 629.893 354.077 625.382C354.077 620.874 352.753 617.217 351.119 617.217H339.764L336.02 617.18C333.927 617.18 332.229 612.495 332.229 606.71C332.229 600.953 333.915 596.283 335.998 596.25H368.07C370.576 596.25 372.608 590.637 372.608 583.716C372.608 576.799 370.576 571.187 368.07 571.187" fill="#42B6B9" fill-opacity="0.5"/>
<path d="M305.109 623.675H286.069C284.632 623.675 283.467 620.1 283.467 615.691C283.467 611.317 282.32 607.772 280.898 607.715H279.097C268.84 607.715 258.605 607.715 248.266 607.715C247.141 607.715 246.228 604.919 246.228 601.467C246.228 598.013 247.141 595.215 248.266 595.215H252.592C254.404 595.215 255.215 591.313 255.215 588.434C255.215 584.024 256.379 580.45 257.817 580.45C270.261 580.45 306.007 580.45 318.273 580.45C319.605 580.45 320.684 583.762 320.684 587.848C320.684 591.937 319.605 595.249 318.273 595.249C310.574 595.249 290.894 595.28 290.894 595.28C289.776 595.28 288.869 598.06 288.869 601.492C288.869 604.925 289.776 607.706 290.894 607.706H304.501H305.109C306.547 607.706 307.711 611.281 307.711 615.691C307.711 620.1 306.547 623.675 305.109 623.675" fill="#86D6D3"/>
<path d="M199.382 587.816C198.656 587.737 198.081 586.712 198.081 585.444C198.081 584.126 197.459 583.057 196.692 583.057H193.059C192.935 583.057 192.816 583.095 192.7 583.147H190.531H168.267H163.039C162.287 583.147 161.677 584.194 161.677 585.486C161.677 586.78 162.287 587.828 163.039 587.828H168.267H177.234C177.738 588.043 178.113 588.82 178.113 589.753C178.113 590.853 178.632 591.743 179.27 591.743H180.9C180.848 591.755 180.795 591.771 180.741 591.771H185.158H198.147H202.564C203.199 591.771 203.715 590.886 203.715 589.794C203.715 588.701 203.199 587.816 202.564 587.816H201.019H199.382Z" fill="#308A8A"/>
<path d="M185.084 572.874C185.084 573.343 185.306 573.725 185.578 573.725C185.851 573.725 186.074 573.343 186.074 572.874V538.38C186.074 537.911 185.851 537.529 185.578 537.529C185.306 537.529 185.084 537.911 185.084 538.38V572.874" fill="#3F7EC0"/>
<path d="M200.619 568.381L185.957 524.659L171.294 568.381H200.619Z" fill="#FDFEFC"/>
<path d="M186.96 572.036H201.903C202.214 572.036 202.386 572.665 202.177 573.062C198.43 580.219 193.001 584.719 186.96 584.719H177.161C174.625 584.719 172.57 581.187 172.57 576.83V573.395C172.57 572.645 172.924 572.036 173.361 572.036H186.96Z" fill="#D3A520"/>
<path d="M171.294 568.381L185.957 524.659V568.381H171.294Z" fill="#DFDFDD"/>
<path d="M182.899 521.83L181.254 519.002V519H185.957V524.659H181.254V524.658L182.899 521.83" fill="#E93736"/>
<path d="M199.212 577.715C195.796 582.114 191.555 584.719 186.96 584.719H177.161C174.8 584.719 172.857 581.657 172.601 577.715H199.212Z" fill="#D3A520"/>
<g opacity="0.8">
<path d="M324.489 228.161C325.17 226.521 324.166 224.706 323.212 223.355L322.484 222.327L321.749 223.361C320.793 224.703 319.791 226.499 320.462 228.14C320.858 229.119 321.608 229.778 322.47 229.785C323.333 229.791 324.087 229.136 324.489 228.161" fill="#F47216"/>
<path d="M323.595 228.846C323.988 227.895 323.409 226.852 322.856 226.067L322.434 225.472L322.008 226.069C321.458 226.842 320.878 227.883 321.266 228.834C321.495 229.399 321.929 229.784 322.427 229.785C322.923 229.785 323.363 229.413 323.595 228.846" fill="white"/>
<path d="M325.205 231.116C325.004 230.221 324.41 229.565 323.703 229.561L321.317 229.55C320.606 229.544 320.013 230.194 319.805 231.085L315.032 231.059L315.027 232.67L329.973 232.751L329.977 231.142L325.205 231.116Z" fill="#CD864C"/>
<path d="M315.89 237.177L311.09 216.216L311.864 215.846L316.664 236.81L315.89 237.177" fill="#CD864C"/>
<path d="M329.214 237.248L334.132 216.339L333.358 215.963L328.439 236.875L329.214 237.248" fill="#CD864C"/>
<path d="M308.088 185.199C308.127 171.188 312.697 158.688 319.846 150.396C307.671 152.41 298.2 166.857 298.152 184.449C298.125 194.463 301.245 203.178 306.019 209.816C306.019 209.816 312.987 220.93 318.188 220.959L320.396 220.969C312.868 212.614 308.047 199.692 308.088 185.199Z" fill="#EC1C24"/>
<path d="M325.269 150.323C332.715 158.688 337.472 171.538 337.433 185.933C337.392 200.092 332.726 212.709 325.444 220.997L327.013 221.009C331.687 221.034 339.363 210 339.363 210C344.26 203.73 347.346 194.735 347.372 184.718C347.423 166.839 337.724 152.089 325.269 150.323" fill="#EC1C24"/>
<path d="M319.325 150.394C310.943 158.68 305.588 171.173 305.547 185.185C305.507 199.676 311.166 212.604 320.005 220.968L325.927 221.003C334.463 212.717 339.933 200.106 339.971 185.944C340.012 171.55 334.427 158.697 325.685 150.328C324.759 150.215 323.813 150.151 322.859 150.146C321.662 150.139 320.485 150.229 319.325 150.394" fill="#FAB712"/>
<path d="M321.352 150.403C317.759 158.715 315.454 171.227 315.416 185.238C315.374 199.732 317.769 212.641 321.526 220.978L324.053 220.991C327.712 212.68 330.066 200.054 330.103 185.892C330.146 171.496 327.782 158.662 324.065 150.321C323.668 150.207 323.266 150.148 322.858 150.146C322.35 150.144 321.845 150.238 321.352 150.403Z" fill="#EC1C24"/>
<path d="M329.529 248.448C329.522 249.925 328.661 251.122 327.603 251.117L317.476 251.06C316.419 251.052 315.565 249.848 315.569 248.368L315.602 236.579C315.602 236.281 315.774 236.044 315.987 236.043L329.178 236.119C329.389 236.118 329.562 236.361 329.561 236.657L329.529 248.448" fill="#975526"/>
</g>
<path d="M277.225 25.5309C277.225 73.8756 250.229 113.065 216.926 113.065C183.626 113.065 156.63 73.8756 156.63 25.5309C156.63 -22.8102 183.626 -62.0032 216.926 -62.0032C250.229 -62.0032 277.225 -22.8102 277.225 25.5309Z" fill="#FFB531"/>
<path d="M188.215 97.936C189.948 97.936 190.672 91.0714 189.278 87.8714C187.451 83.6785 185.191 81.1985 182.745 81.1985C182.612 81.1985 182.48 81.2049 182.349 81.2198C179.601 81.5245 176.996 77.8514 175.061 71.79C173.884 68.1042 172.438 65.2471 170.823 63.5257C169.178 61.7701 167.82 58.0672 166.97 53.3545C165.087 42.9191 161.491 35.8648 157.364 35.8648C152.751 35.8648 148.803 44.6789 147.168 57.1809C146.599 61.5315 145.274 64.4674 143.762 64.461H143.663C139.921 64.461 136.614 70.2624 134.626 79.1297C133.565 83.8638 131.854 86.7869 129.996 86.7784H129.963C129.801 86.7784 129.641 86.789 129.482 86.8103C127.168 87.1193 127.281 97.936 129.597 97.936H188.215Z" fill="white"/>
<path d="M285.748 110.093C287.481 110.093 288.205 103.229 286.811 100.029C284.984 95.8357 282.725 93.3557 280.278 93.3557C280.145 93.3557 280.014 93.3621 279.882 93.377C277.135 93.6817 274.529 90.0086 272.594 83.9473C271.417 80.2614 269.971 77.4044 268.356 75.6829C266.711 73.9273 265.353 70.2244 264.503 65.5117C262.62 55.0763 259.025 48.0221 254.898 48.0221C250.285 48.0221 246.337 56.8361 244.701 69.3381C244.132 73.6887 242.807 76.6246 241.295 76.6182H241.197C237.454 76.6182 234.147 82.4197 232.16 91.287C231.098 96.021 229.387 98.9441 227.529 98.9356H227.496C227.335 98.9356 227.174 98.9463 227.015 98.9676C224.701 99.2765 224.814 110.093 227.13 110.093H285.748Z" fill="white"/>
</g>
<defs>
<clipPath id="clip0_169:5589">
<rect width="414" height="736" fill="white"/>
</clipPath>
</defs>
</svg>
