<svg width="414" height="736" viewBox="0 0 414 736" fill="none" xmlns="http://www.w3.org/2000/svg">
<g clip-path="url(#clip0_169:5303)">
<rect width="414" height="736" fill="white"/>
<path d="M0.847698 488.66L416.757 488.607L416.765 7.35704L0.855516 7.41055L0.847698 488.66Z" fill="url(#paint0_linear_169:5303)"/>
<path d="M0.0317383 574.802H417.777V2.91716H0.0317383V574.802Z" fill="#20213B"/>
<path d="M1 741V548L415 555.89V741H1Z" fill="#7298F8"/>
<path d="M410.863 252.73L216.565 228.115C212.761 225.466 208.85 222.992 204.824 220.729H417.777V243.535L410.863 252.73Z" fill="#9796C6"/>
<path d="M0.847656 599.305V317.649L0.848926 421.888C0.847656 421.888 0.847656 421.888 0.847656 421.888V435.996V599.305ZM264.034 357.031L145.507 257.663L76.9874 332.864L55.7555 304.832L52.3099 248.257C76.0251 225.871 105.261 209.282 140.711 206.415C143.861 206.16 146.959 206.037 149.996 206.037C170.61 206.037 188.674 211.732 204.856 220.86H158.503L216.543 228.242C235.951 241.814 252.58 260.013 267.795 278.214C290.128 304.932 309.406 331.65 329.909 343.725L325.894 346.706C322.424 349.283 318.845 350.561 315.275 350.561C309.853 350.561 304.453 347.614 299.492 341.797L281.083 320.217L264.034 357.031V357.031ZM51.531 299.254L51.1162 298.707L52.8359 295.344L51.531 299.254ZM48.8223 295.678L33.6634 275.664L16.7054 295.639L15.0685 293.668C25.3215 277.928 37.3701 262.54 51.3652 249.156L48.8223 295.678" fill="#E7FEFF"/>
<path d="M216.543 228.242L158.502 220.86H204.855C208.863 223.121 212.756 225.594 216.543 228.242" fill="#EFFEFE"/>
<path d="M96.4498 515.537L86.268 516.214L81.3462 516.544L63.242 517.756L54.6304 518.339L58.021 471.628L66.6684 443.359L73.3555 421.495L66.9773 437.34L59.0873 456.946L65.6671 366.279C67.7217 361.338 70.0298 355.808 72.1234 350.795C75.5629 342.558 78.4171 335.721 78.6057 335.272L72.3867 346.909L66.2361 358.428L72.9654 265.698L77.9393 256.934L73.245 261.851L78.2709 192.584L80.7935 157.848L83.4268 218.012V218.028L87.201 304.219L85.0197 303.149L82.8318 302.071L85.0587 304.754L87.3441 307.499L90.6762 383.619L86.5509 378.553L80.4912 371.118L86.6419 384.494L91.1411 394.28L96.4498 515.537" fill="#6B8744"/>
<path d="M87.201 304.219L85.0196 303.149C83.1504 224.928 80.7935 157.848 80.7935 157.848L83.4267 218.012V218.028L87.201 304.219" fill="#BAD188"/>
<path d="M242.004 186.95C245.892 189.325 286.45 238.953 286.45 238.953L306.442 235.101L355.859 195.079L382.801 213.22L400.573 213.244L417.792 222.897L417.832 352.637L89.4164 352.191L89.4008 300.436L183.413 194.845L218.121 181.313C218.121 181.313 238.115 184.573 242.004 186.95Z" fill="#544D81"/>
<path d="M169.779 115.94L174.928 128.017L200.613 194.867L226.647 221.197L262.951 281.489L262.97 343.654L89.4183 343.419L109.315 198.57L137.731 145.21L142.158 131.421L149.913 132.294L161.355 115.929L169.779 115.94Z" fill="#504DCC"/>
<path opacity="0.149994" d="M226.647 221.198L196.478 258.876L151.085 343.503L142.222 343.491L176.166 249.58L181.236 224.585L191.481 218.133L200.613 194.868L226.647 221.198Z" fill="#F0E5DF"/>
<path opacity="0.149994" d="M161.355 115.929L150.475 160.53L134.348 174.517L108.676 225.133L99.629 269.082L109.315 198.569L137.731 145.21L142.158 131.421L149.913 132.295L161.355 115.929Z" fill="#F0E5DF"/>
<path d="M22.8383 180.508L44.6938 195.949L85.8239 264.114L144.717 284.885L181.901 277.176L199.028 267.715L208.599 272.04L243.629 249.671L255.809 235.032L272.475 235.916L280.257 249.721L290.997 250.598L329.151 274.79L376.191 291.233L416.936 310.005L416.971 426.86L0.32039 426.294L0.247547 184.268L14.3179 174.354L22.8383 180.508Z" fill="#38368F"/>
<path opacity="0.320007" d="M256.286 235.033L271.059 241.949L277.526 260.495L293.773 258.361L329.411 274.791L291.37 250.599L280.662 249.722L272.903 235.918L256.286 235.033Z" fill="white"/>
<path opacity="0.149994" d="M223.26 308.269L243.393 337.178L282.907 347.577L312.611 426.718L126.149 426.465L144.325 284.462L145.524 284.886L182.597 277.177L199.673 267.716L209.217 272.041L244.142 249.672L223.254 291.026L223.26 308.269Z" fill="#E0DFF0"/>
<path d="M104.015 115.606C104.015 115.606 108.995 134.112 112.035 137.199C115.075 140.286 121.437 161.26 121.437 161.26L137.476 204.446L143.278 202.604C143.278 202.604 149.08 200.762 152.396 202.616C155.712 204.471 156.271 224.203 156.271 224.203C156.271 224.203 161.248 235.31 163.463 251.345C165.679 267.38 174.551 301.101 174.551 301.101L179.163 301.107L188.446 308.108L196.088 331.551L224.32 352.554L261.866 369.871C261.866 369.871 313.26 368.707 325.36 360.091C337.46 351.475 378.44 271.369 378.44 271.369C378.44 271.369 390.044 267.685 399.992 271.398C403.698 272.781 409.322 285.454 414.922 300.819L415 560L0.532035 559.437L0.45774 312.59L15.3679 277.042C15.3679 277.042 23.1005 263.487 27.5191 255.477C31.9377 247.466 41.3188 202.465 41.3188 202.465C41.3188 202.465 48.2221 187.676 54.5751 180.285C60.928 172.894 69.482 134.058 69.482 134.058L91.0288 115.588L104.015 115.606Z" fill="#2A2E52"/>
<path d="M353.857 310.171C353.857 310.171 359.795 352.423 364.982 359.327C370.168 366.231 382.764 381.336 382.764 381.336L396.473 403.778L407.953 403.794L417.959 425.919L418 562.431L76.5554 561.967L76.5416 515.86C76.5416 515.86 130.32 473.24 137.863 467.001C145.406 460.761 170.02 423.722 175.297 418.557C180.574 413.391 195.147 413.411 195.147 413.411L201.448 401.35L213.522 394.468L218.277 390.165L230.383 363.455C230.383 363.455 242.171 361.747 249.138 358.307C256.103 354.869 268.323 349.713 268.323 349.713L293.497 323.021L323.856 296.335L345.334 291.192L353.857 310.171Z" fill="#111A68"/>
<path d="M108.723 341.737L169.006 424.584C169.006 424.584 190.345 437.545 192.481 439.271C194.618 440.998 202.394 447.129 208.498 446.19C209.723 446.001 210.811 447.071 212.128 448.142C213.796 449.497 215.832 450.854 218.974 449.653C224.598 447.505 231.258 440.187 233.109 441.482C234.959 442.778 245.88 451.413 253.283 453.579C260.686 455.745 264.016 454.024 268.089 458.772C272.162 463.52 280.122 474.737 281.233 475.601C281.727 475.986 282.513 475.69 283.266 475.393C284.207 475.021 285.098 474.65 285.304 475.607C285.675 477.331 290.852 463.976 291.407 462.683C291.631 462.161 291.976 463.254 292.526 464.349C293.34 465.964 294.603 467.581 296.588 463.984C299.918 457.953 304.174 456.665 304.914 457.529C305.655 458.392 319.168 473.497 320.834 473.931C321.574 474.124 322.972 473.977 324.346 473.83C326.063 473.646 327.742 473.462 328.051 473.941C328.541 474.7 399.756 523.393 416.71 534.979L416.718 562.43L0.348023 561.864L0.293532 380.816L8.43607 380.828L23.2349 364.036C23.2349 364.036 34.7017 341.637 41.7323 336.473C48.7624 331.31 65.0446 321.848 65.0446 321.848C65.0446 321.848 73.1837 312.376 78.7369 317.556C84.29 322.737 96.1318 316.036 96.1318 316.036L108.723 341.737Z" fill="#384276"/>
<path d="M342.623 551.097V553.681H0.241211V412.631C18.6388 416.309 46.682 421.769 82.0944 428.22C119.561 435.043 199.793 474.476 262.233 507.338C300.018 527.23 331.287 544.709 342.623 551.097Z" fill="#5E68BE"/>
<path d="M297.174 553.681H0.241211V428.303C26.5852 439.217 85.4122 463.577 101.773 470.199C107.31 472.441 114.235 474.381 121.449 476.025C121.833 476.113 101.481 488.838 101.481 488.838C101.481 488.838 123.37 476.455 123.755 476.538C126.626 477.163 135.24 478.816 132.382 478.275C130.451 477.908 95.0556 492.819 95.0556 492.819C95.0556 492.819 134.362 478.637 134.745 478.706C135.711 478.879 136.67 479.047 137.619 479.21C137.937 479.264 107.488 488.344 107.488 488.344C107.488 488.344 143.794 480.212 144.191 480.278C157.988 482.56 164.816 482.974 164.816 482.974L171.584 484.554L109.914 510.378L173.665 485.04L175.767 485.53L143.246 504.059L178.045 486.062L180.072 486.535L165.199 501.187L182.1 487.009L183.806 487.407L148.707 521.291L185.526 487.809L192.124 489.349L297.174 553.681" fill="#545CA9"/>
<path d="M371.181 605.372C371.181 605.372 392.035 591.687 418.185 574.802V741H250.107C258.125 736.232 265.035 732.711 269.493 731.613C280.621 728.876 306.248 701.427 326.982 677.562C341.869 660.427 354.235 645.149 356.9 642.2C363.273 635.142 371.181 605.372 371.181 605.372Z" fill="#A7AAF9"/>
<path d="M418.185 592.351V741H289.679C299.18 727.029 309.227 714.622 317.609 709.638C319.844 708.309 322.024 706.768 324.144 705.071C344.561 688.717 359.077 657.693 359.077 657.693C359.077 657.693 379.702 620.009 383.111 620.009C384.818 620.009 401.729 606.164 418.185 592.351" fill="#8898D1"/>
<path d="M418.185 669.355V741H299.878C305.697 729.785 310.652 722.316 313.531 722.316C318.292 722.316 326.013 718.304 334.371 712.392C340.911 707.764 347.845 701.969 354.047 696.023C354.224 695.856 357.968 674.87 357.968 674.87L355.219 694.89C355.219 694.89 355.478 694.626 355.919 694.165C356.008 694.071 365.37 653.521 365.476 653.412C365.537 653.348 357.678 693.117 357.742 693.048C360.265 690.409 364.81 684.795 367.317 681.54C368.039 680.604 379.598 629.513 379.598 629.513L369.001 680.573L369.588 680.153L381.732 637.462L370.178 679.987C370.178 679.987 404.041 670.176 418.185 669.355" fill="#6872A5"/>
<path d="M385.951 737.459V741H0.241211V547.71C20.967 552.751 52.5591 560.232 92.4529 569.073C134.661 578.422 225.047 632.461 295.388 677.494C337.954 704.752 373.18 728.706 385.951 737.459Z" fill="#707CE8"/>
<path d="M277.336 698.461L216.513 653.123L209.076 651.01L167.578 696.945L207.137 650.459L205.215 649.912L186.166 669.364L202.929 649.263L200.644 648.613L161.422 673.304L198.077 647.884L195.707 647.211L123.854 681.972L193.362 646.544L185.734 644.376C185.734 644.376 178.038 643.809 162.487 640.678C162.485 640.678 162.483 640.677 162.48 640.677C161.71 640.677 121.12 651.744 121.12 651.744C121.12 651.744 155.439 639.287 155.079 639.213C154.01 638.99 152.929 638.759 151.841 638.522C151.84 638.522 151.838 638.522 151.837 638.522C151.193 638.522 107.107 657.883 107.107 657.883C107.107 657.883 146.042 637.92 149.082 637.92C149.119 637.92 149.152 637.923 149.178 637.93C149.62 638.031 149.818 638.077 149.824 638.077C149.855 638.077 142.245 636.288 139.453 635.548C139.452 635.547 139.45 635.547 139.448 635.547C138.852 635.547 114.349 652.422 114.349 652.422C114.349 652.422 137.287 634.964 136.855 634.844C128.724 632.589 120.919 629.927 114.678 626.851C113.787 626.412 112.787 625.918 111.684 625.37V601.369C118.955 606.383 129.372 613.577 150.541 618.467C184.959 626.418 210.903 631.146 219.355 637.45C227.807 643.754 253.969 672.122 265.632 683.154C268.286 685.663 273.496 690.048 280.206 695.321C279.249 696.376 278.292 697.422 277.336 698.461V698.461ZM0.241211 639.105V564.875C6.31856 570.643 13.2073 574.386 20.866 574.386C29.4256 574.392 38.0694 575.706 46.3673 577.679V592.615C28.7694 583.757 11.7546 575.18 0.241211 569.374V624.842V639.105V639.105ZM107.427 623.255C98.8532 618.986 86.4868 612.787 72.8904 605.956V586.069C85.3781 590.786 95.1902 595.224 99.8646 595.615C102.481 595.834 104.822 596.911 107.427 598.525V623.255ZM68.6333 603.816C62.7419 600.856 56.6703 597.801 50.6244 594.759V578.754C56.9425 580.441 63.0104 582.453 68.6333 584.493V603.816Z" fill="#5E73BE"/>
<path d="M334.745 741H0.241211V569.353C29.9186 584.295 96.1889 617.643 114.62 626.71C120.858 629.779 128.659 632.436 136.786 634.686C137.218 634.806 114.291 652.228 114.291 652.228C114.291 652.228 138.949 635.274 139.383 635.389C142.618 636.244 152.322 638.507 149.102 637.766C146.926 637.264 107.053 657.677 107.053 657.677C107.053 657.677 151.332 638.262 151.764 638.357C152.852 638.593 153.932 638.823 155.001 639.046C155.36 639.12 121.059 651.551 121.059 651.551C121.059 651.551 161.957 640.418 162.405 640.508C177.948 643.633 185.64 644.199 185.64 644.199L193.265 646.362L123.791 681.716L195.608 647.028L197.977 647.699L161.34 673.066L200.543 648.427L202.827 649.075L186.072 669.135L205.111 649.723L207.032 650.269L167.493 696.657L208.97 650.818L216.403 652.927L334.745 741" fill="#495B9B"/>
<path d="M69.0562 612.327H73.3019V556.465H69.0562V612.327Z" fill="#1A2374"/>
<path d="M46.8501 605.86H51.0959V568.17H46.8501V605.86Z" fill="#1A2374"/>
<path d="M64.77 572L43.5304 571.297L35.5194 571.033L27 570.755L28.9825 549.741L38.7142 531.756L42.436 524.871C42.2591 525.089 40.8662 526.799 38.939 529.136C36.3375 532.289 32.7705 536.6 29.9037 539.95L34.344 492.883L42.2038 475.752L34.9372 486.587L40.5161 427.439L45.9329 418.03L40.8625 423.779L44.8016 382L49.2603 424.435L50.3032 434.371L50.3069 434.392L51.7182 447.832L49.7025 446.498L47.0199 444.72L45.9329 444.001L46.9831 445.061L49.6399 447.744L51.9577 450.086L58.4578 511.922L46.9647 501.883L44.9048 500.084L46.9131 502.896L59.3348 520.291L64.77 572" fill="#192F7D"/>
<path d="M35.5194 571.034L27 570.755L28.9825 549.741L38.7142 531.757C37.384 547.337 36.308 560.82 35.5194 571.034" fill="#807CAF"/>
<path d="M107.804 644.619H112.049V588.756H107.804V644.619Z" fill="#1A2374"/>
<path d="M95.72 558.15L85.319 558.597L80.2911 558.815L61.7971 559.615L53 560L56.4637 529.161L65.2973 510.497L72.1284 496.062L65.6128 506.524L57.5529 519.468L64.2744 459.608C66.3732 456.346 68.7311 452.695 70.8697 449.386C74.3832 443.948 77.299 439.434 77.4916 439.138L71.1387 446.82L64.8556 454.425L71.7298 393.204L76.8108 387.418L72.0154 390.664L77.1496 344.933L79.7266 322L82.4165 361.721V361.732L86.2721 418.636L84.0437 417.929L81.8088 417.217L84.0836 418.989L86.4182 420.802L89.8221 471.057L85.6079 467.712L79.4177 462.804L85.7009 471.634L90.297 478.095L95.72 558.15Z" fill="#445387"/>
<path d="M80.2911 558.815L61.7971 559.615L53 560L56.4637 529.161L65.2973 510.497L72.1284 496.062L65.6128 506.524L57.5529 519.468L64.2744 459.608C66.3732 456.346 68.7311 452.695 70.8697 449.386C74.3832 443.948 77.299 439.434 77.4916 439.138L71.1387 446.82L64.8556 454.425L71.7298 393.204L76.8108 387.417L72.0154 390.664L77.1496 344.933C78.5344 407.883 80.0719 512.731 80.2911 558.815" fill="#2A2F5E"/>
<path d="M95.7199 558.15L85.3188 558.597C86.6871 539.244 86.5243 506.597 85.7008 471.634L90.2969 478.095L95.7199 558.15" fill="#8894D1"/>
<path d="M131.73 607.57L123.779 607.112L94.4082 605.416L96.3624 583.994L109.635 558.626C109.409 558.911 102.258 567.98 97.2704 574.014L101.647 526.033L109.395 508.57L102.232 519.61L107.731 459.32L109.5 456.142L113.067 449.724L109.206 454.256L108.069 455.589L108.567 450.146L111.956 413L118.773 480.109L113.067 476.204L119.009 482.406L125.413 545.441L120.662 541.152L112.057 533.375L121.2 546.617L126.281 553.973L131.73 607.57" fill="#454487"/>
<path d="M125.413 545.441L120.662 541.152C117.873 513.555 113.699 483.424 109.5 456.142C109.399 455.51 109.304 454.883 109.206 454.256C108.992 452.875 108.778 451.505 108.567 450.146L111.956 413L118.774 480.109L113.067 476.204L119.01 482.406L125.413 545.441Z" fill="#888BD1"/>
<path d="M123.779 607.112C124.589 591.383 123.441 570.072 121.2 546.617L126.281 553.973L131.73 607.57L123.779 607.112" fill="#888FD1"/>
<path d="M0.241211 690.999V639.114L46.8429 605.921H51.1439L0.241211 690.999Z" fill="#1B197D"/>
<path d="M14.4903 716.373H0.241211V691.909L68.9835 612.638H73.2624L14.4903 716.373Z" fill="#1B197D"/>
<path d="M64.6691 716.111H42.9199L107.746 640.258H111.991L64.6691 716.111Z" fill="#1B197D"/>
<path d="M365.757 422.719H349.587V477.074H365.757V422.719Z" fill="#ADBBDF"/>
<path d="M362.042 451.773H353.302V477.073H362.042V451.773Z" fill="#293B6D"/>
<path d="M365.758 422.72H349.586L357.673 402.582L365.758 422.72Z" fill="#ADBBDF"/>
<path d="M386.093 402.583V402.582H357.673L365.758 422.72V477.07H378.006L378.006 477.066V477.073H394.177V422.721L394.177 422.72L386.093 402.583Z" fill="#585789"/>
<path d="M359.645 420.458L357.466 415.03L355.286 420.458H355.285V430.273H359.645V420.458Z" fill="#293B6D"/>
<path d="M289.216 314.867L281.912 332.144V413.992H289.216H296.518V332.144L289.216 314.867Z" fill="#9796C6"/>
<path d="M312.391 413.992H296.519V332.144H312.391V413.992Z" fill="#C1C0FF"/>
<path d="M305.089 314.867H289.216L296.518 332.144H312.392L305.089 314.867Z" fill="#293B6D"/>
<path d="M289.878 340.588H287.709V326.243H289.878V340.588Z" fill="#FFB531"/>
<path d="M286.426 359.033H283.895V352.326H286.426V359.033Z" fill="#FFB531"/>
<path d="M293.319 359.033H290.787V352.326H293.319V359.033Z" fill="#FFB531"/>
<path d="M379.613 520.788H223.941L254.126 445.601C256.489 439.716 259.694 436.411 263.035 436.411H340.522C343.864 436.411 347.069 439.717 349.431 445.603L379.613 520.788Z" fill="#131166"/>
<path d="M290.531 423.815C290.517 417.318 288.399 412.06 285.787 412.06C285.01 412.06 284.277 412.529 283.63 413.354C282.557 408.924 280.606 405.961 278.378 405.961C276.058 405.961 274.039 409.173 272.999 413.908C272.887 413.921 272.777 413.954 272.668 413.989C272.046 413.139 271.332 412.654 270.572 412.654C268.257 412.654 266.368 417.14 266.217 422.809C263.248 423.266 260.875 429.197 260.716 436.606H295.635C295.107 430.211 293.093 425.169 290.531 423.815Z" fill="#2C2B58"/>
<path d="M295.646 394.316V436.607H276.862V394.316L286.254 384.117L295.646 394.316Z" fill="#ADBBDF"/>
<path d="M308.832 436.606H295.646V394.316H308.832V436.606Z" fill="#9796C6"/>
<path d="M286.254 384.117H299.44L308.832 394.315H295.647L286.254 384.117Z" fill="#293B6D"/>
<path d="M288.761 436.606H282.981V418.16H288.761V436.606Z" fill="#293B6D"/>
<path d="M301.361 408.949H298.535V403.831H301.361V408.949Z" fill="#F97F23"/>
<path d="M306.737 408.949H303.91V403.831H306.737V408.949Z" fill="#293B6D"/>
<path d="M301.361 420.423H298.535V415.306H301.361V420.423Z" fill="#293B6D"/>
<path d="M306.737 420.423H303.91V415.306H306.737V420.423Z" fill="#293B6D"/>
<path d="M326.505 351.814H308.731V436.606H326.505V351.814Z" fill="#C6C7EB"/>
<path d="M326.505 393.026H308.731V396.456H326.505V393.026Z" fill="#C1C0FF"/>
<path d="M336.296 351.857V436.604H326.505V351.857L331.4 341.503L336.296 351.857Z" fill="#C1C0FF"/>
<path d="M331.4 341.503L326.525 351.816H308.73L313.606 341.503H331.4Z" fill="#293B6D"/>
<path d="M334.269 436.604H328.714V418.686H334.269V436.604Z" fill="#293B6D"/>
<path d="M313.291 374.635H311.083V368.636H313.291V374.635Z" fill="#F97F23"/>
<path d="M324.002 374.635H321.793V368.636H324.002V374.635Z" fill="#F97F23"/>
<path d="M318.438 374.635H316.229V368.636H318.438V374.635Z" fill="#F97F23"/>
<path d="M313.291 385.706H311.083V379.708H313.291V385.706Z" fill="#293B6D"/>
<path d="M324.002 385.706H321.793V379.708H324.002V385.706Z" fill="#293B6D"/>
<path d="M318.438 385.706H316.229V379.708H318.438V385.706Z" fill="#293B6D"/>
<path d="M313.291 411.029H311.083V405.03H313.291V411.029Z" fill="#293B6D"/>
<path d="M324.002 411.029H321.793V405.03H324.002V411.029Z" fill="#293B6D"/>
<path d="M318.438 411.029H316.229V405.03H318.438V411.029Z" fill="#293B6D"/>
<path d="M313.291 422.101H311.083V416.101H313.291V422.101Z" fill="#293B6D"/>
<path d="M324.002 422.101H321.793V416.101H324.002V422.101Z" fill="#293B6D"/>
<path d="M318.438 422.101H316.229V416.101H318.438V422.101Z" fill="#293B6D"/>
<path d="M395.718 453.952H371.11V518.293H395.718V453.952Z" fill="#C6C7EB"/>
<path d="M409.273 454.011V518.291H395.718V454.011L402.496 439.676L409.273 454.011Z" fill="#C1C0FF"/>
<path d="M402.496 439.676L395.745 453.954H371.109L377.859 439.676H402.496Z" fill="#293B6D"/>
<path d="M379.566 474.644H375.294V466.892H379.566V474.644Z" fill="#293B6D"/>
<path d="M390.491 474.644H386.219V466.892H390.491V474.644Z" fill="#293B6D"/>
<path d="M241.495 520.503H225.079V430.747H241.495V520.503Z" fill="#9796C6"/>
<path d="M241.495 520.503H252.68V430.747H241.495V520.503Z" fill="#C6C7EB"/>
<path d="M241.495 454.904H225.079V451.737H241.495V454.904Z" fill="#ADBBDF"/>
<path d="M241.495 454.904H252.68V451.737H241.495V454.904Z" fill="#9796C6"/>
<path d="M227.647 437.281H229.635V446.214H227.647V437.281Z" fill="#F97F23"/>
<path d="M236.859 437.281H238.847V446.214H236.859V437.281Z" fill="#293B6D"/>
<path d="M232.277 437.281H234.265V446.214H232.277V437.281Z" fill="#F97F23"/>
<path d="M241.495 479.66H225.079V476.493H241.495V479.66Z" fill="#ADBBDF"/>
<path d="M241.495 479.66H252.68V476.493H241.495V479.66Z" fill="#9796C6"/>
<path d="M227.647 462.039H229.635V470.971H227.647V462.039Z" fill="#293B6D"/>
<path d="M236.859 462.039H238.847V470.971H236.859V462.039Z" fill="#F97F23"/>
<path d="M232.277 462.039H234.265V470.971H232.277V462.039Z" fill="#293B6D"/>
<path d="M241.495 505.72H225.079V502.552H241.495V505.72Z" fill="#ADBBDF"/>
<path d="M241.495 505.72H252.68V502.552H241.495V505.72Z" fill="#9796C6"/>
<path d="M227.647 488.098H229.635V497.031H227.647V488.098Z" fill="#293B6D"/>
<path d="M236.859 488.098H238.847V497.031H236.859V488.098Z" fill="#293B6D"/>
<path d="M232.277 488.098H234.265V497.031H232.277V488.098Z" fill="#F97F23"/>
<path d="M265.121 522.122H250.301V441.088H265.121V522.122Z" fill="#ADBBDF"/>
<path d="M265.121 522.122H275.219V441.088H265.121V522.122Z" fill="#9796C6"/>
<path d="M255.673 453.708H253.056V447.203H255.673V453.708Z" fill="#293B6D"/>
<path d="M261.671 453.708H259.055V447.203H261.671V453.708Z" fill="#293B6D"/>
<path d="M255.673 468.737H253.056V462.232H255.673V468.737Z" fill="#F97F23"/>
<path d="M261.671 468.737H259.055V462.232H261.671V468.737Z" fill="#293B6D"/>
<path d="M255.673 483.764H253.056V477.259H255.673V483.764Z" fill="#293B6D"/>
<path d="M261.671 483.764H259.055V477.259H261.671V483.764Z" fill="#293B6D"/>
<path d="M255.673 498.793H253.056V492.288H255.673V498.793Z" fill="#293B6D"/>
<path d="M261.671 498.793H259.055V492.288H261.671V498.793Z" fill="#293B6D"/>
<path d="M255.673 513.822H253.056V507.317H255.673V513.822Z" fill="#293B6D"/>
<path d="M261.671 513.822H259.055V507.317H261.671V513.822Z" fill="#293B6D"/>
<path d="M405.667 517.142H397.634C393.435 517.142 389.409 512.988 386.441 505.595L379.228 487.629C375.589 478.566 370.655 473.475 365.51 473.475H310.989C306.063 473.475 302.109 483.6 302.245 495.863L302.264 497.575C302.406 510.349 298.287 520.897 293.156 520.897H223.616C221.511 520.897 219.494 522.979 218.005 526.685L215.057 534.036C213.841 537.059 212.196 538.757 210.478 538.757H207.194C204.679 538.757 202.64 543.836 202.64 550.1V553.715H302.887V553.716H416.795V544.861C416.795 529.553 411.813 517.142 405.667 517.142Z" fill="#2C2B58"/>
<path d="M357.028 527.913H380.242C381.856 527.913 383.403 529.572 384.544 532.524L386.959 538.771C388.093 541.704 389.63 543.35 391.233 543.35H409.571C411.35 543.35 413.057 545.179 414.315 548.434L416.452 553.963H354.542L357.028 527.913Z" fill="#2C2B58"/>
<path d="M394.545 503.824H393.665V543.142H394.545V503.824Z" fill="#293B6D"/>
<path d="M399.335 491.674C399.526 490.094 399.615 488.398 399.58 486.636C399.439 479.457 397.194 473.576 394.421 473.126C391.209 472.604 388.541 479.188 388.541 487.385C388.541 488.848 388.626 490.258 388.784 491.586C389.195 495.042 389.101 498.792 388.436 501.971C387.9 504.53 387.618 507.494 387.676 510.642C387.828 518.949 390.404 525.771 393.611 526.343C397.349 527.01 400.461 519.363 400.461 509.837C400.461 507.007 400.186 504.342 399.702 502.012C399.045 498.851 398.918 495.097 399.335 491.674Z" fill="#2E84AF"/>
<path d="M278.724 451.405H269.759V553.963H278.724V451.405Z" fill="#C1C0FF"/>
<path d="M269.76 553.963V451.405H259.593V488.086H251.394V553.963H269.76Z" fill="#C6C7EB"/>
<path d="M267.488 458.776H261.726V456.472H267.488V458.776Z" fill="#293B6D"/>
<path d="M267.488 471.522H261.726V469.219H267.488V471.522Z" fill="#293B6D"/>
<path d="M267.488 484.27H261.726V481.966H267.488V484.27Z" fill="#F97F23"/>
<path d="M267.488 497.016H253.649V494.712H267.488V497.016Z" fill="#293B6D"/>
<path d="M267.488 509.761H253.649V507.458H267.488V509.761Z" fill="#FFB531"/>
<path d="M267.488 522.507H253.649V520.204H267.488V522.507Z" fill="#293B6D"/>
<path d="M267.488 535.253H253.649V532.949H267.488V535.253Z" fill="#FFB531"/>
<path d="M267.488 548H253.649V545.697H267.488V548Z" fill="#293B6D"/>
<path d="M272.2 514.027H271.3V554.261H272.2V514.027Z" fill="#293B6D"/>
<path d="M278.503 518.368C278.503 528.016 275.48 535.838 271.75 535.838C268.02 535.838 264.997 528.016 264.997 518.368C264.997 508.72 268.02 500.897 271.75 500.897C275.48 500.897 278.503 508.72 278.503 518.368Z" fill="#293B6D"/>
<path d="M221.676 493.021H220.749V534.461H221.676V493.021Z" fill="#293B6D"/>
<path d="M228.245 511.503L224.726 502.401H226.881C227.984 502.401 228.536 498.953 227.757 496.936L224.194 487.721H225.81C226.705 487.721 227.153 484.923 226.52 483.288L221.922 471.392C221.53 470.377 220.894 470.377 220.502 471.392L215.904 483.288C215.271 484.923 215.719 487.721 216.614 487.721H218.23L214.667 496.936C213.888 498.953 214.44 502.401 215.542 502.401H217.698L214.179 511.503C213.342 513.67 213.935 517.375 215.12 517.375H227.304C228.489 517.375 229.083 513.67 228.245 511.503Z" fill="#233281"/>
<path d="M201.484 507.489H200.551V553.896H201.484V507.489Z" fill="#293B6D"/>
<path d="M208.091 526.077L204.552 516.923H206.72C207.828 516.923 208.384 513.455 207.6 511.427L204.017 502.159H205.642C206.542 502.159 206.992 499.346 206.356 497.701L201.732 485.737C201.337 484.717 200.698 484.717 200.304 485.737L195.679 497.701C195.043 499.346 195.494 502.159 196.393 502.159H198.018L194.436 511.427C193.652 513.455 194.207 516.923 195.316 516.923H197.483L193.945 526.077C193.102 528.256 193.699 531.984 194.891 531.984H207.145C208.336 531.984 208.933 528.256 208.091 526.077Z" fill="#233281"/>
<path d="M295.951 425.238H280.362V553.963H295.951V425.238Z" fill="#C6C7EB"/>
<path d="M303.504 440.211L295.951 425.238V553.963H303.504V440.211Z" fill="#C1C0FF"/>
<path d="M291.113 442.31H283.146V438.15H291.113V442.31Z" fill="#F97F23"/>
<path d="M291.113 453.006H283.146V448.846H291.113V453.006Z" fill="#293B6D"/>
<path d="M291.113 463.703H283.146V459.543H291.113V463.703Z" fill="#F97F23"/>
<path d="M291.113 474.356H283.146V470.195H291.113V474.356Z" fill="#293B6D"/>
<path d="M291.113 485.052H283.146V480.892H291.113V485.052Z" fill="#293B6D"/>
<path d="M291.113 495.749H283.146V491.588H291.113V495.749Z" fill="#F97F23"/>
<path d="M291.113 506.446H283.146V502.286H291.113V506.446Z" fill="#293B6D"/>
<path d="M291.113 517.024H283.146V512.864H291.113V517.024Z" fill="#F97F23"/>
<path d="M291.113 527.722H283.146V523.561H291.113V527.722Z" fill="#293B6D"/>
<path d="M291.113 538.417H283.146V534.257H291.113V538.417Z" fill="#293B6D"/>
<path d="M305.083 540.935C305.07 534.316 302.992 528.961 300.43 528.961C299.668 528.961 298.949 529.438 298.315 530.278C297.262 525.765 295.35 522.748 293.164 522.748C290.888 522.748 288.908 526.019 287.888 530.842C287.778 530.857 287.671 530.889 287.564 530.925C286.953 530.061 286.253 529.566 285.508 529.566C283.237 529.566 281.385 534.135 281.236 539.91C278.325 540.376 275.997 546.416 275.841 553.963H310.089C309.571 547.451 307.596 542.313 305.083 540.935Z" fill="#232241"/>
<path d="M327.527 385.89V387.729H319.244V385.89C319.244 379.638 317.285 374.57 314.868 374.57H323.154C325.568 374.57 327.527 379.638 327.527 385.89Z" fill="#C6C7EB"/>
<path d="M322.19 399.719H307.606V452.139H322.19V399.719Z" fill="#9796C6"/>
<path d="M322.19 399.719H328.554V452.139H322.19V399.719Z" fill="#C6C7EB"/>
<path d="M322.189 452.141H307.606V399.721H322.189V452.141Z" fill="#9796C6"/>
<path d="M322.19 439.568H307.605V452.14H322.19H328.553V439.568H322.19Z" fill="#9796C6"/>
<path d="M322.189 452.141H307.606V439.567H322.189V452.141Z" fill="#293B6D"/>
<path d="M323.126 443.615H305.222V553.962H323.126V443.615Z" fill="#9796C6"/>
<path d="M323.126 443.615H330.937V553.962H323.126V443.615Z" fill="#C6C7EB"/>
<path d="M312.207 463.256H309.387V457.078H312.207V463.256Z" fill="#FFB531"/>
<path d="M319.391 463.256H316.572V457.078H319.391V463.256Z" fill="#293B6D"/>
<path d="M312.207 482.613H309.387V476.435H312.207V482.613Z" fill="#293B6D"/>
<path d="M319.391 482.613H316.572V476.435H319.391V482.613Z" fill="#293B6D"/>
<path d="M312.207 501.971H309.387V495.792H312.207V501.971Z" fill="#FFB531"/>
<path d="M319.391 501.971H316.572V495.792H319.391V501.971Z" fill="#293B6D"/>
<path d="M312.207 521.327H309.387V515.148H312.207V521.327Z" fill="#293B6D"/>
<path d="M319.391 521.327H316.572V515.148H319.391V521.327Z" fill="#293B6D"/>
<path d="M312.207 540.684H309.387V534.505H312.207V540.684Z" fill="#293B6D"/>
<path d="M319.391 540.684H316.572V534.505H319.391V540.684Z" fill="#293B6D"/>
<path d="M312.207 414.671H309.387V408.492H312.207V414.671Z" fill="#F97F23"/>
<path d="M319.391 414.671H316.572V408.492H319.391V414.671Z" fill="#293B6D"/>
<path d="M312.207 434.028H309.387V427.849H312.207V434.028Z" fill="#293B6D"/>
<path d="M319.391 434.028H316.572V427.849H319.391V434.028Z" fill="#293B6D"/>
<path d="M319.243 387.727V385.889C319.243 379.64 317.285 374.574 314.869 374.574C312.453 374.574 310.495 379.64 310.495 385.889V387.727H308.252V399.719H321.486V387.727H319.243Z" fill="#293B6D"/>
<path d="M327.555 387.726H321.473V399.719H327.555V387.726Z" fill="#C6C7EB"/>
<path d="M351.262 502.868V482.105L341.838 457.726L332.414 482.105V553.962H346.082V553.963H359.701V502.868H351.262Z" fill="#8792BB"/>
<path d="M314.742 482.104H332.414V553.963H314.742V482.104Z" fill="#ADBBDF"/>
<path d="M324.166 457.726L314.742 482.104H332.414L341.838 457.726H324.166Z" fill="#293B6D"/>
<path d="M317.8 491.606H319.475V495.94H317.8V491.606Z" fill="#F97F23"/>
<path d="M322.472 491.606H324.148V495.94H322.472V491.606Z" fill="#293B6D"/>
<path d="M327.144 491.606H328.82V495.94H327.144V491.606Z" fill="#293B6D"/>
<path d="M317.8 503.915H319.475V508.25H317.8V503.915Z" fill="#293B6D"/>
<path d="M322.472 503.915H324.148V508.25H322.472V503.915Z" fill="#F97F23"/>
<path d="M327.144 503.915H328.82V508.25H327.144V503.915Z" fill="#293B6D"/>
<path d="M317.8 516.224H319.475V520.559H317.8V516.224Z" fill="#F97F23"/>
<path d="M322.472 516.224H324.148V520.559H322.472V516.224Z" fill="#293B6D"/>
<path d="M327.144 516.224H328.82V520.559H327.144V516.224Z" fill="#F97F23"/>
<path d="M317.8 528.534H319.475V532.868H317.8V528.534Z" fill="#293B6D"/>
<path d="M322.472 528.534H324.148V532.868H322.472V528.534Z" fill="#F97F23"/>
<path d="M327.144 528.534H328.82V532.868H327.144V528.534Z" fill="#293B6D"/>
<path d="M317.8 540.843H319.475V545.177H317.8V540.843Z" fill="#F97F23"/>
<path d="M322.472 540.843H324.148V545.177H322.472V540.843Z" fill="#F97F23"/>
<path d="M327.144 540.843H328.82V545.177H327.144V540.843Z" fill="#293B6D"/>
<path d="M344.99 515.732H344.12V554.596H344.99V515.732Z" fill="#293B6D"/>
<path d="M351.078 519.925C351.078 529.246 348.158 536.801 344.555 536.801C340.952 536.801 338.032 529.246 338.032 519.925C338.032 510.605 340.952 503.05 344.555 503.05C348.158 503.05 351.078 510.605 351.078 519.925Z" fill="#20283E"/>
<path d="M250.629 553.962H203.664L210.128 539.526C211.843 535.695 214.035 533.588 216.299 533.588H223.272C224.699 533.588 226.066 535.058 227.077 537.663L228.369 541.013C229.351 543.546 230.68 544.975 232.067 544.975H244.493C246.198 544.975 247.834 546.724 249.037 549.844L250.629 553.962Z" fill="#131168"/>
<path d="M387.744 455.17L382.027 469.654V538.268H387.744H393.461V469.654L387.744 455.17Z" fill="#899AD4"/>
<path d="M405.886 538.269H393.461V469.654H405.886V538.269Z" fill="#ADBBDF"/>
<path d="M400.17 455.17H387.744L393.46 469.654H405.886L400.17 455.17Z" fill="#293B6D"/>
<path d="M388.262 476.732H386.564V464.707H388.262V476.732Z" fill="#293B6D"/>
<path d="M385.56 492.195H383.578V486.572H385.56V492.195Z" fill="#293B6D"/>
<path d="M390.956 492.195H388.974V486.572H390.956V492.195Z" fill="#293B6D"/>
<path d="M396.933 479.875H394.951V474.252H396.933V479.875Z" fill="#FFB531"/>
<path d="M401.416 479.875H399.434V474.252H401.416V479.875Z" fill="#293B6D"/>
<path d="M401.416 492.823H399.434V487.201H401.416V492.823Z" fill="#293B6D"/>
<path d="M397.46 493.505H395.478V487.882H397.46V493.505Z" fill="#293B6D"/>
<path d="M392.778 521.774V557.227H378.073V521.774L385.425 513.224L392.778 521.774Z" fill="#ADBBDF"/>
<path d="M403.1 557.227H392.778V521.773H403.1V557.227Z" fill="#C6C7EB"/>
<path d="M385.426 513.224H395.748L403.1 521.773H392.778L385.426 513.224Z" fill="#293B6D"/>
<path d="M387.388 557.227H382.864V541.763H387.388V557.227Z" fill="#293B6D"/>
<path d="M397.252 534.041H395.039V529.75H397.252V534.041Z" fill="#293B6D"/>
<path d="M401.46 534.041H399.247V529.75H401.46V534.041Z" fill="#293B6D"/>
<path d="M397.252 543.66H395.039V539.37H397.252V543.66Z" fill="#293B6D"/>
<path d="M401.46 543.66H399.247V539.37H401.46V543.66Z" fill="#293B6D"/>
<path d="M417.777 486.026H403.09V557.253H417.777V486.026Z" fill="#899AD4"/>
<path d="M406.59 535.785H404.862V530.756H406.59V535.785Z" fill="#293B6D"/>
<path d="M406.701 514.039H404.972V509.009H406.701V514.039Z" fill="#293B6D"/>
<path d="M406.701 494.275H404.972V489.246H406.701V494.275Z" fill="#F97F23"/>
<path d="M414.975 535.785H413.246V530.756H414.975V535.785Z" fill="#FFB531"/>
<path d="M415.086 514.039H413.356V509.009H415.086V514.039Z" fill="#F97F23"/>
<path d="M415.086 494.275H413.356V489.246H415.086V494.275Z" fill="#293B6D"/>
<path d="M410.619 535.785H408.89V530.756H410.619V535.785Z" fill="#293B6D"/>
<path d="M410.73 514.039H409V509.009H410.73V514.039Z" fill="#FFB531"/>
<path d="M410.73 494.275H409V489.246H410.73V494.275Z" fill="#293B6D"/>
<path d="M406.59 545.066H404.862V540.037H406.59V545.066Z" fill="#FFB531"/>
<path d="M406.701 523.32H404.972V518.29H406.701V523.32Z" fill="#F97F23"/>
<path d="M406.701 503.556H404.972V498.526H406.701V503.556Z" fill="#293B6D"/>
<path d="M414.975 545.066H413.246V540.037H414.975V545.066Z" fill="#293B6D"/>
<path d="M415.086 523.32H413.356V518.29H415.086V523.32Z" fill="#293B6D"/>
<path d="M415.086 503.556H413.356V498.526H415.086V503.556Z" fill="#293B6D"/>
<path d="M410.619 545.066H408.89V540.037H410.619V545.066Z" fill="#293B6D"/>
<path d="M410.73 523.32H409V518.29H410.73V523.32Z" fill="#293B6D"/>
<path d="M410.73 503.556H409V498.526H410.73V503.556Z" fill="#F97F23"/>
<path d="M353.288 93.2279C353.288 93.2279 350.603 90.2526 349.297 92.9715C349.297 92.9715 351.804 92.2707 353.28 96.6768C354.775 92.4615 357.279 93.4843 357.279 93.4843C355.986 90.5984 353.288 93.2279 353.288 93.2279Z" fill="black"/>
<path d="M242.854 334.05C242.854 334.05 237.4 325.468 234.739 333.522C234.739 333.522 239.84 331.324 242.831 344.174C245.879 331.717 250.97 334.579 250.97 334.579C248.346 326.181 242.854 334.05 242.854 334.05Z" fill="black"/>
<path d="M183.812 245.168C183.812 245.168 178.358 236.586 175.697 244.64C175.697 244.64 180.798 242.442 183.789 255.292C186.838 242.836 191.928 245.697 191.928 245.697C189.304 237.299 183.812 245.168 183.812 245.168Z" fill="black"/>
<path opacity="0.320007" d="M136.888 3.01515C136.888 3.01515 129.809 18.1781 126.571 20.3929C123.333 22.6086 124.722 23.114 121.946 24.2471C119.169 25.3801 119.01 22.168 115.772 24.3837C112.534 26.5993 110.218 26.1144 109.454 31.4908C108.69 36.8665 114.396 33.5247 114.094 38.3547C113.792 43.1847 109.623 41.6692 108.391 44.3767C107.161 47.0833 112.717 46.9603 104.387 50.3602C96.0571 53.7601 97.7414 44.0762 92.5103 55.9826C87.279 67.8883 87.4305 65.7418 82.1866 68.5372C76.943 71.3326 72.4685 72.504 75.565 79.402C78.6614 86.3009 92.0873 84.9321 93.0186 88.6625C93.9498 92.3937 85.3091 94.1927 79.5978 93.7829C73.8864 93.3739 70.4825 87.219 63.3924 94.242C56.3022 101.266 55.6917 106.103 48.5921 106.26C41.4924 106.417 39.7933 105.383 27.7608 109.936C15.7283 114.49 17.0359 109.637 9.08578 110.35C1.13562 111.062 0.179396 110.011 0.179396 110.011L0.179646 3.02025L136.888 3.01515Z" fill="#BDBCE4"/>
<path opacity="0.320007" d="M119.573 146.555C119.573 146.555 126.421 149.984 137.603 150.582C148.784 151.18 160.647 148.826 169.775 150.325C178.904 151.822 190.764 146.869 198.749 145.922C206.734 144.975 218.599 144.88 219.969 145.752C221.339 146.625 229.552 145.013 229.552 145.013C229.552 145.013 222.017 140.436 214.715 140.053C207.413 139.669 201.482 140.6 196.915 137.104C192.348 133.607 185.886 136.75 183.3 137.212C180.715 137.675 173.19 142.593 165.658 140.887C158.127 139.18 148.772 139.697 148.772 139.697L119.573 146.555Z" fill="#BDBCE4"/>
<path opacity="0.320007" d="M322.33 107.133C322.33 107.133 330.537 99.8173 341.803 100.702C353.069 101.587 358.706 106.036 364.098 100.433C369.49 94.831 371.601 93.0475 378.171 92.1116C384.741 91.1757 386.154 96.0227 393.43 96.4061C400.706 96.7896 417.6 93.5628 417.6 93.5628L417.645 138.171C417.645 138.171 406.845 133.841 399.099 133.019C391.354 132.198 389.006 131.775 382.195 126.088C375.383 120.401 376.325 123.043 366.231 120.915C356.137 118.788 359.661 122.186 349.797 115.472C339.934 108.759 326.551 104.008 322.33 107.133Z" fill="#BDBCE4"/>
<path opacity="0.320007" d="M349.661 61.174C349.661 61.174 361.78 54.4522 365.894 50.4444C370.008 46.4366 373.215 50.3858 378.022 52.5556C382.829 54.7255 386.95 57.4149 391.98 54.6885C397.011 51.9621 400.904 55.4642 404.108 56.7635C407.313 58.0628 417.608 57.5388 417.608 57.5388L417.619 69.0218C417.619 69.0218 397.942 67.4126 392.907 66.1279C387.872 64.8432 387.42 70.1467 379.407 64.9109C371.394 59.6752 372.534 55.7636 365.216 59.0983C357.898 62.4331 349.661 61.174 349.661 61.174Z" fill="#BDBCE4"/>
<path d="M368.07 572.779H230.143C232.649 572.779 234.681 578.405 234.681 585.342C234.681 592.261 232.661 597.874 230.166 597.907H224.548C222.454 597.907 220.756 602.607 220.756 608.4C220.756 614.201 222.454 618.899 224.548 618.899L280.05 618.936C281.683 618.936 283.007 622.603 283.007 627.124C283.007 631.647 281.683 635.312 280.05 635.312H274.764H265.169C263.789 635.312 262.67 638.409 262.67 642.23C262.67 646.05 263.789 649.149 265.169 649.149L314.791 649.006C316.173 649.006 317.293 645.904 317.293 642.077C317.293 638.76 316.45 635.991 315.325 635.312H339.764H351.119C352.753 635.312 354.077 631.647 354.077 627.124C354.077 622.603 352.753 618.936 351.119 618.936H339.764L336.02 618.899C333.927 618.899 332.229 614.201 332.229 608.4C332.229 602.627 333.915 597.944 335.998 597.91H368.07C370.575 597.91 372.608 592.283 372.608 585.342C372.608 578.405 370.575 572.779 368.07 572.779" fill="#495B9B"/>
<path d="M305.109 625.412H286.069C284.632 625.412 283.467 621.828 283.467 617.406C283.467 613.02 282.32 609.465 280.898 609.408H279.097C268.84 609.408 258.605 609.408 248.266 609.408C247.141 609.408 246.228 606.604 246.228 603.142C246.228 599.679 247.141 596.873 248.266 596.873H252.592C254.404 596.873 255.215 592.96 255.215 590.073C255.215 585.651 256.379 582.067 257.817 582.067C270.261 582.067 306.007 582.067 318.273 582.067C319.605 582.067 320.684 585.388 320.684 589.486C320.684 593.585 319.605 596.907 318.273 596.907C310.574 596.907 290.894 596.939 290.894 596.939C289.776 596.939 288.87 599.726 288.87 603.168C288.87 606.61 289.776 609.399 290.894 609.399H304.501H305.109C306.547 609.399 307.711 612.983 307.711 617.406C307.711 621.828 306.547 625.412 305.109 625.412" fill="#707CE8"/>
<path d="M315.417 198.593C316.928 198.593 317.559 194.612 316.344 192.756C314.751 190.325 312.781 188.887 310.648 188.887C310.532 188.887 310.417 188.89 310.302 188.899C307.907 189.076 305.635 186.946 303.947 183.431C302.921 181.293 301.661 179.637 300.253 178.638C298.818 177.62 297.634 175.473 296.893 172.74C295.251 166.689 292.117 162.598 288.518 162.598C284.496 162.598 281.054 167.709 279.628 174.959C279.132 177.482 277.976 179.184 276.658 179.181H276.572C273.309 179.181 270.426 182.545 268.693 187.687C267.767 190.432 266.275 192.127 264.655 192.122H264.627C264.486 192.122 264.346 192.129 264.207 192.141C262.19 192.32 262.289 198.593 264.308 198.593H315.417Z" fill="#9791DF" fill-opacity="0.8"/>
<path d="M325.312 228.395C326.014 226.721 324.979 224.87 323.995 223.491L323.244 222.442L322.486 223.497C321.501 224.866 320.467 226.699 321.158 228.373C321.567 229.372 322.34 230.044 323.23 230.052C324.12 230.058 324.897 229.389 325.312 228.395" fill="#F47216"/>
<path d="M324.389 229.094C324.795 228.124 324.198 227.059 323.628 226.258L323.192 225.651L322.753 226.26C322.186 227.049 321.588 228.111 321.987 229.081C322.224 229.658 322.672 230.051 323.185 230.052C323.697 230.052 324.15 229.672 324.389 229.094" fill="white"/>
<path d="M326.049 231.41C325.843 230.496 325.23 229.827 324.501 229.823L322.04 229.811C321.307 229.806 320.696 230.468 320.481 231.378L315.559 231.351L315.554 232.995L330.966 233.078L330.971 231.436L326.049 231.41Z" fill="#5F3C20"/>
<path d="M316.444 237.593L311.494 216.207L312.292 215.83L317.242 237.219L316.444 237.593" fill="#5F3C20"/>
<path d="M330.184 237.666L335.255 216.333L334.458 215.95L329.385 237.285L330.184 237.666" fill="#5F3C20"/>
<path d="M308.399 184.561C308.438 170.265 313.152 157.512 320.523 149.052C307.969 151.107 298.202 165.847 298.152 183.796C298.125 194.013 301.341 202.905 306.265 209.678C306.265 209.678 313.45 221.018 318.814 221.047L321.091 221.057C313.327 212.532 308.356 199.348 308.399 184.561Z" fill="#292869"/>
<path d="M326.115 148.977C333.794 157.512 338.699 170.622 338.659 185.309C338.616 199.755 333.805 212.628 326.296 221.085L327.914 221.097C332.734 221.122 340.649 209.864 340.649 209.864C345.699 203.467 348.881 194.29 348.908 184.069C348.961 165.828 338.959 150.778 326.115 148.977" fill="#292869"/>
<path d="M319.986 149.05C311.342 157.504 305.82 170.25 305.778 184.546C305.737 199.332 311.572 212.522 320.687 221.056L326.794 221.092C335.597 212.637 341.238 199.77 341.277 185.321C341.319 170.635 335.559 157.521 326.545 148.983C325.59 148.867 324.614 148.802 323.63 148.796C322.396 148.79 321.182 148.881 319.986 149.05" fill="#4E5DE9"/>
<path d="M322.076 149.059C318.371 157.539 315.994 170.305 315.955 184.6C315.911 199.388 318.381 212.56 322.256 221.066L324.861 221.079C328.635 212.599 331.062 199.717 331.101 185.268C331.145 170.58 328.707 157.485 324.874 148.975C324.464 148.859 324.051 148.798 323.63 148.796C323.105 148.794 322.585 148.891 322.076 149.059Z" fill="#292869"/>
<path d="M330.509 249.093C330.501 250.601 329.613 251.822 328.522 251.816L318.08 251.758C316.989 251.75 316.109 250.521 316.113 249.012L316.147 236.983C316.147 236.679 316.324 236.437 316.544 236.436L330.147 236.514C330.365 236.513 330.543 236.761 330.541 237.062L330.509 249.093" fill="#391E0B"/>
<path d="M191.475 588.867C190.727 588.775 190.135 587.595 190.135 586.135C190.135 584.618 189.495 583.387 188.705 583.387H184.963C184.835 583.387 184.713 583.431 184.594 583.491H182.359H159.431H154.047C153.272 583.491 152.645 584.696 152.645 586.184C152.645 587.674 153.272 588.88 154.047 588.88H159.431H168.666C169.184 589.128 169.571 590.022 169.571 591.096C169.571 592.362 170.105 593.388 170.763 593.388H172.442C172.388 593.401 172.333 593.419 172.277 593.419H176.826H190.203H194.752C195.406 593.419 195.937 592.4 195.937 591.143C195.937 589.885 195.406 588.867 194.752 588.867H193.161H191.475Z" fill="#293B6D"/>
<path d="M176.75 571.663C176.75 572.204 176.979 572.643 177.26 572.643C177.541 572.643 177.77 572.204 177.77 571.663V531.95C177.77 531.411 177.541 530.971 177.26 530.971C176.979 530.971 176.75 531.411 176.75 531.95V571.663" fill="#293B6D"/>
<path d="M192.749 566.49L177.65 516.154L162.548 566.49H192.749Z" fill="#ABABAB"/>
<path d="M178.682 570.698H194.072C194.392 570.698 194.569 571.423 194.353 571.88C190.495 580.119 184.904 585.3 178.682 585.3H168.59C165.979 585.3 163.863 581.234 163.863 576.218V572.263C163.863 571.4 164.227 570.698 164.678 570.698H178.682Z" fill="#785E11"/>
<path d="M162.549 566.49L177.65 516.154V566.49H162.549Z" fill="#979797"/>
<path d="M174.501 512.896L172.806 509.64V509.638H177.65V516.153H172.806V516.152L174.501 512.896" fill="#B12928"/>
<path d="M191.3 577.237C187.782 582.302 183.415 585.3 178.682 585.3H168.59C166.159 585.3 164.158 581.775 163.894 577.237H191.3Z" fill="#785E11"/>
<path d="M364.284 151.427C365.698 151.427 366.289 147.446 365.152 145.591C363.661 143.159 361.817 141.721 359.821 141.721C359.713 141.721 359.605 141.725 359.498 141.734C357.256 141.91 355.131 139.78 353.551 136.265C352.591 134.128 351.412 132.471 350.094 131.473C348.751 130.455 347.644 128.307 346.95 125.574C345.414 119.523 342.48 115.432 339.113 115.432C335.349 115.432 332.128 120.544 330.793 127.793C330.329 130.316 329.248 132.019 328.014 132.015H327.934C324.88 132.015 322.183 135.379 320.561 140.522C319.695 143.267 318.299 144.962 316.783 144.957H316.756C316.624 144.957 316.493 144.963 316.363 144.975C314.475 145.155 314.568 151.427 316.457 151.427H364.284Z" fill="#9791DF" fill-opacity="0.8"/>
<path d="M109.067 153.289C111.381 153.289 112.348 147.455 110.487 144.736C108.046 141.172 105.028 139.065 101.76 139.065C101.582 139.065 101.406 139.07 101.23 139.083C97.5602 139.342 94.0799 136.22 91.4943 131.069C89.9223 127.936 87.9911 125.508 85.8335 124.045C83.6355 122.553 81.8216 119.407 80.6859 115.401C78.1709 106.533 73.368 100.538 67.8548 100.538C61.6926 100.538 56.4186 108.028 54.2335 118.653C53.4736 122.351 51.7037 124.846 49.6836 124.84H49.5525C44.5526 124.84 40.1356 129.771 37.4802 137.307C36.0623 141.33 33.7764 143.814 31.2943 143.807H31.2503C31.0349 143.807 30.8204 143.816 30.6077 143.834C27.517 144.096 27.6683 153.289 30.7617 153.289H109.067Z" fill="#9791DF" fill-opacity="0.8"/>
<path d="M164.391 482.809H161.988V351.501H164.391V482.809Z" fill="#293B6D"/>
<path d="M164.974 341.722L163.053 319L161.132 341.722C161.008 343.18 161.107 344.683 161.413 346.014L163.053 353.152L164.693 346.014C164.999 344.683 165.098 343.18 164.974 341.722Z" fill="white"/>
<path d="M156.817 355.193L147.432 369.719L158.738 361.523C159.463 360.997 160.098 360.083 160.551 358.914L162.981 352.643L158.911 353.51C158.152 353.672 157.419 354.262 156.817 355.193Z" fill="white"/>
<path d="M167.028 361.896L178.334 370.093L168.949 355.566C168.348 354.634 167.614 354.045 166.855 353.884L162.785 353.016L165.215 359.287C165.668 360.457 166.303 361.37 167.028 361.896Z" fill="white"/>
<path d="M164.495 353.153C164.495 354.846 163.773 356.219 162.884 356.219C161.993 356.219 161.271 354.846 161.271 353.153C161.271 351.46 161.993 350.087 162.884 350.087C163.773 350.087 164.495 351.46 164.495 353.153Z" fill="#F97F23"/>
<path d="M193.995 491H190.995V369H193.995V491Z" fill="#293B6D"/>
<path d="M194.349 358.516L192.23 336L190.11 358.516C189.974 359.96 190.082 361.449 190.42 362.768L192.23 369.841L194.039 362.768C194.377 361.449 194.486 359.96 194.349 358.516Z" fill="white"/>
<path d="M185.349 371.864L174.995 386.258L187.469 378.136C188.269 377.615 188.969 376.709 189.469 375.551L192.15 369.337L187.66 370.196C186.823 370.356 186.013 370.941 185.349 371.864Z" fill="white"/>
<path d="M196.616 378.506L209.09 386.628L198.735 372.233C198.072 371.31 197.262 370.726 196.424 370.566L191.935 369.707L194.615 375.92C195.115 377.08 195.816 377.985 196.616 378.506Z" fill="white"/>
<path d="M193.82 369.842C193.82 371.52 193.024 372.88 192.043 372.88C191.06 372.88 190.264 371.52 190.264 369.842C190.264 368.164 191.06 366.804 192.043 366.804C193.024 366.804 193.82 368.164 193.82 369.842Z" fill="#F97F23"/>
<path d="M141.995 465H139.995V367H141.995V465Z" fill="#293B6D"/>
<path d="M142.478 360.465L140.893 344L139.307 360.465C139.205 361.521 139.286 362.61 139.539 363.575L140.893 368.747L142.246 363.575C142.499 362.61 142.58 361.521 142.478 360.465Z" fill="white"/>
<path d="M135.745 370.226L128 380.752L137.331 374.813C137.93 374.432 138.453 373.77 138.828 372.923L140.833 368.378L137.474 369.006C136.848 369.124 136.242 369.551 135.745 370.226Z" fill="white"/>
<path d="M144.174 375.083L153.505 381.022L145.759 370.496C145.263 369.821 144.657 369.394 144.03 369.277L140.672 368.649L142.677 373.192C143.051 374.04 143.575 374.702 144.174 375.083Z" fill="white"/>
<path d="M142.082 368.748C142.082 369.975 141.487 370.969 140.753 370.969C140.018 370.969 139.422 369.975 139.422 368.748C139.422 367.521 140.018 366.526 140.753 366.526C141.487 366.526 142.082 367.521 142.082 368.748Z" fill="#F97F23"/>
</g>
<defs>
<linearGradient id="paint0_linear_169:5303" x1="209.207" y1="210.794" x2="205.994" y2="-17.52" gradientUnits="userSpaceOnUse">
<stop stop-color="#74789E"/>
<stop offset="0.263004" stop-color="#A1A1D0"/>
<stop offset="1" stop-color="#3D1A6B"/>
</linearGradient>
<clipPath id="clip0_169:5303">
<rect width="414" height="736" fill="white"/>
</clipPath>
</defs>
</svg>
