<svg width="1280" height="720" viewBox="0 0 1280 720" fill="none" xmlns="http://www.w3.org/2000/svg">
<g id="night-mode-desktop" clip-path="url(#clip0_167:1077)">
<rect width="1280" height="720" fill="white"/>
<g id="background-dark-mode">
<path id="path32" d="M2.59519 475.493L1276.19 475.441L1276.22 9.12855L2.61913 9.1804L2.59519 475.493Z" fill="url(#paint0_linear_167:1077)"/>
<path id="path14" d="M0.0957031 558.961H1279.32V4.82666H0.0957031V558.961Z" fill="url(#paint1_linear_167:1077)"/>
<path id="Vector 1" d="M1 701V542L1279 548.5V701H1Z" fill="#7298F8"/>
<path id="path26" d="M1258.15 246.885L663.166 223.034C651.518 220.467 639.542 218.07 627.214 215.878H1279.32V237.976L1258.15 246.885Z" fill="#9796C6"/>
<path id="path28" d="M2.59497 582.703V309.789L2.59886 410.793C2.59497 410.793 2.59497 410.793 2.59497 410.793V424.463V582.703ZM808.525 347.949L445.571 251.665L235.75 324.532L170.734 297.371L160.183 242.552C232.803 220.86 322.33 204.786 430.884 202.008C440.53 201.761 450.018 201.642 459.319 201.642C522.443 201.642 577.758 207.159 627.308 216.005H485.367L663.098 223.157C722.528 236.308 773.451 253.943 820.041 271.579C888.43 297.467 947.464 323.356 1010.25 335.056L997.953 337.944C987.325 340.442 976.366 341.68 965.434 341.68C948.832 341.68 932.297 338.824 917.104 333.188L860.731 312.278L808.525 347.949V347.949ZM157.797 291.965L156.527 291.435L161.793 288.177L157.797 291.965ZM149.503 288.501L103.083 269.107L51.1546 288.463L46.1421 286.553C77.5389 271.301 114.434 256.39 157.29 243.422L149.503 288.501" fill="#E7FEFF"/>
<path id="path30" d="M663.098 223.157L485.367 216.005H627.308C639.581 218.196 651.503 220.592 663.098 223.157" fill="#EFFEFE"/>
<path id="path294" d="M295.348 501.535L264.169 502.191L249.098 502.511L193.659 503.685L167.289 504.25L177.672 458.989L204.151 431.597L224.629 410.412L205.097 425.765L180.937 444.763L201.085 356.91C207.377 352.122 214.445 346.764 220.856 341.907C231.388 333.925 240.128 327.3 240.706 326.866L221.662 338.141L202.827 349.303L223.434 259.451L238.665 250.959L224.29 255.723L239.68 188.606L247.405 154.948L255.469 213.245V213.261L267.026 296.776L260.347 295.739L253.647 294.695L260.466 297.294L267.464 299.955L277.668 373.712L265.036 368.803L246.48 361.599L265.314 374.559L279.092 384.042L295.348 501.535" fill="#6B8744"/>
<path id="path298" d="M267.026 296.776L260.346 295.739C254.622 219.946 247.405 154.948 247.405 154.948L255.468 213.245V213.261L267.026 296.776" fill="#BAD188"/>
<path id="path54" d="M741.064 183.148C752.971 185.448 877.167 233.536 877.167 233.536L938.389 229.803L1089.71 191.024L1172.21 208.602L1226.64 208.625L1279.37 217.978L1279.48 343.691L273.812 343.259L273.764 293.111L561.649 190.797L667.93 177.685C667.93 177.685 729.157 180.844 741.064 183.148Z" fill="url(#paint2_linear_167:1077)"/>
<path id="path78" d="M519.899 114.342L535.665 126.043L614.316 190.819L694.038 216.332L805.209 274.752L805.267 334.988L273.817 334.759L334.744 194.407L421.761 142.703L435.318 129.342L459.064 130.188L494.103 114.331L519.899 114.342Z" fill="url(#paint3_linear_167:1077)"/>
<path id="path96" opacity="0.149994" d="M694.038 216.333L601.655 252.841L462.651 334.841L435.513 334.83L539.455 243.833L554.98 219.615L586.352 213.363L614.317 190.82L694.038 216.333Z" fill="#F0E5DF"/>
<path id="path112" opacity="0.149994" d="M494.102 114.331L460.786 157.547L411.399 171.1L332.789 220.145L305.084 262.73L334.743 194.406L421.761 142.703L435.317 129.342L459.064 130.188L494.102 114.331Z" fill="#F0E5DF"/>
<path id="path140" d="M69.9358 176.906L136.862 191.867L262.81 257.916L443.152 278.043L557.017 270.573L609.464 261.406L638.773 265.596L746.041 243.922L783.338 229.737L834.373 230.593L858.202 243.97L891.092 244.82L1007.93 268.261L1151.97 284.194L1276.74 302.383L1276.85 415.611L0.981333 415.063L0.758272 180.549L43.8446 170.943L69.9358 176.906Z" fill="url(#paint4_linear_167:1077)"/>
<path id="path158" opacity="0.320007" d="M784.8 229.738L830.037 236.439L849.841 254.409L899.593 252.342L1008.72 268.261L892.235 244.82L859.443 243.97L835.685 230.595L784.8 229.738Z" fill="white"/>
<path id="path174" opacity="0.149994" d="M683.666 300.701L745.317 328.712L866.318 338.789L957.277 415.474L386.293 415.228L441.951 277.632L445.623 278.044L559.149 270.574L611.44 261.407L640.665 265.597L747.613 243.922L683.65 283.993L683.666 300.701Z" fill="#E0DFF0"/>
<path id="path204" d="M320.539 95.4609C320.539 95.4609 335.902 114.263 345.282 117.4C354.662 120.537 374.289 141.847 374.289 141.847L423.774 185.725L441.674 183.854C441.674 183.854 459.574 181.982 469.806 183.866C480.037 185.75 481.761 205.799 481.761 205.799C481.761 205.799 497.117 217.083 503.952 233.376C510.787 249.669 538.16 283.93 538.16 283.93L552.39 283.937L581.029 291.05L604.609 314.868L691.709 336.208L807.546 353.8C807.546 353.8 966.105 352.615 1003.44 343.86C1040.77 335.104 1167.19 253.71 1167.19 253.71C1167.19 253.71 1202.99 249.966 1233.69 253.739C1245.12 255.143 1262.47 268.02 1279.75 283.631L1280 546.974L1.29102 546.425L1.05245 295.614L47.0516 259.494C47.0516 259.494 70.9077 245.721 84.5395 237.582C98.1713 229.443 127.112 183.718 127.112 183.718C127.112 183.718 148.409 168.691 168.009 161.181C187.609 153.671 213.998 114.211 213.998 114.211L280.473 95.4437L320.539 95.4609Z" fill="url(#paint5_linear_167:1077)"/>
<path id="path406" d="M1083.56 281.827C1083.56 281.827 1101.75 326.239 1117.63 333.495C1133.51 340.751 1172.09 356.626 1172.09 356.626L1214.07 380.214L1249.22 380.23L1279.86 403.484L1280 546.974L234.428 546.525L234.382 498.06C234.382 498.06 399.058 453.257 422.156 446.697C445.255 440.138 520.625 401.203 536.784 395.773C552.942 390.343 597.568 390.362 597.568 390.362L616.863 377.684L653.833 370.449L668.393 365.925L705.464 337.848C705.464 337.848 741.56 336.052 762.893 332.436C784.222 328.821 821.642 323.4 821.642 323.4L898.728 295.34L991.692 267.288L1057.46 261.879L1083.56 281.827Z" fill="url(#paint6_linear_167:1077)"/>
<path id="path454" d="M332.931 333.13L517.532 413.405C517.532 413.405 582.873 425.963 589.415 427.637C595.958 429.31 619.771 435.251 638.463 434.34C642.213 434.158 645.546 435.194 649.58 436.232C654.688 437.545 660.921 438.86 670.544 437.696C687.765 435.614 708.158 428.523 713.827 429.779C719.493 431.034 752.935 439.402 775.605 441.5C798.273 443.599 808.472 441.932 820.944 446.532C833.414 451.132 857.791 462.002 861.192 462.839C862.703 463.212 865.11 462.925 867.417 462.637C870.3 462.277 873.028 461.917 873.658 462.844C874.793 464.515 890.647 451.574 892.346 450.322C893.032 449.816 894.089 450.875 895.775 451.936C898.267 453.501 902.134 455.068 908.214 451.582C918.408 445.738 931.441 444.491 933.708 445.327C935.976 446.164 977.357 460.8 982.457 461.221C984.725 461.407 989.006 461.265 993.211 461.123C998.471 460.944 1003.61 460.766 1004.56 461.23C1006.06 461.965 1224.13 509.148 1276.05 520.373L1276.07 546.972L1.06576 546.424L0.898899 370.996L25.833 371.007L71.15 354.736C71.15 354.736 106.263 333.032 127.793 328.029C149.32 323.026 199.18 313.858 199.18 313.858C199.18 313.858 224.103 304.68 241.108 309.699C258.113 314.719 294.375 308.226 294.375 308.226L332.931 333.13Z" fill="url(#paint7_linear_167:1077)"/>
<path id="path254" d="M1049.18 535.992V538.495H0.739502V401.824C57.0766 405.388 142.951 410.678 251.391 416.929C366.121 423.54 611.808 461.749 803.01 493.591C918.715 512.865 1014.47 529.802 1049.18 535.992Z" fill="#5E68BE"/>
<path id="path256" d="M756.86 506.932L591.571 475.027L571.36 473.54L458.588 505.865L566.092 473.152L560.868 472.767L509.101 486.456L554.657 472.31L548.447 471.853L441.859 489.229L541.471 471.34L535.031 470.867L339.766 495.329L528.659 470.397L507.928 468.872C507.928 468.872 487.015 468.472 444.753 466.269C444.748 466.269 444.742 466.268 444.733 466.268C442.642 466.268 332.336 474.057 332.336 474.057C332.336 474.057 425.599 465.29 424.623 465.238C421.716 465.081 418.779 464.918 415.822 464.752C415.819 464.752 415.815 464.752 415.811 464.752C414.06 464.752 294.255 478.376 294.255 478.376C294.255 478.376 400.063 464.328 408.325 464.328C408.426 464.328 408.514 464.331 408.585 464.335C409.787 464.407 410.326 464.439 410.34 464.439C410.426 464.439 389.746 463.179 382.158 462.659C382.154 462.658 382.15 462.658 382.144 462.658C380.523 462.658 313.936 474.534 313.936 474.534C313.936 474.534 376.272 462.248 375.097 462.164C353 460.576 331.791 458.703 314.83 456.539C312.41 456.23 309.693 455.882 306.693 455.497V438.606C326.453 442.135 354.762 447.198 412.289 450.639C505.821 456.234 576.327 459.561 599.295 463.997C622.264 468.434 693.36 488.397 725.054 496.16C732.267 497.926 746.424 501.011 764.659 504.722C762.058 505.464 759.459 506.201 756.86 506.932V506.932ZM3.84424 465.162V412.926C20.3597 416.984 39.0802 419.618 59.8928 419.618C83.1539 419.623 106.644 420.548 129.194 421.936V432.447C81.3706 426.213 35.1323 420.177 3.84424 416.091V455.125V465.162V465.162ZM295.124 454.008C271.826 451.004 238.22 446.642 201.271 441.834V427.84C235.207 431.16 261.872 434.282 274.575 434.557C281.686 434.711 288.045 435.469 295.124 436.606V454.008ZM189.702 440.329C173.692 438.245 157.193 436.096 140.763 433.955V422.693C157.932 423.879 174.422 425.295 189.702 426.731V440.329Z" fill="#9796C6"/>
<path id="path266" d="M910.007 538.495H0.739502V417.01C81.4102 427.585 261.55 451.188 311.65 457.605C328.607 459.777 349.811 461.657 371.903 463.25C373.077 463.335 310.756 475.665 310.756 475.665C310.756 475.665 377.784 463.666 378.962 463.747C387.756 464.353 414.133 465.954 405.383 465.43C399.468 465.075 291.08 479.522 291.08 479.522C291.08 479.522 411.444 465.781 412.618 465.848C415.574 466.015 418.51 466.178 421.417 466.336C422.392 466.388 329.152 475.187 329.152 475.187C329.152 475.187 440.326 467.307 441.542 467.37C483.793 469.582 504.702 469.983 504.702 469.983L525.427 471.514L336.58 496.536L531.798 471.985L538.236 472.46L438.649 490.414L545.21 472.975L551.419 473.434L505.874 487.631L557.629 473.893L562.851 474.279L455.373 507.111L568.118 474.668L588.324 476.161L910.007 538.495" fill="#5C65BA"/>
<path id="path258" d="M1136.63 588.582C1136.63 588.582 1200.49 575.322 1280.57 558.961V720H765.88C790.431 715.38 811.591 711.968 825.242 710.904C859.318 708.252 937.795 681.655 1001.28 658.531C1046.87 641.928 1084.74 627.124 1092.9 624.267C1112.41 617.428 1136.63 588.582 1136.63 588.582Z" fill="#A7AAF9"/>
<path id="path260" d="M1280.57 575.965V720H887.056C916.15 706.463 946.916 694.441 972.583 689.611C979.427 688.324 986.103 686.831 992.592 685.186C1055.11 669.34 1099.57 639.279 1099.57 639.279C1099.57 639.279 1162.72 602.765 1173.16 602.765C1178.39 602.765 1230.17 589.349 1280.57 575.965" fill="#8898D1"/>
<path id="Line 12" d="M7.37036 541.456L646.799 539.596L1280 545.196" stroke="#432982" stroke-width="11"/>
<path id="path262" d="M1280.57 650.578V720H918.287C936.107 709.133 951.28 701.896 960.096 701.896C974.673 701.896 998.318 698.009 1023.91 692.28C1043.94 687.795 1065.17 682.181 1084.16 676.419C1084.71 676.257 1096.17 655.923 1096.17 655.923L1087.75 675.321C1087.75 675.321 1088.55 675.065 1089.9 674.619C1090.17 674.528 1118.84 635.237 1119.16 635.131C1119.35 635.068 1095.28 673.603 1095.48 673.536C1103.21 670.98 1117.12 665.54 1124.8 662.386C1127.01 661.479 1162.41 611.974 1162.41 611.974L1129.95 661.449L1131.75 661.041L1168.94 619.675L1133.56 660.881C1133.56 660.881 1237.26 651.374 1280.57 650.578" fill="#6872A5"/>
<path id="path254_2" d="M1181.86 716.569V720H0.739502V532.71C64.2059 537.594 160.947 544.843 283.11 553.409C412.36 562.469 689.138 614.83 904.537 658.465C1034.88 684.877 1142.75 708.088 1181.86 716.569Z" fill="#707CE8"/>
<path id="path256_2" d="M849.26 678.782L663.007 634.851L640.232 632.803L513.158 677.312L634.297 632.269L628.411 631.739L570.078 650.588L621.411 631.11L614.413 630.481L494.308 654.405L606.553 629.774L599.296 629.122L379.266 662.804L592.116 628.476L568.756 626.375C568.756 626.375 545.19 625.826 497.569 622.792C497.563 622.792 497.556 622.791 497.546 622.791C495.19 622.791 370.894 633.515 370.894 633.515C370.894 633.515 475.985 621.444 474.886 621.372C471.61 621.156 468.3 620.932 464.968 620.703C464.964 620.703 464.961 620.703 464.956 620.703C462.983 620.703 327.983 639.463 327.983 639.463C327.983 639.463 447.21 620.12 456.521 620.12C456.634 620.12 456.733 620.123 456.813 620.129C458.168 620.227 458.775 620.272 458.791 620.272C458.888 620.272 435.585 618.538 427.035 617.821C427.03 617.82 427.026 617.82 427.019 617.82C425.192 617.82 350.16 634.171 350.16 634.171C350.16 634.171 420.402 617.255 419.078 617.139C394.178 614.954 370.279 612.374 351.167 609.394C348.441 608.969 345.379 608.49 341.999 607.96V584.703C364.264 589.561 396.164 596.532 460.987 601.27C566.382 608.974 645.829 613.556 671.711 619.664C697.593 625.772 777.706 653.26 813.42 663.95C821.548 666.381 837.5 670.629 858.048 675.739C855.117 676.761 852.188 677.774 849.26 678.782V678.782ZM0.739502 621.267V549.342C19.3496 554.93 40.4444 558.557 63.8966 558.557C90.1079 558.563 116.577 559.837 141.987 561.748V576.221C88.0985 567.638 35.9958 559.327 0.739502 553.701V607.447V621.267V621.267ZM328.963 605.909C302.709 601.773 264.841 595.766 223.206 589.147V569.878C261.446 574.449 291.492 578.748 305.806 579.127C313.82 579.339 320.985 580.383 328.963 581.948V605.909ZM210.17 587.074C192.129 584.206 173.537 581.246 155.023 578.298V562.79C174.37 564.424 192.952 566.374 210.17 568.35V587.074Z" fill="#5E73BE"/>
<path id="path266_2" d="M1025.06 720H0.739502V553.681C91.6175 568.159 294.551 600.472 350.989 609.258C370.092 612.232 393.979 614.805 418.866 616.986C420.19 617.102 349.983 633.983 349.983 633.983C349.983 633.983 425.492 617.556 426.819 617.667C436.725 618.496 466.44 620.688 456.582 619.97C449.919 619.484 327.817 639.263 327.817 639.263C327.817 639.263 463.41 620.451 464.733 620.543C468.063 620.772 471.371 620.995 474.645 621.211C475.744 621.282 370.706 633.328 370.706 633.328C370.706 633.328 495.947 622.54 497.317 622.627C544.914 625.655 568.469 626.203 568.469 626.203L591.816 628.3L379.075 662.556L598.993 628.944L606.246 629.595L494.058 654.175L614.102 630.3L621.096 630.928L569.789 650.365L628.092 631.556L633.975 632.085L512.898 677.034L639.908 632.618L662.671 634.661L1025.06 720" fill="#495B9B"/>
<path id="path274" d="M211.465 595.321H224.466V541.193H211.465V595.321Z" fill="#1A2374"/>
<path id="path276" d="M143.464 589.055H156.466V552.534H143.464V589.055Z" fill="#1A2374"/>
<g id="arbre-3">
<path id="path280" d="M197.079 553.856L143.961 552.82L123.926 552.431L102.62 552.02L107.578 521.03L131.916 494.508L141.224 484.354C140.782 484.674 137.298 487.197 132.478 490.643C125.972 495.293 117.052 501.651 109.882 506.591L120.987 437.179L140.643 411.915L122.47 427.894L136.423 340.666L149.969 326.791L137.289 335.268L147.14 273.655L158.291 336.236L160.899 350.889L160.908 350.919L164.438 370.74L159.397 368.773L152.688 366.151L149.969 365.091L152.596 366.654L159.24 370.611L165.037 374.064L181.293 465.256L152.55 450.451L147.398 447.798L152.421 451.946L183.486 477.599L197.079 553.856" fill="#192F7D"/>
<path id="path288" d="M123.926 552.431L102.62 552.02L107.578 521.03L131.916 494.508C128.589 517.485 125.899 537.368 123.926 552.431" fill="#807CAF"/>
</g>
<path id="path278" d="M330.117 626.61H343.118V572.482H330.117V626.61Z" fill="#1A2374"/>
<g id="arbre-2">
<path id="path294_2" d="M273.605 540.15L244.742 540.805L230.79 541.125L179.469 542.299L155.057 542.864L164.668 497.604L189.182 470.212L208.138 449.026L190.057 464.38L167.691 483.377L186.343 395.524C192.168 390.737 198.711 385.378 204.645 380.521C214.395 372.54 222.487 365.915 223.021 365.48L205.392 376.755L187.956 387.917L207.032 298.066L221.132 289.573L207.825 294.338L222.072 227.221L229.223 193.563L236.688 251.86V251.875L247.387 335.39L241.203 334.353L235.001 333.309L241.314 335.909L247.792 338.569L257.238 412.326L245.544 407.417L228.366 400.214L245.802 413.173L258.556 422.656L273.605 540.15Z" fill="#445387"/>
<path id="path296" d="M230.79 541.125L179.469 542.299L155.057 542.864L164.668 497.604L189.182 470.212L208.138 449.026L190.057 464.38L167.691 483.377L186.343 395.524C192.168 390.737 198.711 385.378 204.645 380.521C214.395 372.539 222.487 365.915 223.021 365.48L205.392 376.755L187.956 387.917L207.032 298.066L221.132 289.573L207.825 294.338L222.072 227.221C225.915 319.61 230.182 473.49 230.79 541.125" fill="#2A2F5E"/>
<path id="path302" d="M273.605 540.15L244.742 540.805C248.539 512.401 248.087 464.486 245.802 413.174L258.556 422.656L273.605 540.15" fill="#8894D1"/>
</g>
<g id="arbre-1">
<path id="path304" d="M383.785 579.243L363.613 578.58L289.096 576.126L294.054 545.136L327.727 508.436C327.156 508.849 309.011 521.968 296.358 530.698L307.462 461.285L327.119 436.021L308.946 451.992L322.898 364.771L327.386 360.175L336.436 350.889L326.64 357.445L323.756 359.374L325.018 351.499L333.616 297.761L350.914 394.846L336.436 389.197L351.513 398.17L367.76 489.362L355.706 483.157L333.874 471.905L357.07 491.062L369.962 501.705L383.785 579.243" fill="#454487"/>
<path id="path306" d="M367.76 489.362L355.706 483.156C348.628 443.232 338.04 399.642 327.386 360.174C327.128 359.259 326.889 358.352 326.64 357.445C326.096 355.448 325.553 353.465 325.018 351.499L333.616 297.761L350.914 394.846L336.436 389.197L351.513 398.17L367.76 489.362Z" fill="#888BD1"/>
<path id="path308" d="M363.613 578.58C365.668 555.825 362.756 524.994 357.07 491.062L369.962 501.705L383.785 579.243L363.613 578.58" fill="#888FD1"/>
</g>
<path id="path316" d="M0.739502 671.55V621.276L143.443 589.114H156.614L0.739502 671.55Z" fill="#1B197D"/>
<path id="path318" d="M44.3729 696.137H0.739502V672.433L211.242 595.622H224.345L44.3729 696.137Z" fill="#1B197D"/>
<path id="path320" d="M198.03 695.883H131.43L329.939 622.385H342.94L198.03 695.883Z" fill="#1B197D"/>
<path id="path70" d="M1120.02 411.598H1070.51V464.266H1120.02V411.598Z" fill="#ADBBDF"/>
<path id="path72" d="M1108.64 439.75H1081.88V464.266H1108.64V439.75Z" fill="#293B6D"/>
<path id="path76" d="M1120.02 411.599H1070.5L1095.27 392.086L1120.02 411.599Z" fill="#ADBBDF"/>
<path id="path80" d="M1182.29 392.088V392.087H1095.27L1120.02 411.599V464.263H1157.53L1157.53 464.258V464.266H1207.05V411.6L1207.05 411.599L1182.29 392.088Z" fill="#585789"/>
<path id="path84" d="M1101.31 409.408L1094.63 404.148L1087.96 409.408H1087.95V418.918H1101.31V409.408Z" fill="#293B6D"/>
<path id="path88" d="M885.636 307.094L863.272 323.835V403.142H885.636H907.999V323.835L885.636 307.094Z" fill="#9796C6"/>
<path id="path90" d="M956.605 403.142H907.999V323.835H956.605V403.142Z" fill="#C1C0FF"/>
<path id="path94" d="M934.243 307.094H885.636L907.999 323.834H956.606L934.243 307.094Z" fill="#293B6D"/>
<path id="path96_2" d="M887.665 332.017H881.023V318.117H887.665V332.017Z" fill="#FFB531"/>
<path id="path98" d="M877.095 349.888H869.343V343.389H877.095V349.888Z" fill="#FFB531"/>
<path id="path100" d="M898.201 349.888H890.448V343.389H898.201V349.888Z" fill="#FFB531"/>
<path id="path110" d="M1162.45 506.623H685.752L778.187 433.77C785.421 428.068 795.235 424.865 805.467 424.865H1042.75C1052.98 424.865 1062.79 428.069 1070.03 433.771L1162.45 506.623Z" fill="#131166"/>
<path id="path114" d="M889.665 412.66C889.623 406.365 883.136 401.271 875.137 401.271C872.758 401.271 870.514 401.725 868.531 402.524C865.246 398.231 859.273 395.36 852.449 395.36C845.344 395.36 839.163 398.472 835.977 403.061C835.635 403.074 835.299 403.105 834.965 403.139C833.059 402.316 830.872 401.846 828.545 401.846C821.458 401.846 815.672 406.192 815.209 411.686C806.119 412.129 798.852 417.875 798.364 425.055H905.294C903.675 418.858 897.51 413.972 889.665 412.66Z" fill="#2C2B58"/>
<path id="path118" d="M905.328 384.077V425.055H847.806V384.077L876.567 374.194L905.328 384.077Z" fill="#ADBBDF"/>
<path id="path120" d="M945.706 425.055H905.329V384.077H945.706V425.055Z" fill="#9796C6"/>
<path id="path124" d="M876.569 374.195H916.946L945.707 384.076H905.33L876.569 374.195Z" fill="#293B6D"/>
<path id="path126" d="M884.244 425.055H866.546V407.181H884.244V425.055Z" fill="#293B6D"/>
<path id="path128" d="M922.829 398.255H914.175V393.297H922.829V398.255Z" fill="#F97F23"/>
<path id="path130" d="M939.289 398.255H930.635V393.297H939.289V398.255Z" fill="#293B6D"/>
<path id="path132" d="M922.829 409.374H914.175V404.415H922.829V409.374Z" fill="#293B6D"/>
<path id="path134" d="M939.289 409.374H930.635V404.415H939.289V409.374Z" fill="#293B6D"/>
<path id="path136" d="M999.823 342.894H945.396V425.055H999.823V342.894Z" fill="#C6C7EB"/>
<path id="path138" d="M999.823 382.827H945.396V386.15H999.823V382.827Z" fill="#C1C0FF"/>
<path id="path142" d="M1029.8 342.936V425.053H999.823V342.936L1014.81 332.903L1029.8 342.936Z" fill="#C1C0FF"/>
<path id="path146" d="M1014.81 332.903L999.884 342.896H945.395L960.324 332.903H1014.81Z" fill="#293B6D"/>
<path id="path148" d="M1023.6 425.053H1006.59V407.69H1023.6V425.053Z" fill="#293B6D"/>
<path id="path150" d="M959.36 365.007H952.597V359.194H959.36V365.007Z" fill="#F97F23"/>
<path id="path152" d="M992.159 365.007H985.395V359.194H992.159V365.007Z" fill="#F97F23"/>
<path id="path154" d="M975.119 365.007H968.355V359.194H975.119V365.007Z" fill="#F97F23"/>
<path id="path156" d="M959.36 375.734H952.597V369.922H959.36V375.734Z" fill="#293B6D"/>
<path id="path158_2" d="M992.159 375.734H985.395V369.922H992.159V375.734Z" fill="#293B6D"/>
<path id="path160" d="M975.119 375.734H968.355V369.922H975.119V375.734Z" fill="#293B6D"/>
<path id="path162" d="M959.36 400.271H952.597V394.458H959.36V400.271Z" fill="#293B6D"/>
<path id="path164" d="M992.159 400.271H985.395V394.458H992.159V400.271Z" fill="#293B6D"/>
<path id="path166" d="M975.119 400.271H968.355V394.458H975.119V400.271Z" fill="#293B6D"/>
<path id="path168" d="M959.36 410.999H952.597V405.186H959.36V410.999Z" fill="#293B6D"/>
<path id="path170" d="M992.159 410.999H985.395V405.186H992.159V410.999Z" fill="#293B6D"/>
<path id="path172" d="M975.119 410.999H968.355V405.186H975.119V410.999Z" fill="#293B6D"/>
<path id="path226" d="M1211.77 441.862H1136.41V504.206H1211.77V441.862Z" fill="#C6C7EB"/>
<path id="path230" d="M1253.28 441.919V504.204H1211.77V441.919L1232.52 428.029L1253.28 441.919Z" fill="#C1C0FF"/>
<path id="path234" d="M1232.52 428.029L1211.85 441.864H1136.41L1157.08 428.029H1232.52Z" fill="#293B6D"/>
<path id="path236" d="M1162.31 461.911H1149.23V454.4H1162.31V461.911Z" fill="#293B6D"/>
<path id="path238" d="M1195.76 461.911H1182.68V454.4H1195.76V461.911Z" fill="#293B6D"/>
<path id="path240" d="M739.505 506.347H689.237V419.377H739.505V506.347Z" fill="#9796C6"/>
<path id="path242" d="M739.505 506.347H773.758V419.377H739.505V506.347Z" fill="#C6C7EB"/>
<path id="path244" d="M739.505 442.785H689.237V439.716H739.505V442.785Z" fill="#ADBBDF"/>
<path id="path246" d="M739.505 442.785H773.758V439.716H739.505V442.785Z" fill="#9796C6"/>
<path id="path248" d="M697.102 425.709H703.189V434.364H697.102V425.709Z" fill="#F97F23"/>
<path id="path250" d="M725.311 425.709H731.398V434.364H725.311V425.709Z" fill="#293B6D"/>
<path id="path252" d="M711.279 425.709H717.366V434.364H711.279V425.709Z" fill="#F97F23"/>
<path id="path254_3" d="M739.505 466.771H689.237V463.703H739.505V466.771Z" fill="#ADBBDF"/>
<path id="path256_3" d="M739.505 466.771H773.758V463.703H739.505V466.771Z" fill="#9796C6"/>
<path id="path258_2" d="M697.102 449.697H703.189V458.352H697.102V449.697Z" fill="#293B6D"/>
<path id="path260_2" d="M725.311 449.697H731.398V458.352H725.311V449.697Z" fill="#F97F23"/>
<path id="path262_2" d="M711.279 449.697H717.366V458.352H711.279V449.697Z" fill="#293B6D"/>
<path id="path264" d="M739.505 492.022H689.237V488.953H739.505V492.022Z" fill="#ADBBDF"/>
<path id="path266_3" d="M739.505 492.022H773.758V488.953H739.505V492.022Z" fill="#9796C6"/>
<path id="path268" d="M697.102 474.947H703.189V483.603H697.102V474.947Z" fill="#293B6D"/>
<path id="path270" d="M725.311 474.947H731.398V483.603H725.311V474.947Z" fill="#293B6D"/>
<path id="path272" d="M711.279 474.947H717.366V483.603H711.279V474.947Z" fill="#F97F23"/>
<path id="path274_2" d="M811.853 507.916H766.471V429.397H811.853V507.916Z" fill="#ADBBDF"/>
<path id="path276_2" d="M811.853 507.916H842.777V429.397H811.853V507.916Z" fill="#9796C6"/>
<path id="path278_2" d="M782.921 441.625H774.908V435.322H782.921V441.625Z" fill="#293B6D"/>
<path id="path280_2" d="M801.289 441.625H793.278V435.322H801.289V441.625Z" fill="#293B6D"/>
<path id="path282" d="M782.921 456.188H774.908V449.885H782.921V456.188Z" fill="#F97F23"/>
<path id="path284" d="M801.289 456.188H793.278V449.885H801.289V456.188Z" fill="#293B6D"/>
<path id="path286" d="M782.921 470.749H774.908V464.445H782.921V470.749Z" fill="#293B6D"/>
<path id="path288_2" d="M801.289 470.749H793.278V464.445H801.289V470.749Z" fill="#293B6D"/>
<path id="path290" d="M782.921 485.311H774.908V479.008H782.921V485.311Z" fill="#293B6D"/>
<path id="path292" d="M801.289 485.311H793.278V479.008H801.289V485.311Z" fill="#293B6D"/>
<path id="path294_3" d="M782.921 499.873H774.908V493.57H782.921V499.873Z" fill="#293B6D"/>
<path id="path296_2" d="M801.289 499.873H793.278V493.57H801.289V499.873Z" fill="#293B6D"/>
<path id="path300" d="M1242.23 503.091H1217.63C1204.78 503.091 1192.45 499.066 1183.36 491.902L1161.27 474.493C1150.13 465.712 1135.02 460.779 1119.27 460.779H952.309C937.227 460.779 925.119 470.59 925.535 482.473L925.594 484.131C926.027 496.509 913.415 506.729 897.703 506.729H684.757C678.312 506.729 672.135 508.746 667.576 512.338L658.548 519.46C654.823 522.39 649.787 524.035 644.524 524.035H634.469C626.768 524.035 620.525 528.956 620.525 535.026V538.529H927.5V538.53H1276.31V529.949C1276.31 515.116 1261.05 503.091 1242.23 503.091Z" fill="#2C2B58"/>
<path id="path316_2" d="M1093.29 513.528H1164.38C1169.32 513.528 1174.06 515.134 1177.55 517.995L1184.95 524.049C1188.42 526.89 1193.13 528.485 1198.03 528.485H1254.19C1259.64 528.485 1264.86 530.257 1268.72 533.411L1275.26 538.769H1085.68L1093.29 513.528Z" fill="#2C2B58"/>
<path id="path318_2" d="M1208.18 490.185H1205.48V528.283H1208.18V490.185Z" fill="#293B6D"/>
<path id="path322" d="M1222.84 478.413C1223.43 476.882 1223.7 475.239 1223.6 473.531C1223.16 466.575 1216.29 460.876 1207.8 460.441C1197.96 459.935 1189.79 466.314 1189.79 474.257C1189.79 475.674 1190.05 477.041 1190.54 478.328C1191.79 481.676 1191.51 485.31 1189.47 488.39C1187.83 490.87 1186.96 493.742 1187.14 496.793C1187.61 504.841 1195.49 511.452 1205.32 512.006C1216.76 512.652 1226.29 505.243 1226.29 496.012C1226.29 493.27 1225.45 490.688 1223.97 488.43C1221.96 485.368 1221.57 481.73 1222.84 478.413Z" fill="#2E84AF"/>
<path id="path324" d="M853.508 439.394H826.057V538.769H853.508V439.394Z" fill="#C1C0FF"/>
<path id="path328" d="M826.058 538.769V439.394H794.925V474.937H769.817V538.769H826.058Z" fill="#C6C7EB"/>
<path id="path330" d="M819.102 446.536H801.458V444.304H819.102V446.536Z" fill="#293B6D"/>
<path id="path332" d="M819.102 458.887H801.458V456.655H819.102V458.887Z" fill="#293B6D"/>
<path id="path334" d="M819.102 471.238H801.458V469.006H819.102V471.238Z" fill="#F97F23"/>
<path id="path336" d="M819.102 483.589H776.724V481.357H819.102V483.589Z" fill="#293B6D"/>
<path id="path338" d="M819.102 495.938H776.724V493.707H819.102V495.938Z" fill="#FFB531"/>
<path id="path340" d="M819.102 508.289H776.724V506.058H819.102V508.289Z" fill="#293B6D"/>
<path id="path342" d="M819.102 520.64H776.724V518.408H819.102V520.64Z" fill="#FFB531"/>
<path id="path344" d="M819.102 532.991H776.724V530.759H819.102V532.991Z" fill="#293B6D"/>
<path id="path346" d="M833.531 500.072H830.774V539.057H833.531V500.072Z" fill="#293B6D"/>
<path id="path350" d="M852.833 504.278C852.833 513.627 843.575 521.206 832.153 521.206C820.732 521.206 811.473 513.627 811.473 504.278C811.473 494.929 820.732 487.35 832.153 487.35C843.575 487.35 852.833 494.929 852.833 504.278Z" fill="#293B6D"/>
<path id="path352" d="M678.816 479.718H675.976V519.872H678.816V479.718Z" fill="#293B6D"/>
<path id="path356" d="M698.932 497.626L688.158 488.807H694.757C698.134 488.807 699.824 485.466 697.438 483.511L686.528 474.582H691.478C694.216 474.582 695.588 471.871 693.652 470.287L679.57 458.76C678.37 457.777 676.423 457.777 675.223 458.76L661.141 470.287C659.205 471.871 660.577 474.582 663.315 474.582H668.263L657.355 483.511C654.967 485.466 656.659 488.807 660.034 488.807H666.635L655.861 497.626C653.295 499.726 655.112 503.316 658.74 503.316H696.052C699.68 503.316 701.497 499.726 698.932 497.626Z" fill="#233281"/>
<path id="path358" d="M616.986 493.737H614.128V538.704H616.986V493.737Z" fill="#293B6D"/>
<path id="path362" d="M637.216 511.748L626.38 502.879H633.018C636.413 502.879 638.114 499.518 635.712 497.553L624.742 488.573H629.719C632.473 488.573 633.852 485.847 631.904 484.253L617.743 472.66C616.536 471.672 614.579 471.672 613.372 472.66L599.209 484.253C597.261 485.847 598.641 488.573 601.395 488.573H606.372L595.402 497.553C593.001 499.518 594.702 502.879 598.097 502.879H604.734L593.899 511.748C591.318 513.86 593.146 517.472 596.795 517.472H634.32C637.968 517.472 639.796 513.86 637.216 511.748Z" fill="#233281"/>
<path id="path456" d="M906.26 414.039H858.524V538.769H906.26V414.039Z" fill="#C6C7EB"/>
<path id="path460" d="M929.389 428.548L906.261 414.04V538.769H929.389V428.548Z" fill="#C1C0FF"/>
<path id="path462" d="M891.447 430.581H867.051V426.55H891.447V430.581Z" fill="#F97F23"/>
<path id="path464" d="M891.447 440.945H867.051V436.915H891.447V440.945Z" fill="#293B6D"/>
<path id="path466" d="M891.447 451.31H867.051V447.279H891.447V451.31Z" fill="#F97F23"/>
<path id="path468" d="M891.447 461.633H867.051V457.601H891.447V461.633Z" fill="#293B6D"/>
<path id="path470" d="M891.447 471.997H867.051V467.965H891.447V471.997Z" fill="#293B6D"/>
<path id="path472" d="M891.447 482.362H867.051V478.33H891.447V482.362Z" fill="#F97F23"/>
<path id="path474" d="M891.447 492.727H867.051V488.695H891.447V492.727Z" fill="#293B6D"/>
<path id="path476" d="M891.447 502.977H867.051V498.945H891.447V502.977Z" fill="#F97F23"/>
<path id="path478" d="M891.447 513.341H867.051V509.31H891.447V513.341Z" fill="#293B6D"/>
<path id="path480" d="M891.447 523.706H867.051V519.674H891.447V523.706Z" fill="#293B6D"/>
<path id="path484" d="M934.226 526.145C934.186 519.731 927.823 514.543 919.978 514.543C917.644 514.543 915.443 515.005 913.499 515.819C910.277 511.446 904.419 508.523 897.726 508.523C890.757 508.523 884.694 511.692 881.57 516.366C881.235 516.38 880.905 516.411 880.578 516.446C878.709 515.608 876.563 515.129 874.281 515.129C867.33 515.129 861.656 519.556 861.201 525.151C852.285 525.604 845.159 531.456 844.68 538.769H949.555C947.967 532.459 941.921 527.481 934.226 526.145Z" fill="#232241"/>
<path id="path488" d="M1002.95 375.913V377.694H977.589V375.913C977.589 369.854 971.59 364.944 964.189 364.944H989.562C996.955 364.944 1002.95 369.854 1002.95 375.913Z" fill="#C6C7EB"/>
<path id="path490" d="M986.611 389.312H941.951V440.105H986.611V389.312Z" fill="#9796C6"/>
<path id="path492" d="M986.611 389.312H1006.1V440.105H986.611V389.312Z" fill="#C6C7EB"/>
<path id="path494" d="M986.609 440.107H941.953V389.315H986.609V440.107Z" fill="#9796C6"/>
<path id="path498" d="M986.611 427.924H941.95V440.105H986.611H1006.1V427.924H986.611Z" fill="#9796C6"/>
<path id="path500" d="M986.609 440.107H941.953V427.923H986.609V440.107Z" fill="#293B6D"/>
<path id="path502" d="M989.477 431.846H934.651V538.768H989.477V431.846Z" fill="#9796C6"/>
<path id="path504" d="M989.477 431.846H1013.4V538.768H989.477V431.846Z" fill="#C6C7EB"/>
<path id="path506" d="M956.04 450.877H947.406V444.891H956.04V450.877Z" fill="#FFB531"/>
<path id="path508" d="M978.039 450.877H969.405V444.891H978.039V450.877Z" fill="#293B6D"/>
<path id="path510" d="M956.04 469.633H947.406V463.646H956.04V469.633Z" fill="#293B6D"/>
<path id="path512" d="M978.039 469.633H969.405V463.646H978.039V469.633Z" fill="#293B6D"/>
<path id="path514" d="M956.04 488.39H947.406V482.403H956.04V488.39Z" fill="#FFB531"/>
<path id="path516" d="M978.039 488.39H969.405V482.403H978.039V488.39Z" fill="#293B6D"/>
<path id="path518" d="M956.04 507.146H947.406V501.158H956.04V507.146Z" fill="#293B6D"/>
<path id="path520" d="M978.039 507.146H969.405V501.158H978.039V507.146Z" fill="#293B6D"/>
<path id="path522" d="M956.04 525.902H947.406V519.915H956.04V525.902Z" fill="#293B6D"/>
<path id="path524" d="M978.039 525.901H969.405V519.915H978.039V525.901Z" fill="#293B6D"/>
<path id="path526" d="M956.04 403.8H947.406V397.813H956.04V403.8Z" fill="#F97F23"/>
<path id="path528" d="M978.039 403.8H969.405V397.813H978.039V403.8Z" fill="#293B6D"/>
<path id="path530" d="M956.04 422.556H947.406V416.569H956.04V422.556Z" fill="#293B6D"/>
<path id="path532" d="M978.039 422.556H969.405V416.569H978.039V422.556Z" fill="#293B6D"/>
<path id="path536" d="M977.586 377.692V375.912C977.586 369.857 971.59 364.948 964.193 364.948C956.794 364.948 950.798 369.857 950.798 375.912V377.692H943.93V389.312H984.456V377.692H977.586Z" fill="#293B6D"/>
<path id="path538" d="M1003.04 377.692H984.415V389.312H1003.04V377.692Z" fill="#C6C7EB"/>
<path id="path542" d="M1075.63 489.26V469.141L1046.78 445.518L1017.92 469.141V538.768H1059.77V538.769H1101.48V489.26H1075.63Z" fill="#8792BB"/>
<path id="path544" d="M963.804 469.14H1017.92V538.769H963.804V469.14Z" fill="#ADBBDF"/>
<path id="path548" d="M992.661 445.519L963.804 469.14H1017.92L1046.78 445.519H992.661Z" fill="#293B6D"/>
<path id="path550" d="M973.167 478.347H978.297V482.547H973.167V478.347Z" fill="#F97F23"/>
<path id="path552" d="M987.475 478.347H992.605V482.547H987.475V478.347Z" fill="#293B6D"/>
<path id="path554" d="M1001.78 478.347H1006.91V482.547H1001.78V478.347Z" fill="#293B6D"/>
<path id="path556" d="M973.167 490.274H978.297V494.474H973.167V490.274Z" fill="#293B6D"/>
<path id="path558" d="M987.475 490.274H992.605V494.474H987.475V490.274Z" fill="#F97F23"/>
<path id="path560" d="M1001.78 490.274H1006.91V494.474H1001.78V490.274Z" fill="#293B6D"/>
<path id="path562" d="M973.167 502.201H978.297V506.4H973.167V502.201Z" fill="#F97F23"/>
<path id="path564" d="M987.475 502.201H992.605V506.4H987.475V502.201Z" fill="#293B6D"/>
<path id="path566" d="M1001.78 502.201H1006.91V506.4H1001.78V502.201Z" fill="#F97F23"/>
<path id="path568" d="M973.167 514.128H978.297V518.328H973.167V514.128Z" fill="#293B6D"/>
<path id="path570" d="M987.475 514.128H992.605V518.328H987.475V514.128Z" fill="#F97F23"/>
<path id="path572" d="M1001.78 514.128H1006.91V518.328H1001.78V514.128Z" fill="#293B6D"/>
<path id="path574" d="M973.167 526.055H978.297V530.255H973.167V526.055Z" fill="#F97F23"/>
<path id="path576" d="M987.475 526.055H992.605V530.255H987.475V526.055Z" fill="#F97F23"/>
<path id="path578" d="M1001.78 526.055H1006.91V530.255H1001.78V526.055Z" fill="#293B6D"/>
<path id="path580" d="M1056.43 501.724H1053.76V539.382H1056.43V501.724Z" fill="#293B6D"/>
<path id="path584" d="M1075.07 505.787C1075.07 514.819 1066.13 522.139 1055.1 522.139C1044.06 522.139 1035.12 514.819 1035.12 505.787C1035.12 496.756 1044.06 489.436 1055.1 489.436C1066.13 489.436 1075.07 496.756 1075.07 505.787Z" fill="#20283E"/>
<path id="path588" d="M767.477 538.768H623.661L643.456 524.78C648.707 521.068 655.418 519.026 662.352 519.026H683.704C688.074 519.026 692.261 520.45 695.355 522.975L699.311 526.221C702.318 528.675 706.389 530.059 710.635 530.059H748.688C753.91 530.059 758.918 531.754 762.602 534.778L767.477 538.768Z" fill="#131168"/>
<path id="path214" d="M493.908 470.633H490.856V330.851H493.908V470.633Z" fill="#293B6D"/>
<g id="roue-eolienne-2">
<path id="path204_2" d="M498.772 315.296L492.902 286.846L487.031 315.296C486.654 317.121 486.954 319.003 487.89 320.67L492.902 329.606L497.914 320.67C498.849 319.003 499.15 317.121 498.772 315.296Z" fill="white"/>
<path id="path208" d="M473.844 332.162L445.167 350.349L479.715 340.086C481.931 339.429 483.871 338.284 485.256 336.821L492.681 328.969L480.245 330.054C477.925 330.257 475.684 330.995 473.844 332.162Z" fill="white"/>
<path id="path212" d="M505.05 340.554L539.598 350.817L510.92 332.629C509.081 331.462 506.838 330.725 504.519 330.522L492.083 329.436L499.509 337.288C500.893 338.752 502.833 339.896 505.05 340.554Z" fill="white"/>
<path id="path218" d="M497.307 329.607C497.307 331.728 495.103 333.446 492.383 333.446C489.662 333.446 487.457 331.728 487.457 329.607C487.457 327.487 489.662 325.769 492.383 325.769C495.103 325.769 497.307 327.487 497.307 329.607Z" fill="#F97F23"/>
</g>
<path id="path214_2" d="M584.835 478.588H581.783V338.805H584.835V478.588Z" fill="#293B6D"/>
<g id="roue-eolienne-3">
<path id="path204_3" d="M589.699 323.251L583.829 294.801L577.958 323.251C577.58 325.076 577.881 326.957 578.816 328.624L583.829 337.561L588.84 328.624C589.776 326.957 590.076 325.076 589.699 323.251Z" fill="white"/>
<path id="path208_2" d="M564.771 340.117L536.094 358.304L570.642 348.041C572.858 347.383 574.797 346.239 576.183 344.775L583.608 336.923L571.171 338.009C568.852 338.211 566.61 338.95 564.771 340.117Z" fill="white"/>
<path id="path212_2" d="M595.976 348.509L630.524 358.771L601.846 340.583C600.008 339.417 597.765 338.679 595.445 338.477L583.01 337.391L590.435 345.242C591.819 346.707 593.759 347.85 595.976 348.509Z" fill="white"/>
<path id="path218_2" d="M588.234 337.562C588.234 339.682 586.029 341.4 583.31 341.4C580.588 341.4 578.384 339.682 578.384 337.562C578.384 335.442 580.588 333.724 583.31 333.724C586.029 333.724 588.234 335.442 588.234 337.562Z" fill="#F97F23"/>
</g>
<path id="path214_3" d="M426.014 454.001H423.495V346.668H426.014V454.001Z" fill="#293B6D"/>
<g id="roue-eolienne-1">
<path id="path204_4" d="M430.028 334.725L425.184 312.879L420.338 334.725C420.026 336.126 420.275 337.571 421.046 338.851L425.184 345.713L429.32 338.851C430.092 337.571 430.34 336.126 430.028 334.725Z" fill="white"/>
<path id="path208_3" d="M409.454 347.675L385.786 361.64L414.3 353.76C416.129 353.255 417.73 352.376 418.873 351.252L425.001 345.223L414.737 346.057C412.823 346.212 410.972 346.779 409.454 347.675Z" fill="white"/>
<path id="path212_3" d="M435.209 354.119L463.723 362L440.054 348.034C438.537 347.138 436.686 346.571 434.771 346.416L424.508 345.582L430.636 351.611C431.779 352.736 433.379 353.614 435.209 354.119Z" fill="white"/>
<path id="path218_3" d="M428.819 345.714C428.819 347.342 427 348.661 424.755 348.661C422.509 348.661 420.69 347.342 420.69 345.714C420.69 344.086 422.509 342.766 424.755 342.766C427 342.766 428.819 344.086 428.819 345.714Z" fill="#F97F23"/>
</g>
<path id="path88_2" d="M1187.35 443.042L1169.84 457.076V523.561H1187.35H1204.86V457.076L1187.35 443.042Z" fill="#899AD4"/>
<path id="path90_2" d="M1242.91 523.561H1204.86V457.077H1242.91V523.561Z" fill="#ADBBDF"/>
<path id="path94_2" d="M1225.4 443.042H1187.35L1204.86 457.076H1242.91L1225.4 443.042Z" fill="#293B6D"/>
<path id="path96_3" d="M1188.94 463.935H1183.74V452.283H1188.94V463.935Z" fill="#293B6D"/>
<path id="path98_2" d="M1180.66 478.917H1174.59V473.469H1180.66V478.917Z" fill="#293B6D"/>
<path id="path100_2" d="M1197.19 478.917H1191.12V473.469H1197.19V478.917Z" fill="#293B6D"/>
<path id="path100_3" d="M1215.49 466.98H1209.42V461.532H1215.49V466.98Z" fill="#FFB531"/>
<path id="path100_4" d="M1229.22 466.98H1223.15V461.532H1229.22V466.98Z" fill="#293B6D"/>
<path id="path100_5" d="M1229.22 479.527H1223.15V474.079H1229.22V479.527Z" fill="#293B6D"/>
<path id="path100_6" d="M1217.1 480.187H1211.03V474.739H1217.1V480.187Z" fill="#293B6D"/>
<path id="path118_2" d="M1202.76 507.578V541.931H1157.74V507.578L1180.25 499.294L1202.76 507.578Z" fill="#ADBBDF"/>
<path id="path120_2" d="M1234.37 541.931H1202.77V507.578H1234.37V541.931Z" fill="#C6C7EB"/>
<path id="path124_2" d="M1180.25 499.294H1211.86L1234.37 507.578H1202.77L1180.25 499.294Z" fill="#293B6D"/>
<path id="path126_2" d="M1186.26 541.931H1172.4V526.947H1186.26V541.931Z" fill="#293B6D"/>
<path id="path128_2" d="M1216.46 519.464H1209.69V515.307H1216.46V519.464Z" fill="#293B6D"/>
<path id="path130_2" d="M1229.35 519.464H1222.58V515.307H1229.35V519.464Z" fill="#293B6D"/>
<path id="path132_2" d="M1216.46 528.785H1209.69V524.628H1216.46V528.785Z" fill="#293B6D"/>
<path id="path134_2" d="M1229.35 528.785H1222.58V524.628H1229.35V528.785Z" fill="#293B6D"/>
<path id="path136_2" d="M1279.32 472.94H1234.34V541.957H1279.32V472.94Z" fill="#899AD4"/>
<path id="path162_2" d="M1245.06 521.155H1239.77V516.282H1245.06V521.155Z" fill="#293B6D"/>
<path id="path162_3" d="M1245.4 500.083H1240.11V495.21H1245.4V500.083Z" fill="#293B6D"/>
<path id="path162_4" d="M1245.4 480.933H1240.11V476.06H1245.4V480.933Z" fill="#F97F23"/>
<path id="path164_2" d="M1270.74 521.155H1265.44V516.282H1270.74V521.155Z" fill="#FFB531"/>
<path id="path164_3" d="M1271.08 500.083H1265.78V495.21H1271.08V500.083Z" fill="#F97F23"/>
<path id="path164_4" d="M1271.08 480.933H1265.78V476.06H1271.08V480.933Z" fill="#293B6D"/>
<path id="path166_2" d="M1257.4 521.155H1252.1V516.282H1257.4V521.155Z" fill="#293B6D"/>
<path id="path166_3" d="M1257.74 500.083H1252.44V495.21H1257.74V500.083Z" fill="#FFB531"/>
<path id="path166_4" d="M1257.74 480.933H1252.44V476.06H1257.74V480.933Z" fill="#293B6D"/>
<path id="path168_2" d="M1245.06 530.148H1239.77V525.275H1245.06V530.148Z" fill="#FFB531"/>
<path id="path168_3" d="M1245.4 509.076H1240.11V504.203H1245.4V509.076Z" fill="#F97F23"/>
<path id="path168_4" d="M1245.4 489.926H1240.11V485.053H1245.4V489.926Z" fill="#293B6D"/>
<path id="path170_2" d="M1270.74 530.148H1265.44V525.275H1270.74V530.148Z" fill="#293B6D"/>
<path id="path170_3" d="M1271.08 509.076H1265.78V504.203H1271.08V509.076Z" fill="#293B6D"/>
<path id="path170_4" d="M1271.08 489.926H1265.78V485.053H1271.08V489.926Z" fill="#293B6D"/>
<path id="path172_2" d="M1257.4 530.148H1252.1V525.275H1257.4V530.148Z" fill="#293B6D"/>
<path id="path172_3" d="M1257.74 509.076H1252.44V504.203H1257.74V509.076Z" fill="#293B6D"/>
<path id="path172_4" d="M1257.74 489.926H1252.44V485.053H1257.74V489.926Z" fill="#F97F23"/>
<path id="Rectangle 54" d="M990.697 461.826H1022.47L1023.27 467.565L1024.08 473.826H987.077L990.697 461.826Z" fill="#293B6D"/>
<g id="oiseaux">
<path id="path554_2" d="M1081.85 92.2592C1081.85 92.2592 1073.69 89.2935 1069.66 92.1701C1069.66 92.1701 1077.33 91.3325 1081.78 95.8352C1086.41 91.3989 1094.04 92.3483 1094.04 92.3483C1090.13 89.4137 1081.85 92.2592 1081.85 92.2592Z" fill="black"/>
<path id="path554_3" d="M743.71 325.526C743.71 325.526 727.174 317.038 718.948 325.346C718.948 325.346 734.545 322.886 743.51 335.823C752.973 323.021 768.473 325.707 768.473 325.707C760.572 317.282 743.71 325.526 743.71 325.526Z" fill="black"/>
<path id="path554_4" d="M562.912 239.403C562.912 239.403 546.376 230.915 538.149 239.223C538.149 239.223 553.746 236.763 562.711 249.7C572.175 236.898 587.674 239.584 587.674 239.584C579.774 231.159 562.912 239.403 562.912 239.403Z" fill="black"/>
</g>
<path id="path472_2" opacity="0.320007" d="M419.179 4.92659C419.179 4.92659 397.502 19.6186 387.586 21.7646C377.67 23.9113 381.926 24.4012 373.424 25.4989C364.921 26.5967 364.435 23.4843 354.519 25.6311C344.603 27.7778 337.511 27.3079 335.171 32.5174C332.831 37.7262 350.304 34.4883 349.379 39.1684C348.455 43.8485 335.687 42.3799 331.917 45.0032C328.148 47.6258 345.162 47.5068 319.655 50.8009C294.147 54.095 299.305 44.7117 283.286 56.2484C267.267 67.7843 267.731 65.7044 251.673 68.4129C235.616 71.1214 221.914 72.2562 231.396 78.9403C240.878 85.6251 281.991 84.2993 284.843 87.9139C287.694 91.5293 261.235 93.2722 243.746 92.8749C226.256 92.4784 215.833 86.5144 194.121 93.3192C172.41 100.125 170.54 104.811 148.8 104.963C127.059 105.115 121.856 104.113 85.0103 108.525C48.1645 112.937 52.1686 108.235 27.8236 108.925C3.47859 109.615 0.550423 108.596 0.550423 108.596L0.550423 4.92659L419.179 4.92659Z" fill="#BDBCE4"/>
<path id="path504_2" opacity="0.320007" d="M366.156 144.007C366.156 144.007 387.128 147.328 421.367 147.908C455.606 148.487 491.932 146.207 519.885 147.659C547.839 149.11 584.157 144.31 608.609 143.393C633.061 142.475 669.394 142.383 673.589 143.228C677.784 144.073 702.933 142.512 702.933 142.512C702.933 142.512 679.862 138.077 657.501 137.706C635.141 137.334 616.977 138.236 602.992 134.848C589.007 131.46 569.219 134.506 561.303 134.954C553.385 135.402 530.342 140.167 507.279 138.514C484.217 136.86 455.571 137.361 455.571 137.361L366.156 144.007Z" fill="#BDBCE4"/>
<path id="path520_2" opacity="0.320007" d="M987.04 105.808C987.04 105.808 1012.17 98.7189 1046.67 99.5765C1081.17 100.434 1098.43 104.744 1114.94 99.3155C1131.45 93.8874 1137.92 92.1592 1158.04 91.2524C1178.16 90.3455 1182.48 95.0421 1204.76 95.4136C1227.04 95.7852 1278.78 92.6585 1278.78 92.6585L1278.91 135.882C1278.91 135.882 1245.84 131.686 1222.12 130.89C1198.4 130.094 1191.22 129.685 1170.36 124.174C1149.5 118.663 1152.38 121.224 1121.47 119.162C1090.56 117.101 1101.35 120.393 1071.15 113.888C1040.94 107.383 999.966 102.779 987.04 105.808Z" fill="#BDBCE4"/>
<path id="path536_2" opacity="0.320007" d="M1070.73 61.2753C1070.73 61.2753 1107.84 54.7621 1120.44 50.8787C1133.04 46.9953 1142.86 50.822 1157.58 52.9244C1172.3 55.0269 1184.92 57.6328 1200.32 54.991C1215.73 52.3493 1227.65 55.7427 1237.46 57.0017C1247.27 58.2607 1278.8 57.7529 1278.8 57.7529L1278.83 68.8795C1278.83 68.8795 1218.58 67.3202 1203.16 66.0754C1187.74 64.8306 1186.36 69.9695 1161.82 64.8962C1137.28 59.823 1140.78 56.0328 1118.37 59.264C1095.96 62.4953 1070.73 61.2753 1070.73 61.2753Z" fill="#BDBCE4"/>
<path id="path498_2" d="M1127.1 557H704.743C712.419 557 718.642 562.452 718.642 569.173C718.642 575.878 712.455 581.317 704.813 581.349H687.61C681.198 581.349 676 585.902 676 591.516C676 597.136 681.198 601.689 687.61 601.689L857.57 601.725C862.571 601.725 866.625 605.278 866.625 609.658C866.625 614.042 862.571 617.593 857.57 617.593H841.383H812C807.773 617.593 804.348 620.594 804.348 624.295C804.348 627.997 807.773 631 812 631L963.953 630.862C968.186 630.862 971.616 627.856 971.616 624.148C971.616 620.933 969.034 618.251 965.589 617.593H1040.42H1075.2C1080.2 617.593 1084.26 614.042 1084.26 609.658C1084.26 605.278 1080.2 601.725 1075.2 601.725H1040.42L1028.96 601.689C1022.55 601.689 1017.35 597.136 1017.35 591.516C1017.35 585.922 1022.52 581.384 1028.89 581.352H1127.1C1134.78 581.352 1141 575.899 1141 569.173C1141 562.452 1134.78 557 1127.1 557" fill="#495B9B"/>
<path id="path516_2" d="M934.306 608H876.001C871.6 608 868.033 604.527 868.033 600.242C868.033 595.992 864.52 592.548 860.166 592.492H854.653C823.243 592.492 791.9 592.492 760.239 592.492C756.795 592.492 754 589.775 754 586.421C754 583.066 756.795 580.347 760.239 580.347H773.488C779.038 580.347 781.52 576.555 781.52 573.758C781.52 569.473 785.085 566 789.488 566C827.595 566 937.054 566 974.617 566C978.695 566 982 569.218 982 573.189C982 577.161 978.695 580.38 974.617 580.38C951.04 580.38 890.776 580.41 890.776 580.41C887.352 580.41 884.577 583.111 884.577 586.446C884.577 589.782 887.352 592.484 890.776 592.484H932.444H934.306C938.709 592.484 942.274 595.957 942.274 600.242C942.274 604.527 938.709 608 934.306 608" fill="#707CE8"/>
<path id="path604" d="M957.257 160C959.902 160 961.008 156.129 958.88 154.325C956.089 151.961 952.639 150.562 948.904 150.562C948.7 150.562 948.499 150.566 948.298 150.574C944.103 150.746 940.124 148.675 937.168 145.257C935.371 143.179 933.163 141.568 930.697 140.597C928.184 139.607 926.111 137.519 924.812 134.862C921.937 128.978 916.447 125 910.144 125C903.1 125 897.071 129.97 894.573 137.019C893.704 139.473 891.681 141.128 889.372 141.124H889.222C883.506 141.124 878.457 144.396 875.421 149.396C873.8 152.065 871.187 153.713 868.349 153.709H868.299C868.053 153.709 867.808 153.715 867.565 153.727C864.031 153.901 864.204 160 867.741 160H957.257Z" fill="#9791DF" fill-opacity="0.8"/>
<g id="mongolfiere">
<g id="flammes">
<path id="path478_2" d="M961.694 215.535C962.953 213.359 961.097 210.951 959.333 209.158L957.987 207.793L956.627 209.165C954.861 210.946 953.009 213.33 954.248 215.508C954.98 216.806 956.366 217.681 957.961 217.691C959.557 217.698 960.951 216.829 961.694 215.535" fill="#F47216"/>
<path id="path480_2" d="M960.04 216.445C960.767 215.183 959.697 213.798 958.675 212.756L957.894 211.967L957.106 212.759C956.09 213.785 955.017 215.167 955.734 216.429C956.159 217.179 956.961 217.69 957.882 217.691C958.799 217.691 959.612 217.197 960.04 216.445" fill="white"/>
</g>
<path id="path482" d="M963.017 219.458C962.646 218.269 961.548 217.399 960.24 217.394L955.829 217.379C954.514 217.371 953.419 218.233 953.034 219.416L944.209 219.381L944.2 221.519L971.832 221.627L971.841 219.492L963.017 219.458Z" fill="#5F3C20"/>
<path id="path484_2" d="M945.795 227.5L936.921 199.683L938.351 199.192L947.226 227.013L945.795 227.5" fill="#5F3C20"/>
<path id="path486" d="M970.429 227.594L979.522 199.846L978.091 199.348L968.996 227.1L970.429 227.594" fill="#5F3C20"/>
<path id="path488_2" d="M931.371 158.52C931.442 139.926 939.893 123.338 953.109 112.333C930.601 115.005 913.09 134.178 913 157.525C912.952 170.814 918.719 182.381 927.546 191.19C927.546 191.19 940.428 205.94 950.045 205.977L954.127 205.991C940.208 194.902 931.295 177.754 931.371 158.52Z" fill="#292869"/>
<path id="path490_2" d="M963.134 112.236C976.901 123.338 985.696 140.39 985.624 159.493C985.547 178.284 976.921 195.028 963.459 206.028L966.36 206.044C975.001 206.077 989.192 191.433 989.192 191.433C998.246 183.112 1003.95 171.176 1004 157.881C1004.09 134.154 986.162 114.579 963.134 112.236" fill="#292869"/>
<path id="path492_2" d="M952.146 112.33C936.649 123.326 926.748 139.905 926.672 158.501C926.6 177.732 937.061 194.89 953.402 205.99L964.351 206.036C980.134 195.039 990.247 178.303 990.317 159.508C990.393 140.406 980.066 123.349 963.905 112.242C962.193 112.092 960.443 112.008 958.679 112C956.467 111.991 954.291 112.111 952.146 112.33" fill="#4E5DE9"/>
<path id="path494_2" d="M955.893 112.342C949.25 123.373 944.989 139.977 944.919 158.571C944.841 177.806 949.269 194.939 956.215 206.002L960.887 206.02C967.652 194.99 972.004 178.234 972.073 159.439C972.152 140.335 967.781 123.302 960.91 112.233C960.175 112.082 959.433 112.003 958.679 112C957.738 111.998 956.805 112.123 955.893 112.342Z" fill="#292869"/>
<path id="path496" d="M971.011 242.458C970.998 244.419 969.406 246.008 967.45 246L948.728 245.925C946.773 245.915 945.194 244.316 945.202 242.353L945.263 226.707C945.263 226.312 945.58 225.997 945.975 225.996L970.363 226.096C970.753 226.095 971.072 226.417 971.07 226.81L971.011 242.458" fill="#391E0B"/>
</g>
<g id="bateau">
<path id="path500_2" d="M589.185 571.259C587.375 571.143 585.94 569.655 585.94 567.815C585.94 565.901 584.388 564.349 582.473 564.349H573.407C573.096 564.349 572.799 564.404 572.511 564.48H567.096H511.533H498.487C496.609 564.48 495.088 566 495.088 567.876C495.088 569.755 496.609 571.276 498.487 571.276H511.533H533.913C535.169 571.588 536.107 572.716 536.107 574.071C536.107 575.667 537.401 576.96 538.995 576.96H543.063C542.932 576.977 542.799 577 542.664 577H553.688H586.104H597.128C598.713 577 600 575.715 600 574.129C600 572.543 598.713 571.259 597.128 571.259H593.272H589.185Z" fill="#293B6D"/>
<path id="path502_2" d="M553.503 549.565C553.503 550.246 554.057 550.8 554.737 550.8C555.419 550.8 555.973 550.246 555.973 549.565V499.485C555.973 498.805 555.419 498.25 554.737 498.25C554.057 498.25 553.503 498.805 553.503 499.485V549.565" fill="#293B6D"/>
<path id="path504_3" d="M592.273 543.042L555.683 479.566L519.088 543.042H592.273Z" fill="#ABABAB"/>
<path id="path506_2" d="M558.185 548.348H595.479C596.255 548.348 596.683 549.261 596.161 549.837C586.812 560.228 573.263 566.761 558.185 566.761H533.73C527.402 566.761 522.274 561.633 522.274 555.308V550.321C522.274 549.232 523.156 548.348 524.248 548.348H558.185Z" fill="#785E11"/>
<path id="path508_2" d="M519.088 543.042L555.683 479.566V543.042H519.088Z" fill="#979797"/>
<path id="path510_2" d="M548.052 475.457L543.945 471.352V471.349H555.683V479.565H543.945V479.564L548.052 475.457" fill="#B12928"/>
<path id="path512_2" d="M588.763 556.593C580.237 562.98 569.653 566.761 558.185 566.761H533.729C527.839 566.761 522.989 562.316 522.349 556.593H588.763Z" fill="#785E11"/>
</g>
<path id="path604_2" d="M1057.26 149C1059.9 149 1061.01 145.129 1058.88 143.325C1056.09 140.961 1052.64 139.562 1048.9 139.562C1048.7 139.562 1048.5 139.566 1048.3 139.574C1044.1 139.746 1040.12 137.675 1037.17 134.257C1035.37 132.179 1033.16 130.568 1030.7 129.597C1028.18 128.607 1026.11 126.519 1024.81 123.862C1021.94 117.978 1016.45 114 1010.14 114C1003.1 114 997.071 118.97 994.573 126.019C993.704 128.473 991.681 130.128 989.372 130.124H989.222C983.506 130.124 978.457 133.396 975.421 138.396C973.8 141.065 971.187 142.713 968.349 142.709H968.299C968.053 142.709 967.808 142.715 967.565 142.727C964.031 142.901 964.204 149 967.741 149H1057.26Z" fill="#9791DF" fill-opacity="0.8"/>
<path id="path604_3" d="M440.495 148C444.84 148 446.655 141.254 443.16 138.109C438.578 133.988 432.913 131.551 426.779 131.551C426.445 131.551 426.114 131.558 425.784 131.572C418.895 131.872 412.362 128.262 407.508 122.305C404.557 118.683 400.932 115.875 396.881 114.183C392.755 112.458 389.35 108.819 387.218 104.188C382.497 93.9325 373.481 87 363.132 87C351.564 87 341.664 95.6619 337.562 107.948C336.135 112.224 332.813 115.109 329.021 115.103H328.775C319.389 115.103 311.097 120.804 306.113 129.518C303.451 134.171 299.16 137.043 294.5 137.035H294.418C294.013 137.035 293.611 137.045 293.211 137.066C287.41 137.37 287.693 148 293.501 148H440.495Z" fill="#9791DF" fill-opacity="0.8"/>
</g>
</g>
<defs>
<linearGradient id="paint0_linear_167:1077" x1="640.634" y1="206.251" x2="639.648" y2="-15.0157" gradientUnits="userSpaceOnUse">
<stop stop-color="#74789E"/>
<stop offset="0.263004" stop-color="#A1A1D0"/>
<stop offset="1" stop-color="#3D1A6B"/>
</linearGradient>
<linearGradient id="paint1_linear_167:1077" x1="639.706" y1="558.961" x2="639.706" y2="4.82666" gradientUnits="userSpaceOnUse">
<stop stop-color="#6A6B79"/>
<stop offset="0.1875" stop-color="#030305"/>
<stop offset="1" stop-color="#0B1020"/>
</linearGradient>
<linearGradient id="paint2_linear_167:1077" x1="787.693" y1="333.043" x2="787.771" y2="150.416" gradientUnits="userSpaceOnUse">
<stop stop-color="#9E9CAB"/>
<stop offset="0.263004" stop-color="#9797A3"/>
<stop offset="1" stop-color="#544E9F"/>
</linearGradient>
<linearGradient id="paint3_linear_167:1077" x1="539.557" y1="351.596" x2="539.636" y2="169.161" gradientUnits="userSpaceOnUse">
<stop stop-color="#C1C0E2"/>
<stop offset="0.0344351" stop-color="#C0E2E2"/>
<stop offset="0.121607" stop-color="#C3C0E2"/>
<stop offset="1" stop-color="#514EED"/>
</linearGradient>
<linearGradient id="paint4_linear_167:1077" x1="655.394" y1="450.22" x2="655.47" y2="273.451" gradientUnits="userSpaceOnUse">
<stop stop-color="#9695D3"/>
<stop offset="0.712824" stop-color="#3B39B5"/>
<stop offset="1" stop-color="#3B39B5"/>
</linearGradient>
<linearGradient id="paint5_linear_167:1077" x1="655.104" y1="511.62" x2="655.23" y2="219.657" gradientUnits="userSpaceOnUse">
<stop stop-color="#6D76C6"/>
<stop offset="0.09375" stop-color="#6D6093"/>
<stop offset="0.509592" stop-color="#5D48B0"/>
<stop offset="1" stop-color="#312B58"/>
</linearGradient>
<linearGradient id="paint6_linear_167:1077" x1="771.864" y1="448.886" x2="771.935" y2="283.052" gradientUnits="userSpaceOnUse">
<stop stop-color="#3F49A6"/>
<stop offset="0.872151" stop-color="#111A68"/>
<stop offset="1" stop-color="#181168"/>
</linearGradient>
<linearGradient id="paint7_linear_167:1077" x1="625.929" y1="541.685" x2="626.031" y2="305.221" gradientUnits="userSpaceOnUse">
<stop stop-color="#7083E8"/>
<stop offset="0.201386" stop-color="#444787"/>
<stop offset="0.770658" stop-color="#392E57"/>
<stop offset="1" stop-color="#1B1A33"/>
</linearGradient>
<clipPath id="clip0_167:1077">
<rect width="1280" height="720" fill="white"/>
</clipPath>
</defs>
</svg>
