<?xml version="1.0" standalone="no"?>
<!DOCTYPE svg PUBLIC "-//W3C//DTD SVG 20010904//EN"
 "http://www.w3.org/TR/2001/REC-SVG-20010904/DTD/svg10.dtd">
<svg version="1.0" xmlns="http://www.w3.org/2000/svg"
 width="512.000000pt" height="512.000000pt" viewBox="0 0 512.000000 512.000000"
 preserveAspectRatio="xMidYMid meet">

<g transform="translate(0.000000,512.000000) scale(0.100000,-0.100000)"
fill="#000000" stroke="none">
<path d="M1083 4518 c-13 -6 -34 -34 -47 -62 l-24 -51 54 -3 c30 -2 78 -2 108
0 l54 3 -24 51 c-31 66 -71 86 -121 62z"/>
<path d="M1280 3490 c0 -148 4 -270 8 -270 22 0 123 36 175 61 l57 29 0 225 0
225 -120 0 -120 0 0 -270z"/>
<path d="M3989 1262 c44 -82 -49 -175 -131 -131 -20 11 -21 9 -16 -34 10 -86
82 -142 172 -135 85 7 137 59 144 144 7 90 -49 162 -135 172 -43 5 -45 4 -34
-16z"/>
</g>
</svg>
